%TF.GenerationSoftware,KiCad,Pcbnew,(6.0.1)*%
%TF.CreationDate,2022-01-26T01:35:16+07:00*%
%TF.ProjectId,Maja V1 PCB Redesign,4d616a61-2056-4312-9050-434220526564,rev?*%
%TF.SameCoordinates,Original*%
%TF.FileFunction,Copper,L1,Top*%
%TF.FilePolarity,Positive*%
%FSLAX46Y46*%
G04 Gerber Fmt 4.6, Leading zero omitted, Abs format (unit mm)*
G04 Created by KiCad (PCBNEW (6.0.1)) date 2022-01-26 01:35:16*
%MOMM*%
%LPD*%
G01*
G04 APERTURE LIST*
%TA.AperFunction,NonConductor*%
%ADD10C,1.874879*%
%TD*%
%TA.AperFunction,NonConductor*%
%ADD11C,3.467596*%
%TD*%
%TA.AperFunction,ComponentPad*%
%ADD12R,1.700000X1.700000*%
%TD*%
%TA.AperFunction,ComponentPad*%
%ADD13C,1.700000*%
%TD*%
%TA.AperFunction,ComponentPad*%
%ADD14C,2.200000*%
%TD*%
%TA.AperFunction,ComponentPad*%
%ADD15O,1.050000X2.100000*%
%TD*%
%TA.AperFunction,ViaPad*%
%ADD16C,0.800000*%
%TD*%
%TA.AperFunction,Conductor*%
%ADD17C,0.250000*%
%TD*%
%TA.AperFunction,Conductor*%
%ADD18C,0.381000*%
%TD*%
G04 APERTURE END LIST*
D10*
X360414485Y-115640758D02*
G75*
G03*
X360414485Y-115640758I-937439J0D01*
G01*
X192314491Y-188640764D02*
G75*
G03*
X192314491Y-188640764I-937439J0D01*
G01*
X84614503Y-173640769D02*
G75*
G03*
X84614503Y-173640769I-937439J0D01*
G01*
X45614479Y-96640770D02*
G75*
G03*
X45614479Y-96640770I-937439J0D01*
G01*
D11*
X151962431Y-90066692D02*
G75*
G03*
X151962431Y-90066692I-1733798J0D01*
G01*
D10*
X192114491Y-112640764D02*
G75*
G03*
X192114491Y-112640764I-937439J0D01*
G01*
X301293241Y-175742746D02*
G75*
G03*
X301293241Y-175742746I-937439J0D01*
G01*
D12*
%TO.P,J2,6,GND*%
%TO.N,GND*%
X241014640Y-130652321D03*
D13*
%TO.P,J2,5,~{RST}*%
%TO.N,RESET*%
X241014640Y-128112321D03*
%TO.P,J2,4,MOSI*%
%TO.N,MOSI*%
X238474640Y-130652321D03*
%TO.P,J2,3,SCK*%
%TO.N,SCK*%
X238474640Y-128112321D03*
%TO.P,J2,2,VCC*%
%TO.N,+5V*%
X235934640Y-130652321D03*
%TO.P,J2,1,MISO*%
%TO.N,MISO*%
X235934640Y-128112321D03*
%TD*%
D14*
%TO.P,K40,1,COL*%
%TO.N,COL9*%
X241480492Y-137332689D03*
%TO.P,K40,2,ROW*%
%TO.N,Net-(D40-Pad2)*%
X247292955Y-133728611D03*
%TD*%
%TO.P,K31,1,COL*%
%TO.N,COL15*%
X370872676Y-114200950D03*
%TO.P,K31,2,ROW*%
%TO.N,Net-(D31-Pad2)*%
X377222676Y-111660950D03*
%TD*%
%TO.P,K54,1,COL*%
%TO.N,COL9*%
X235408492Y-157747039D03*
%TO.P,K54,2,ROW*%
%TO.N,Net-(D54-Pad2)*%
X241220955Y-154142961D03*
%TD*%
%TO.P,K33,1,COL*%
%TO.N,COL2*%
X84171026Y-131918350D03*
%TO.P,K33,2,ROW*%
%TO.N,Net-(D33-Pad2)*%
X90521026Y-129378350D03*
%TD*%
%TO.P,K62,1,COL*%
%TO.N,COL4*%
X143270765Y-177708966D03*
%TO.P,K62,2,ROW*%
%TO.N,Net-(D62-Pad2)*%
X149965361Y-176310220D03*
%TD*%
%TO.P,K21,1,COL*%
%TO.N,COL5*%
X141470625Y-119350764D03*
%TO.P,K21,2,ROW*%
%TO.N,Net-(D21-Pad2)*%
X148165221Y-117952018D03*
%TD*%
%TO.P,K16,1,COL*%
%TO.N,COL15*%
X370872676Y-95152200D03*
%TO.P,K16,2,ROW*%
%TO.N,Net-(D16-Pad2)*%
X377222676Y-92612200D03*
%TD*%
%TO.P,K6,1,COL*%
%TO.N,COL5*%
X154158374Y-102244264D03*
%TO.P,K6,2,ROW*%
%TO.N,Net-(D6-Pad2)*%
X160852970Y-100845518D03*
%TD*%
%TO.P,K69,1,COL*%
%TO.N,COL14*%
X326868179Y-95152229D03*
%TO.P,K69,2,ROW*%
%TO.N,Net-(D15-Pad2)*%
X333218179Y-92612229D03*
%TD*%
%TO.P,K48,1,COL*%
%TO.N,COL3*%
X111403375Y-152736789D03*
%TO.P,K48,2,ROW*%
%TO.N,Net-(D48-Pad2)*%
X118097971Y-151338043D03*
%TD*%
%TO.P,K2,1,COL*%
%TO.N,COL1*%
X76740626Y-93818200D03*
%TO.P,K2,2,ROW*%
%TO.N,Net-(D2-Pad2)*%
X83090626Y-91278200D03*
%TD*%
%TO.P,K70,1,COL*%
%TO.N,COL4*%
X140925691Y-177295466D03*
%TO.P,K70,2,ROW*%
%TO.N,Net-(D62-Pad2)*%
X147620287Y-175896720D03*
%TD*%
%TO.P,K14,1,COL*%
%TO.N,COL13*%
X317343179Y-95152229D03*
%TO.P,K14,2,ROW*%
%TO.N,Net-(D14-Pad2)*%
X323693179Y-92612229D03*
%TD*%
%TO.P,K65,1,COL*%
%TO.N,COL10*%
X257746381Y-174724457D03*
%TO.P,K65,2,ROW*%
%TO.N,Net-(D65-Pad2)*%
X263558844Y-171120379D03*
%TD*%
%TO.P,K56,1,COL*%
%TO.N,COL11*%
X275242176Y-152251650D03*
%TO.P,K56,2,ROW*%
%TO.N,Net-(D56-Pad2)*%
X281592176Y-149711650D03*
%TD*%
%TO.P,K52,1,COL*%
%TO.N,COL7*%
X197887492Y-164362838D03*
%TO.P,K52,2,ROW*%
%TO.N,Net-(D52-Pad2)*%
X203699955Y-160758760D03*
%TD*%
%TO.P,K3,1,COL*%
%TO.N,COL2*%
X95790626Y-92230700D03*
%TO.P,K3,2,ROW*%
%TO.N,Net-(D3-Pad2)*%
X102140626Y-89690700D03*
%TD*%
%TO.P,K36,1,COL*%
%TO.N,COL5*%
X142853124Y-138937889D03*
%TO.P,K36,2,ROW*%
%TO.N,Net-(D36-Pad2)*%
X149547720Y-137539143D03*
%TD*%
%TO.P,K37,1,COL*%
%TO.N,COL6*%
X161613374Y-142246239D03*
%TO.P,K37,2,ROW*%
%TO.N,Net-(D37-Pad2)*%
X168307970Y-140847493D03*
%TD*%
%TO.P,K27,1,COL*%
%TO.N,COL11*%
X273337176Y-112982650D03*
%TO.P,K27,2,ROW*%
%TO.N,Net-(D27-Pad2)*%
X279687176Y-110442650D03*
%TD*%
%TO.P,K64,1,COL*%
%TO.N,COL8*%
X217610742Y-180229013D03*
%TO.P,K64,2,ROW*%
%TO.N,Net-(D64-Pad2)*%
X223423205Y-176624935D03*
%TD*%
%TO.P,K51,1,COL*%
%TO.N,COL6*%
X167685625Y-162660789D03*
%TO.P,K51,2,ROW*%
%TO.N,Net-(D51-Pad2)*%
X174380221Y-161262043D03*
%TD*%
%TO.P,K1,1,COL*%
%TO.N,COL0*%
X57690626Y-93818200D03*
%TO.P,K1,2,ROW*%
%TO.N,Net-(D1-Pad2)*%
X64040626Y-91278200D03*
%TD*%
%TO.P,K22,1,COL*%
%TO.N,COL6*%
X160231125Y-122658789D03*
%TO.P,K22,2,ROW*%
%TO.N,Net-(D22-Pad2)*%
X166925721Y-121260043D03*
%TD*%
%TO.P,K11,1,COL*%
%TO.N,COL10*%
X258315992Y-95675889D03*
%TO.P,K11,2,ROW*%
%TO.N,Net-(D11-Pad2)*%
X264128455Y-92071811D03*
%TD*%
%TO.P,K35,1,COL*%
%TO.N,COL4*%
X124092125Y-135630589D03*
%TO.P,K35,2,ROW*%
%TO.N,Net-(D35-Pad2)*%
X130786721Y-134231843D03*
%TD*%
%TO.P,K18,1,COL*%
%TO.N,COL2*%
X82456176Y-112868350D03*
%TO.P,K18,2,ROW*%
%TO.N,Net-(D18-Pad2)*%
X88806176Y-110328350D03*
%TD*%
%TO.P,K44,1,COL*%
%TO.N,COL13*%
X331343676Y-133250950D03*
%TO.P,K44,2,ROW*%
%TO.N,Net-(D44-Pad2)*%
X337693676Y-130710950D03*
%TD*%
%TO.P,K50,1,COL*%
%TO.N,COL5*%
X148924874Y-159352789D03*
%TO.P,K50,2,ROW*%
%TO.N,Net-(D50-Pad2)*%
X155619470Y-157954043D03*
%TD*%
%TO.P,K34,1,COL*%
%TO.N,COL3*%
X105331574Y-132321889D03*
%TO.P,K34,2,ROW*%
%TO.N,Net-(D34-Pad2)*%
X112026170Y-130923143D03*
%TD*%
%TO.P,K26,1,COL*%
%TO.N,COL10*%
X252243492Y-116090338D03*
%TO.P,K26,2,ROW*%
%TO.N,Net-(D26-Pad2)*%
X258055955Y-112486260D03*
%TD*%
%TO.P,K10,1,COL*%
%TO.N,COL9*%
X239554992Y-98984489D03*
%TO.P,K10,2,ROW*%
%TO.N,Net-(D10-Pad2)*%
X245367455Y-95380411D03*
%TD*%
%TO.P,K63,1,COL*%
%TO.N,COL6*%
X173756720Y-183084462D03*
%TO.P,K63,2,ROW*%
%TO.N,Net-(D63-Pad2)*%
X180451316Y-181685716D03*
%TD*%
%TO.P,K15,1,COL*%
%TO.N,COL14*%
X336393179Y-95152229D03*
%TO.P,K15,2,ROW*%
%TO.N,Net-(D15-Pad2)*%
X342743179Y-92612229D03*
%TD*%
%TO.P,K20,1,COL*%
%TO.N,COL4*%
X122710374Y-116042437D03*
%TO.P,K20,2,ROW*%
%TO.N,Net-(D20-Pad2)*%
X129404970Y-114643691D03*
%TD*%
%TO.P,K17,1,COL*%
%TO.N,COL0*%
X58643676Y-112868350D03*
%TO.P,K17,2,ROW*%
%TO.N,Net-(D17-Pad2)*%
X64993676Y-110328350D03*
%TD*%
%TO.P,K7,1,COL*%
%TO.N,COL6*%
X172920374Y-105552189D03*
%TO.P,K7,2,ROW*%
%TO.N,Net-(D7-Pad2)*%
X179614970Y-104153443D03*
%TD*%
%TO.P,K19,1,COL*%
%TO.N,COL3*%
X103949474Y-112734789D03*
%TO.P,K19,2,ROW*%
%TO.N,Net-(D19-Pad2)*%
X110644070Y-111336043D03*
%TD*%
%TO.P,K5,1,COL*%
%TO.N,COL4*%
X135398375Y-98936289D03*
%TO.P,K5,2,ROW*%
%TO.N,Net-(D5-Pad2)*%
X142092971Y-97537543D03*
%TD*%
%TO.P,K24,1,COL*%
%TO.N,COL8*%
X214722242Y-122706138D03*
%TO.P,K24,2,ROW*%
%TO.N,Net-(D24-Pad2)*%
X220534705Y-119102060D03*
%TD*%
%TO.P,K28,1,COL*%
%TO.N,COL12*%
X292387176Y-114200950D03*
%TO.P,K28,2,ROW*%
%TO.N,Net-(D28-Pad2)*%
X298737176Y-111660950D03*
%TD*%
%TO.P,K67,1,COL*%
%TO.N,COL14*%
X351822676Y-176114050D03*
%TO.P,K67,2,ROW*%
%TO.N,Net-(D67-Pad2)*%
X358172676Y-173574050D03*
%TD*%
%TO.P,K59,1,COL*%
%TO.N,COL14*%
X351822676Y-157063950D03*
%TO.P,K59,2,ROW*%
%TO.N,Net-(D59-Pad2)*%
X358172676Y-154523950D03*
%TD*%
%TO.P,K8,1,COL*%
%TO.N,COL7*%
X202033992Y-105600589D03*
%TO.P,K8,2,ROW*%
%TO.N,Net-(D8-Pad2)*%
X207846455Y-101996511D03*
%TD*%
%TO.P,K9,1,COL*%
%TO.N,COL8*%
X220794742Y-102291738D03*
%TO.P,K9,2,ROW*%
%TO.N,Net-(D9-Pad2)*%
X226607205Y-98687660D03*
%TD*%
%TO.P,K39,1,COL*%
%TO.N,COL8*%
X222720242Y-140639963D03*
%TO.P,K39,2,ROW*%
%TO.N,Net-(D39-Pad2)*%
X228532705Y-137035885D03*
%TD*%
%TO.P,K49,1,COL*%
%TO.N,COL4*%
X130165125Y-156044789D03*
%TO.P,K49,2,ROW*%
%TO.N,Net-(D49-Pad2)*%
X136859721Y-154646043D03*
%TD*%
%TO.P,K43,1,COL*%
%TO.N,COL12*%
X300387676Y-133250950D03*
%TO.P,K43,2,ROW*%
%TO.N,Net-(D43-Pad2)*%
X306737676Y-130710950D03*
%TD*%
%TO.P,K47,1,COL*%
%TO.N,COL2*%
X90076519Y-151038991D03*
%TO.P,K47,2,ROW*%
%TO.N,Net-(D47-Pad2)*%
X96426519Y-148498991D03*
%TD*%
%TO.P,K58,1,COL*%
%TO.N,COL13*%
X320485926Y-152251650D03*
%TO.P,K58,2,ROW*%
%TO.N,Net-(D58-Pad2)*%
X326835926Y-149711650D03*
%TD*%
%TO.P,K29,1,COL*%
%TO.N,COL13*%
X311437176Y-114200950D03*
%TO.P,K29,2,ROW*%
%TO.N,Net-(D29-Pad2)*%
X317787176Y-111660950D03*
%TD*%
%TO.P,K23,1,COL*%
%TO.N,COL7*%
X195961992Y-126014838D03*
%TO.P,K23,2,ROW*%
%TO.N,Net-(D23-Pad2)*%
X201774455Y-122410760D03*
%TD*%
%TO.P,K71,1,COL*%
%TO.N,COL6*%
X171411646Y-182670962D03*
%TO.P,K71,2,ROW*%
%TO.N,Net-(D63-Pad2)*%
X178106242Y-181272216D03*
%TD*%
%TO.P,K61,1,COL*%
%TO.N,COL3*%
X106892992Y-172270156D03*
%TO.P,K61,2,ROW*%
%TO.N,Net-(D61-Pad2)*%
X113587588Y-170871410D03*
%TD*%
%TO.P,K45,1,COL*%
%TO.N,COL15*%
X370872676Y-133250950D03*
%TO.P,K45,2,ROW*%
%TO.N,Net-(D45-Pad2)*%
X377222676Y-130710950D03*
%TD*%
%TO.P,K42,1,COL*%
%TO.N,COL11*%
X281337676Y-133250950D03*
%TO.P,K42,2,ROW*%
%TO.N,Net-(D42-Pad2)*%
X287687676Y-130710950D03*
%TD*%
%TO.P,K25,1,COL*%
%TO.N,COL9*%
X233482242Y-119398614D03*
%TO.P,K25,2,ROW*%
%TO.N,Net-(D25-Pad2)*%
X239294705Y-115794536D03*
%TD*%
%TO.P,K32,1,COL*%
%TO.N,COL0*%
X57976469Y-131918691D03*
%TO.P,K32,2,ROW*%
%TO.N,Net-(D32-Pad2)*%
X64326469Y-129378691D03*
%TD*%
%TO.P,K38,1,COL*%
%TO.N,COL7*%
X203959492Y-143948664D03*
%TO.P,K38,2,ROW*%
%TO.N,Net-(D38-Pad2)*%
X209771955Y-140344586D03*
%TD*%
%TO.P,K46,1,COL*%
%TO.N,COL1*%
X59111615Y-151039046D03*
%TO.P,K46,2,ROW*%
%TO.N,Net-(D46-Pad2)*%
X65461615Y-148499046D03*
%TD*%
%TO.P,K68,1,COL*%
%TO.N,COL15*%
X370872676Y-176114050D03*
%TO.P,K68,2,ROW*%
%TO.N,Net-(D68-Pad2)*%
X377222676Y-173574050D03*
%TD*%
%TO.P,K30,1,COL*%
%TO.N,COL14*%
X335250676Y-114200950D03*
%TO.P,K30,2,ROW*%
%TO.N,Net-(D30-Pad2)*%
X341600676Y-111660950D03*
%TD*%
%TO.P,K57,1,COL*%
%TO.N,COL12*%
X294292176Y-152251650D03*
%TO.P,K57,2,ROW*%
%TO.N,Net-(D57-Pad2)*%
X300642176Y-149711650D03*
%TD*%
%TO.P,K66,1,COL*%
%TO.N,COL13*%
X332772676Y-176114050D03*
%TO.P,K66,2,ROW*%
%TO.N,Net-(D66-Pad2)*%
X339122676Y-173574050D03*
%TD*%
%TO.P,K41,1,COL*%
%TO.N,COL10*%
X260241742Y-134023988D03*
%TO.P,K41,2,ROW*%
%TO.N,Net-(D41-Pad2)*%
X266054205Y-130419910D03*
%TD*%
%TO.P,K12,1,COL*%
%TO.N,COL11*%
X279242676Y-92484200D03*
%TO.P,K12,2,ROW*%
%TO.N,Net-(D12-Pad2)*%
X285592676Y-89944200D03*
%TD*%
%TO.P,K60,1,COL*%
%TO.N,COL0*%
X51975976Y-170089500D03*
%TO.P,K60,2,ROW*%
%TO.N,Net-(D60-Pad2)*%
X58325976Y-167549500D03*
%TD*%
%TO.P,K4,1,COL*%
%TO.N,COL3*%
X116637875Y-95628189D03*
%TO.P,K4,2,ROW*%
%TO.N,Net-(D4-Pad2)*%
X123332471Y-94229443D03*
%TD*%
%TO.P,K72,1,COL*%
%TO.N,COL0*%
X53213969Y-131918691D03*
%TO.P,K72,2,ROW*%
%TO.N,Net-(D32-Pad2)*%
X59563969Y-129378691D03*
%TD*%
%TO.P,K53,1,COL*%
%TO.N,COL8*%
X216647992Y-161054939D03*
%TO.P,K53,2,ROW*%
%TO.N,Net-(D53-Pad2)*%
X222460455Y-157450861D03*
%TD*%
%TO.P,K55,1,COL*%
%TO.N,COL10*%
X254168992Y-154439039D03*
%TO.P,K55,2,ROW*%
%TO.N,Net-(D55-Pad2)*%
X259981455Y-150834961D03*
%TD*%
%TO.P,K13,1,COL*%
%TO.N,COL12*%
X298292676Y-95152200D03*
%TO.P,K13,2,ROW*%
%TO.N,Net-(D13-Pad2)*%
X304642676Y-92612200D03*
%TD*%
D15*
%TO.P,J1,S1,SHIELD*%
%TO.N,GND*%
X208117499Y-83400000D03*
%TO.P,J1,S2,SHIELD*%
X216757499Y-83400000D03*
%TO.P,J1,S3,SHIELD*%
X208117499Y-79220000D03*
%TO.P,J1,S4,SHIELD*%
X216757499Y-79220000D03*
%TD*%
D16*
%TO.N,SCK*%
X236417140Y-124482321D03*
%TO.N,GND*%
X233267140Y-129432321D03*
%TO.N,MOSI*%
X235567140Y-132932321D03*
X230517140Y-132932321D03*
%TO.N,COL3*%
X111539364Y-163155712D03*
%TO.N,+5V*%
X178245772Y-122893927D03*
%TO.N,GND*%
X222749112Y-97279188D03*
X225465105Y-134791262D03*
%TO.N,MISO*%
X214277248Y-131238062D03*
X211889326Y-131111376D03*
%TO.N,GND*%
X199139800Y-101452937D03*
X204197995Y-91004766D03*
X215189838Y-91907321D03*
%TO.N,MOSI*%
X216949504Y-128401838D03*
X214884273Y-128498646D03*
X206540203Y-124689278D03*
%TO.N,SCK*%
X213737584Y-128150848D03*
X206484976Y-123662637D03*
%TO.N,ROW1*%
X188505960Y-120085876D03*
%TO.N,+5V*%
X186661275Y-120911126D03*
%TO.N,ROW1*%
X210359504Y-125556210D03*
X180350921Y-118901579D03*
X175316923Y-115061542D03*
X163870510Y-131139726D03*
%TO.N,ROW0*%
X212391279Y-112008220D03*
X185562195Y-114613854D03*
%TO.N,ROW 2*%
X181457998Y-151643199D03*
%TO.N,ROW3*%
X172817140Y-170332321D03*
X182667140Y-169432321D03*
%TO.N,ROW 2*%
X175017140Y-151732321D03*
X193017140Y-151632321D03*
X212017140Y-149775392D03*
X198367140Y-151582321D03*
%TO.N,+5V*%
X174467139Y-128632331D03*
X172892140Y-145107321D03*
X189517140Y-146782321D03*
%TO.N,VCC*%
X206917140Y-93513571D03*
%TO.N,+5V*%
X195867140Y-141082321D03*
X186917140Y-109382321D03*
%TO.N,VCC*%
X209267140Y-86582321D03*
X216417140Y-87582321D03*
%TO.N,COL11*%
X273337176Y-109141370D03*
%TO.N,COL10*%
X251949250Y-112087436D03*
%TO.N,COL9*%
X233482242Y-115960690D03*
%TO.N,COL8*%
X214722242Y-119763906D03*
%TO.N,COL7*%
X204724250Y-120903997D03*
X203199250Y-113788913D03*
%TO.N,COL8*%
X221799250Y-110726543D03*
%TO.N,COL9*%
X240599250Y-107464172D03*
%TO.N,COL10*%
X259415991Y-104402879D03*
%TO.N,COL11*%
X279824250Y-101347393D03*
%TO.N,COL12*%
X298949250Y-102769819D03*
%TO.N,COL8*%
X205149250Y-178384290D03*
%TO.N,COL10*%
X257746381Y-168866569D03*
X255224250Y-162417856D03*
%TO.N,COL8*%
X217674250Y-169763866D03*
%TO.N,COL6*%
X167685625Y-172048505D03*
X171258633Y-177994917D03*
%TO.N,COL4*%
X129249250Y-170761469D03*
X130165125Y-165850187D03*
%TO.N,COL6*%
X165374250Y-112963630D03*
%TO.N,COL5*%
X154158374Y-111185766D03*
%TO.N,COL4*%
X135398375Y-107938156D03*
%TO.N,COL6*%
X160231125Y-119330608D03*
%TO.N,COL5*%
X141470625Y-115801144D03*
%TO.N,COL4*%
X122710374Y-112707065D03*
%TO.N,COL3*%
X103949474Y-108911779D03*
%TO.N,COL2*%
X82456176Y-109058988D03*
%TO.N,COL1*%
X77474250Y-109684569D03*
X77199250Y-101894312D03*
%TO.N,COL2*%
X96449250Y-102014215D03*
%TO.N,COL3*%
X116699250Y-104743489D03*
%TO.N,COL7*%
X197199250Y-157066323D03*
%TO.N,COL8*%
X215824250Y-155861664D03*
%TO.N,COL9*%
X234524250Y-151820906D03*
%TO.N,COL10*%
X253249250Y-148140087D03*
%TO.N,COL11*%
X273974250Y-144693248D03*
%TO.N,COL12*%
X292999250Y-145362934D03*
%TO.N,COL5*%
X142853124Y-150871875D03*
%TO.N,COL4*%
X124092125Y-148122874D03*
%TO.N,COL13*%
X312149250Y-145255749D03*
%TO.N,COL14*%
X351822676Y-151112323D03*
%TO.N,ROW 2*%
X144160657Y-145725401D03*
X160888874Y-148907500D03*
%TO.N,COL15*%
X371599250Y-148016075D03*
%TO.N,COL1*%
X59111615Y-141083710D03*
%TO.N,COL2*%
X84799250Y-141136075D03*
%TO.N,COL3*%
X105357499Y-144647500D03*
%TD*%
D17*
%TO.N,SCK*%
X238474640Y-125839821D02*
X238474640Y-128112321D01*
X237117140Y-124482321D02*
X238474640Y-125839821D01*
X236417140Y-124482321D02*
X237117140Y-124482321D01*
D18*
%TO.N,GND*%
X233267140Y-129432321D02*
X233267140Y-131782321D01*
X230086097Y-134963364D02*
X225637207Y-134963364D01*
X233267140Y-131782321D02*
X230086097Y-134963364D01*
X233267140Y-125515661D02*
X233267140Y-129432321D01*
X230275970Y-122524491D02*
X233267140Y-125515661D01*
X230275970Y-115239103D02*
X230275970Y-122524491D01*
X229944057Y-114492976D02*
X229983077Y-114531996D01*
X200993651Y-119291500D02*
X229058992Y-114216045D01*
X199874528Y-119366324D02*
X200918827Y-119366324D01*
X199871662Y-119368032D02*
X199874528Y-119366324D01*
X199866367Y-119365838D02*
X199871662Y-119368032D01*
X199862314Y-119361785D02*
X199866367Y-119365838D01*
X199860120Y-119356490D02*
X199862314Y-119361785D01*
X199861828Y-119353624D02*
X199860120Y-119356490D01*
X199444944Y-118936740D02*
X199861828Y-119353624D01*
X199444944Y-116784549D02*
X199444944Y-118936740D01*
X199861828Y-116367665D02*
X199444944Y-116784549D01*
X199860120Y-116364799D02*
X199861828Y-116367665D01*
X199866367Y-116355451D02*
X199862314Y-116359504D01*
X199862314Y-116359504D02*
X199860120Y-116364799D01*
X199871662Y-116353257D02*
X199866367Y-116355451D01*
X199874528Y-116354965D02*
X199871662Y-116353257D01*
X201181048Y-116354965D02*
X199874528Y-116354965D01*
X200918827Y-119366324D02*
X200993651Y-119291500D01*
X222749112Y-97279188D02*
X228509167Y-103039243D01*
X228509167Y-103039243D02*
X228509167Y-109450939D01*
X230275969Y-115239103D02*
G75*
G03*
X229983076Y-114531997I-999993J3D01*
G01*
X226579425Y-111885305D02*
X201181048Y-116354965D01*
X229944056Y-114492977D02*
G75*
G03*
X229058992Y-114216046I-707106J-707107D01*
G01*
X228304948Y-110056523D02*
X227201887Y-111506024D01*
X226579425Y-111885305D02*
G75*
G03*
X227201886Y-111506024I-173320J984867D01*
G01*
X228304948Y-110056523D02*
G75*
G03*
X228509167Y-109450939I-795780J605584D01*
G01*
D17*
%TO.N,MOSI*%
X237817140Y-132932321D02*
X238474640Y-132274821D01*
X235567140Y-132932321D02*
X237817140Y-132932321D01*
X238474640Y-132274821D02*
X238474640Y-130652321D01*
X230517140Y-132952321D02*
X230517140Y-132932321D01*
X229859637Y-132952321D02*
X230517140Y-132952321D01*
%TO.N,GND*%
X225465105Y-134791262D02*
X225637207Y-134963364D01*
%TO.N,COL13*%
X312149250Y-150251650D02*
G75*
G03*
X314149250Y-152251650I1999999J-1D01*
G01*
X314149250Y-152935844D02*
G75*
G03*
X312149250Y-154935844I-1J-1999999D01*
G01*
X312149250Y-174110844D02*
G75*
G03*
X314149250Y-176110844I1999999J-1D01*
G01*
%TO.N,ROW 2*%
X211017140Y-151582321D02*
G75*
G03*
X212017140Y-150582321I1J999999D01*
G01*
%TO.N,COL7*%
X199212095Y-143748542D02*
G75*
G02*
X197212095Y-141748542I-1J1999999D01*
G01*
X199199250Y-144210844D02*
G75*
G03*
X197199250Y-146210844I-1J-1999999D01*
G01*
X204724250Y-122985844D02*
G75*
G02*
X202724250Y-124985844I-1999999J-1D01*
G01*
%TO.N,COL8*%
X217824250Y-141110844D02*
G75*
G03*
X215824250Y-143110844I-1J-1999999D01*
G01*
X217774250Y-140610844D02*
G75*
G02*
X215774250Y-138610844I-1J1999999D01*
G01*
%TO.N,COL10*%
X255249250Y-133885844D02*
G75*
G02*
X253249250Y-131885844I-1J1999999D01*
G01*
X255249250Y-134360844D02*
G75*
G03*
X253249250Y-136360844I-1J-1999999D01*
G01*
%TO.N,COL9*%
X236494994Y-137693573D02*
G75*
G03*
X234494994Y-139693573I-1J-1999999D01*
G01*
X234524250Y-135209137D02*
G75*
G03*
X236524250Y-137209137I1999999J-1D01*
G01*
X234494994Y-151791650D02*
X234524250Y-151820906D01*
X234494994Y-139693573D02*
X234494994Y-151791650D01*
X241480492Y-137693573D02*
X236494994Y-137693573D01*
X241480492Y-137332689D02*
X241480492Y-137693573D01*
X241356940Y-137209137D02*
X241480492Y-137332689D01*
X236524250Y-137209137D02*
X241356940Y-137209137D01*
X233482242Y-119398614D02*
X234524250Y-120440622D01*
X234524250Y-120440622D02*
X234524250Y-135209137D01*
%TO.N,COL13*%
X312174250Y-131250950D02*
G75*
G03*
X314174250Y-133250950I1999999J-1D01*
G01*
X314149250Y-133735844D02*
G75*
G03*
X312149250Y-135735844I-1J-1999999D01*
G01*
%TO.N,COL12*%
X292999250Y-135610844D02*
G75*
G02*
X294999250Y-133610844I1999999J1D01*
G01*
X292974250Y-131135844D02*
G75*
G03*
X294974250Y-133135844I1999999J-1D01*
G01*
%TO.N,COL11*%
X273974250Y-131135844D02*
G75*
G03*
X275974250Y-133135844I1999999J-1D01*
G01*
X273974250Y-135635844D02*
G75*
G02*
X275974250Y-133635844I1999999J1D01*
G01*
%TO.N,COL14*%
X335874250Y-121535844D02*
G75*
G03*
X337874250Y-123535844I1999999J-1D01*
G01*
X331049250Y-122010844D02*
G75*
G03*
X333049250Y-124010844I1999999J-1D01*
G01*
X333044540Y-114206146D02*
G75*
G03*
X331049250Y-116206140I4711J-1999995D01*
G01*
X333044540Y-114206145D02*
X335250676Y-114200950D01*
X351824250Y-97152229D02*
G75*
G03*
X349824250Y-95152229I-1999999J1D01*
G01*
X336393179Y-91260844D02*
G75*
G03*
X334393179Y-89260844I-1999999J1D01*
G01*
X326868179Y-91260844D02*
G75*
G02*
X328868179Y-89260844I1999999J1D01*
G01*
%TO.N,COL13*%
X311437176Y-97160844D02*
G75*
G02*
X313437176Y-95160844I1999999J1D01*
G01*
%TO.N,COL6*%
X161613374Y-160660789D02*
G75*
G03*
X163613374Y-162660789I1999999J-1D01*
G01*
%TO.N,COL5*%
X142853124Y-157352789D02*
G75*
G03*
X144853124Y-159352789I1999999J-1D01*
G01*
%TO.N,COL4*%
X131249250Y-177295466D02*
G75*
G02*
X129249250Y-175295466I-1J1999999D01*
G01*
X124092125Y-154044789D02*
G75*
G03*
X126092125Y-156044789I1999999J-1D01*
G01*
%TO.N,COL3*%
X105331574Y-150736789D02*
G75*
G03*
X107331574Y-152736789I1999999J-1D01*
G01*
%TO.N,COL2*%
X86798057Y-151037037D02*
G75*
G02*
X84799250Y-149037036I1194J2000001D01*
G01*
X86798057Y-151037036D02*
X90076519Y-151038991D01*
%TO.N,COL0*%
X47249250Y-168085844D02*
G75*
G03*
X49249250Y-170085844I1999999J-1D01*
G01*
%TO.N,COL1*%
X77474250Y-136610844D02*
G75*
G02*
X75474250Y-138610844I-1999999J-1D01*
G01*
X59111615Y-140610844D02*
G75*
G02*
X61111615Y-138610844I1999999J1D01*
G01*
%TO.N,COL0*%
X47249250Y-134335844D02*
G75*
G02*
X49249250Y-132335844I1999999J1D01*
G01*
X49249250Y-131918691D02*
G75*
G02*
X47249250Y-129918691I-1J1999999D01*
G01*
X47249250Y-115310844D02*
G75*
G02*
X49249250Y-113310844I1999999J1D01*
G01*
X49265992Y-112868350D02*
G75*
G02*
X47265992Y-110868350I-1J1999999D01*
G01*
X47265992Y-104860844D02*
G75*
G02*
X49265992Y-102860844I1999999J1D01*
G01*
X58024250Y-100860844D02*
G75*
G02*
X56024250Y-102860844I-1999999J-1D01*
G01*
X47265992Y-104860844D02*
X47265992Y-110868350D01*
X56024250Y-102860844D02*
X49265992Y-102860844D01*
X58024250Y-93818200D02*
X58024250Y-100860844D01*
X49265992Y-112868350D02*
X58643676Y-112868350D01*
X57690626Y-93818200D02*
X58024250Y-93818200D01*
%TO.N,COL3*%
X111403375Y-163019723D02*
X111539364Y-163155712D01*
X111403375Y-152736789D02*
X111403375Y-163019723D01*
%TO.N,ROW1*%
X201088013Y-119925486D02*
X209229578Y-118325453D01*
X209229578Y-118325453D02*
X209352901Y-118303151D01*
X209352901Y-118303151D02*
X210359504Y-119282396D01*
X210359504Y-119282396D02*
X210359504Y-125556210D01*
X192185744Y-118901579D02*
X193209651Y-119925486D01*
X193209651Y-119925486D02*
X201088013Y-119925486D01*
%TO.N,ROW0*%
X210630743Y-113768756D02*
X192942720Y-116828954D01*
X187777295Y-116828954D02*
X192942720Y-116828954D01*
X210630743Y-113768756D02*
X212391279Y-112008220D01*
X185562195Y-114613854D02*
X187777295Y-116828954D01*
%TO.N,MISO*%
X214150562Y-131111376D02*
X214277248Y-131238062D01*
X211889326Y-131111376D02*
X214150562Y-131111376D01*
%TO.N,GND*%
X202769694Y-97823043D02*
X204605454Y-97823043D01*
X199139800Y-101452937D02*
X202769694Y-97823043D01*
D18*
X204605454Y-97823043D02*
X205209097Y-98426687D01*
X203413574Y-96631164D02*
X204605454Y-97823043D01*
%TO.N,+5V*%
X178245772Y-122893927D02*
X176970054Y-121618209D01*
X184587870Y-122893927D02*
X178245772Y-122893927D01*
X186570671Y-120911126D02*
X184587870Y-122893927D01*
X186661275Y-120911126D02*
X186570671Y-120911126D01*
X176970054Y-121618209D02*
X176970054Y-119329408D01*
%TO.N,GND*%
X212760094Y-98426687D02*
X215189838Y-95996943D01*
X215189838Y-95996943D02*
X215189838Y-91907321D01*
X205209097Y-98426687D02*
X212760094Y-98426687D01*
X203413574Y-91789187D02*
X203413574Y-96631164D01*
X204197995Y-91004766D02*
X203413574Y-91789187D01*
D17*
%TO.N,COL7*%
X203759370Y-143748542D02*
X203959492Y-143948664D01*
X199212095Y-143748542D02*
X203759370Y-143748542D01*
X197212095Y-127264941D02*
X197212095Y-141748542D01*
X195961992Y-126014838D02*
X197212095Y-127264941D01*
%TO.N,SCK*%
X211929528Y-128150848D02*
X213737584Y-128150848D01*
X207441316Y-123662637D02*
X211929528Y-128150848D01*
X206484976Y-123662637D02*
X207441316Y-123662637D01*
%TO.N,MOSI*%
X214507560Y-128875359D02*
X214884273Y-128498646D01*
X212018321Y-128875359D02*
X214507560Y-128875359D01*
X207832240Y-124689278D02*
X212018321Y-128875359D01*
X206540203Y-124689278D02*
X207832240Y-124689278D01*
X228494148Y-131586832D02*
X229859637Y-132952321D01*
X220970009Y-128401838D02*
X224155003Y-131586832D01*
X216949504Y-128401838D02*
X220970009Y-128401838D01*
X224155003Y-131586832D02*
X228494148Y-131586832D01*
%TO.N,ROW1*%
X189065294Y-120085876D02*
X190249591Y-118901579D01*
X188505960Y-120085876D02*
X189065294Y-120085876D01*
X190249591Y-118901579D02*
X192185744Y-118901579D01*
X180350921Y-118901579D02*
X192185744Y-118901579D01*
D18*
%TO.N,+5V*%
X176970054Y-119329408D02*
X174567140Y-121732321D01*
X186917140Y-109382321D02*
X176970054Y-119329408D01*
D17*
%TO.N,ROW1*%
X164014583Y-131139726D02*
X163870510Y-131139726D01*
X166701041Y-125592068D02*
X166701041Y-128453268D01*
X173961616Y-116416849D02*
X173961616Y-118331493D01*
X166701041Y-128453268D02*
X164014583Y-131139726D01*
X175316923Y-115061542D02*
X173961616Y-116416849D01*
X173961616Y-118331493D02*
X166701041Y-125592068D01*
%TO.N,ROW 2*%
X181468876Y-151632321D02*
X181457998Y-151643199D01*
X175017140Y-151632321D02*
X175017140Y-151732321D01*
X181457998Y-151643199D02*
X181447120Y-151632321D01*
X193017140Y-151632321D02*
X181468876Y-151632321D01*
X181447120Y-151632321D02*
X175017140Y-151632321D01*
%TO.N,ROW3*%
X173717140Y-169432321D02*
X172817140Y-170332321D01*
X182667140Y-169432321D02*
X173717140Y-169432321D01*
%TO.N,ROW 2*%
X211017140Y-151582321D02*
X198367140Y-151582321D01*
X212017140Y-149775392D02*
X212017140Y-150582321D01*
D18*
%TO.N,+5V*%
X174567140Y-128632331D02*
X174467139Y-128632331D01*
X174567140Y-127382321D02*
X174567140Y-128632331D01*
X172892140Y-145107321D02*
X174567140Y-146782321D01*
X189517140Y-146782321D02*
X190967140Y-146782321D01*
X190967140Y-146782321D02*
X195867140Y-141882321D01*
X195867140Y-141882321D02*
X195867140Y-141082321D01*
X171067140Y-143282321D02*
X172892140Y-145107321D01*
X171067140Y-130882321D02*
X171067140Y-143282321D01*
X174567140Y-127382321D02*
X171067140Y-130882321D01*
X174567140Y-121732321D02*
X174567140Y-127382321D01*
X174567140Y-146782321D02*
X189517140Y-146782321D01*
%TO.N,VCC*%
X206917140Y-92482321D02*
X206917140Y-93513571D01*
X208517140Y-87532321D02*
X208517140Y-90882321D01*
D17*
X209267140Y-86582321D02*
X209267140Y-86782321D01*
D18*
X209267140Y-86782321D02*
X208517140Y-87532321D01*
X208517140Y-90882321D02*
X206917140Y-92482321D01*
D17*
X209267140Y-86832321D02*
X209267140Y-86582321D01*
D18*
X216417140Y-87582321D02*
X210017140Y-87582321D01*
X210017140Y-87582321D02*
X209267140Y-86832321D01*
D17*
%TO.N,COL11*%
X273337176Y-109141370D02*
X273337176Y-112982650D01*
%TO.N,COL10*%
X251949250Y-112087436D02*
X251949250Y-115796096D01*
%TO.N,COL8*%
X214722242Y-119763906D02*
X214722242Y-122706138D01*
%TO.N,COL7*%
X204724250Y-120903997D02*
X204724250Y-122985844D01*
%TO.N,COL9*%
X240599250Y-107464172D02*
X240599250Y-99410844D01*
%TO.N,COL10*%
X257746381Y-168866569D02*
X257746381Y-174724457D01*
%TO.N,COL8*%
X217674250Y-169763866D02*
X217674250Y-162081197D01*
%TO.N,COL6*%
X171258633Y-177994917D02*
X171258633Y-182517949D01*
%TO.N,COL4*%
X130165125Y-165850187D02*
X130165125Y-156044789D01*
%TO.N,COL5*%
X154158374Y-111185766D02*
X154158374Y-102244264D01*
%TO.N,COL6*%
X160231125Y-119330608D02*
X160231125Y-122658789D01*
%TO.N,COL4*%
X122710374Y-112707065D02*
X122710374Y-116042437D01*
%TO.N,COL3*%
X103949474Y-108911779D02*
X103949474Y-112734789D01*
%TO.N,COL2*%
X82456176Y-109058988D02*
X82456176Y-112868350D01*
%TO.N,COL1*%
X77474250Y-109684569D02*
X77474250Y-136610844D01*
%TO.N,COL7*%
X197199250Y-157066323D02*
X197199250Y-163674596D01*
%TO.N,COL8*%
X215824250Y-155861664D02*
X215824250Y-161054939D01*
%TO.N,COL9*%
X234524250Y-151820906D02*
X234524250Y-156862797D01*
%TO.N,COL10*%
X253249250Y-148140087D02*
X253249250Y-153519297D01*
%TO.N,COL11*%
X273974250Y-144693248D02*
X273974250Y-150983724D01*
%TO.N,COL12*%
X292999250Y-145362934D02*
X292999250Y-150958724D01*
%TO.N,COL5*%
X142853124Y-150871875D02*
X142853124Y-157352789D01*
%TO.N,COL4*%
X124092125Y-148122874D02*
X124092125Y-154044789D01*
%TO.N,COL3*%
X105331574Y-144673425D02*
X105331574Y-150736789D01*
X105357499Y-144647500D02*
X105331574Y-144673425D01*
X105331574Y-144621575D02*
X105357499Y-144647500D01*
X107331574Y-152736789D02*
X111403375Y-152736789D01*
X105331574Y-132321889D02*
X105331574Y-144621575D01*
%TO.N,COL4*%
X126092125Y-156044789D02*
X130165125Y-156044789D01*
%TO.N,ROW 2*%
X160888874Y-149057500D02*
X160888874Y-148907500D01*
%TO.N,COL4*%
X124092125Y-135630589D02*
X124092125Y-147123200D01*
X124092125Y-147123200D02*
X124092125Y-148122874D01*
%TO.N,ROW 2*%
X160545418Y-149400956D02*
X160888874Y-149057500D01*
X145283588Y-146743589D02*
X160545418Y-149400956D01*
X144265400Y-145725401D02*
X145283588Y-146743589D01*
%TO.N,COL13*%
X312149250Y-145255749D02*
X312149250Y-150251650D01*
%TO.N,COL14*%
X351822676Y-151112323D02*
X351822676Y-157063950D01*
%TO.N,COL15*%
X371599250Y-148016075D02*
X371599250Y-175387476D01*
%TO.N,COL5*%
X142853124Y-150502201D02*
X142853124Y-150871875D01*
%TO.N,COL6*%
X171258633Y-182517949D02*
X171411646Y-182670962D01*
X167685625Y-162660789D02*
X167685625Y-172048505D01*
%TO.N,COL0*%
X53213969Y-131918691D02*
X52599250Y-131918691D01*
X58643676Y-113310844D02*
X49249250Y-113310844D01*
X57976469Y-130888063D02*
X57976469Y-131918691D01*
X52599250Y-132335844D02*
X49249250Y-132335844D01*
X50227906Y-170089500D02*
X51975976Y-170089500D01*
X49249250Y-170085844D02*
X50224250Y-170085844D01*
X47249250Y-115310844D02*
X47249250Y-129918691D01*
X53549250Y-130635844D02*
X57724250Y-130635844D01*
X52599250Y-131918691D02*
X52599250Y-132335844D01*
X47249250Y-134335844D02*
X47249250Y-168085844D01*
X58643676Y-112868350D02*
X58643676Y-113310844D01*
X53213969Y-131918691D02*
X53213969Y-130971125D01*
X49249250Y-131918691D02*
X53213969Y-131918691D01*
X57724250Y-130635844D02*
X57976469Y-130888063D01*
X53213969Y-130971125D02*
X53549250Y-130635844D01*
X50224250Y-170085844D02*
X50227906Y-170089500D01*
%TO.N,COL1*%
X76740626Y-93818200D02*
X77199250Y-93818200D01*
X75474250Y-138610844D02*
X61111615Y-138610844D01*
X77199250Y-93818200D02*
X77199250Y-101894312D01*
X59111615Y-140610844D02*
X59111615Y-141083710D01*
X59111615Y-141083710D02*
X59111615Y-151039046D01*
%TO.N,COL2*%
X84171026Y-131918350D02*
X84799250Y-131918350D01*
X84799250Y-131918350D02*
X84799250Y-141136075D01*
X96449250Y-92230700D02*
X96449250Y-102014215D01*
X83099250Y-130846574D02*
X84171026Y-131918350D01*
X83099250Y-112868350D02*
X83099250Y-130846574D01*
X95790626Y-92230700D02*
X96449250Y-92230700D01*
X84799250Y-141136075D02*
X84799250Y-149037036D01*
X82456176Y-112868350D02*
X83099250Y-112868350D01*
%TO.N,COL3*%
X116699250Y-95689564D02*
X116699250Y-104743489D01*
X116637875Y-95628189D02*
X116699250Y-95689564D01*
X103949474Y-130939789D02*
X105331574Y-132321889D01*
X103949474Y-112734789D02*
X103949474Y-130939789D01*
%TO.N,COL4*%
X140925691Y-177295466D02*
X131249250Y-177295466D01*
X129249250Y-175295466D02*
X129249250Y-170761469D01*
X122710374Y-116042437D02*
X122710374Y-134248838D01*
X122710374Y-134248838D02*
X124092125Y-135630589D01*
X135398375Y-98936289D02*
X135398375Y-107938156D01*
%TO.N,COL5*%
X142853124Y-138937889D02*
X142853124Y-150302201D01*
X141470625Y-119350764D02*
X141470625Y-137555390D01*
X141470625Y-119350764D02*
X141470625Y-115801144D01*
X142853124Y-150302201D02*
X142853124Y-150502201D01*
X144853124Y-159352789D02*
X148924874Y-159352789D01*
X141470625Y-137555390D02*
X142853124Y-138937889D01*
%TO.N,COL6*%
X167974250Y-105560844D02*
X165374250Y-105560844D01*
X165374250Y-105560844D02*
X165374250Y-112963630D01*
X163613374Y-162660789D02*
X167685625Y-162660789D01*
X161613374Y-142246239D02*
X161613374Y-160660789D01*
X160231125Y-122658789D02*
X160231125Y-140863990D01*
X172920374Y-105552189D02*
X167982905Y-105552189D01*
X160231125Y-140863990D02*
X161613374Y-142246239D01*
X167982905Y-105552189D02*
X167974250Y-105560844D01*
%TO.N,COL7*%
X202033992Y-105600589D02*
X203199250Y-106765847D01*
X203959492Y-143948664D02*
X203174250Y-143948664D01*
X197199250Y-146210844D02*
X197199250Y-157066323D01*
X203174250Y-144210844D02*
X199199250Y-144210844D01*
X197199250Y-163674596D02*
X197887492Y-164362838D01*
X203199250Y-106765847D02*
X203199250Y-113788913D01*
X202724250Y-124985844D02*
X196990986Y-124985844D01*
X196990986Y-124985844D02*
X195961992Y-126014838D01*
X203174250Y-143948664D02*
X203174250Y-144210844D01*
%TO.N,COL8*%
X215774250Y-123758146D02*
X215774250Y-138610844D01*
X221799250Y-102735844D02*
X221799250Y-110726543D01*
X217774250Y-140610844D02*
X222691123Y-140610844D01*
X222149250Y-140639963D02*
X222149250Y-141110844D01*
X221624250Y-102291738D02*
X221624250Y-102560844D01*
X220794742Y-102291738D02*
X221624250Y-102291738D01*
X214722242Y-122706138D02*
X215774250Y-123758146D01*
X215824250Y-161054939D02*
X216647992Y-161054939D01*
X215824250Y-143110844D02*
X215824250Y-155861664D01*
X217610742Y-180229013D02*
X205149250Y-180229013D01*
X221624250Y-102560844D02*
X221799250Y-102735844D01*
X222149250Y-141110844D02*
X217824250Y-141110844D01*
X222720242Y-140639963D02*
X222149250Y-140639963D01*
X222691123Y-140610844D02*
X222720242Y-140639963D01*
X205149250Y-180229013D02*
X205149250Y-178384290D01*
X217674250Y-162081197D02*
X216647992Y-161054939D01*
%TO.N,COL9*%
X233482242Y-119398614D02*
X233482242Y-115960690D01*
X239554992Y-99410844D02*
X239554992Y-98984489D01*
X234524250Y-156862797D02*
X235408492Y-157747039D01*
X240599250Y-99410844D02*
X239554992Y-99410844D01*
%TO.N,COL10*%
X258315992Y-95675889D02*
X259415991Y-96775888D01*
X253249250Y-117096096D02*
X253249250Y-131885844D01*
X252243492Y-116090338D02*
X253249250Y-117096096D01*
X253249250Y-136360844D02*
X253249250Y-148140087D01*
X259749250Y-134023988D02*
X259749250Y-134360844D01*
X259749250Y-134360844D02*
X255249250Y-134360844D01*
X251949250Y-115796096D02*
X252243492Y-116090338D01*
X254168992Y-154439039D02*
X255224250Y-155494297D01*
X253249250Y-153519297D02*
X254168992Y-154439039D01*
X260103598Y-133885844D02*
X260241742Y-134023988D01*
X255249250Y-133885844D02*
X260103598Y-133885844D01*
X260241742Y-134023988D02*
X259749250Y-134023988D01*
X259415991Y-96775888D02*
X259415991Y-104402879D01*
X255224250Y-155494297D02*
X255224250Y-162417856D01*
%TO.N,COL11*%
X281099250Y-133635844D02*
X275974250Y-133635844D01*
X279242676Y-92484200D02*
X279824250Y-92484200D01*
X275974250Y-133135844D02*
X281337676Y-133135844D01*
X273974250Y-135635844D02*
X273974250Y-144693248D01*
X273974250Y-150983724D02*
X275242176Y-152251650D01*
X281337676Y-133135844D02*
X281337676Y-133250950D01*
X273337176Y-112982650D02*
X273337176Y-113485844D01*
X281099250Y-133250950D02*
X281099250Y-133635844D01*
X273974250Y-113485844D02*
X273974250Y-131135844D01*
X273337176Y-113485844D02*
X273974250Y-113485844D01*
X279824250Y-92484200D02*
X279824250Y-101347393D01*
X281337676Y-133250950D02*
X281099250Y-133250950D01*
%TO.N,COL12*%
X292387176Y-115210844D02*
X292974250Y-115210844D01*
X294974250Y-133135844D02*
X300272570Y-133135844D01*
X299999250Y-133250950D02*
X299999250Y-133610844D01*
X292974250Y-115210844D02*
X292974250Y-131135844D01*
X298949250Y-95152200D02*
X298949250Y-102769819D01*
X292999250Y-135610844D02*
X292999250Y-145362934D01*
X300387676Y-133250950D02*
X299999250Y-133250950D01*
X292387176Y-114200950D02*
X292387176Y-115210844D01*
X300272570Y-133135844D02*
X300387676Y-133250950D01*
X299999250Y-133610844D02*
X294999250Y-133610844D01*
X298292676Y-95152200D02*
X298949250Y-95152200D01*
X292999250Y-150958724D02*
X294292176Y-152251650D01*
%TO.N,COL13*%
X332049250Y-133250950D02*
X332049250Y-133735844D01*
X311437176Y-114200950D02*
X312174250Y-114938024D01*
X312174250Y-114938024D02*
X312174250Y-131250950D01*
X314174250Y-133250950D02*
X331343676Y-133250950D01*
X320485926Y-152935844D02*
X314149250Y-152935844D01*
X317343179Y-95152229D02*
X317334564Y-95160844D01*
X320485926Y-152251650D02*
X320485926Y-152935844D01*
X324024250Y-176110844D02*
X324027456Y-176114050D01*
X332049250Y-133735844D02*
X314149250Y-133735844D01*
X314149250Y-176110844D02*
X324024250Y-176110844D01*
X314149250Y-152251650D02*
X320485926Y-152251650D01*
X331343676Y-133250950D02*
X332049250Y-133250950D01*
X311437176Y-97160844D02*
X311437176Y-114200950D01*
X317334564Y-95160844D02*
X313437176Y-95160844D01*
X312149250Y-154935844D02*
X312149250Y-174110844D01*
X312149250Y-135735844D02*
X312149250Y-145255749D01*
X324027456Y-176114050D02*
X332772676Y-176114050D01*
%TO.N,COL14*%
X333049250Y-124010844D02*
X351822676Y-124010844D01*
X326868179Y-95152229D02*
X326868179Y-91260844D01*
X335899250Y-120685844D02*
X335874250Y-120685844D01*
X336393179Y-91260844D02*
X336393179Y-95152229D01*
X349824250Y-95152229D02*
X336393179Y-95152229D01*
X335250676Y-114385844D02*
X335899250Y-114385844D01*
X335250676Y-114200950D02*
X336024250Y-114200950D01*
X351822676Y-157063950D02*
X352324250Y-157565524D01*
X328868179Y-89260844D02*
X334393179Y-89260844D01*
X352324250Y-157565524D02*
X352324250Y-175612476D01*
X351822676Y-124010844D02*
X351822676Y-151112323D01*
X335874250Y-120685844D02*
X335874250Y-121535844D01*
X331049250Y-116206140D02*
X331049250Y-122010844D01*
X335899250Y-114385844D02*
X335899250Y-120685844D01*
X351824250Y-123535844D02*
X351824250Y-97152229D01*
X352324250Y-175612476D02*
X351822676Y-176114050D01*
X335250676Y-114200950D02*
X335250676Y-114385844D01*
X337874250Y-123535844D02*
X351824250Y-123535844D01*
%TO.N,COL15*%
X370872676Y-114200950D02*
X371574250Y-114902524D01*
X371599250Y-95878774D02*
X370872676Y-95152200D01*
X370872676Y-133250950D02*
X371599250Y-133977524D01*
X371599250Y-113710844D02*
X371599250Y-95878774D01*
X371599250Y-133977524D02*
X371599250Y-148016075D01*
X371374250Y-113935844D02*
X371599250Y-113710844D01*
X371599250Y-175387476D02*
X370872676Y-176114050D01*
X371574250Y-132549376D02*
X370872676Y-133250950D01*
X371574250Y-114902524D02*
X371574250Y-132549376D01*
X371374250Y-114200950D02*
X371374250Y-113935844D01*
X370872676Y-114200950D02*
X371374250Y-114200950D01*
%TD*%
M02*
