M48
; DRILL file {KiCad (6.0.1)} date Wed Jan 26 01:35:02 2022
; FORMAT={-:-/ absolute / metric / decimal}
; #@! TF.CreationDate,2022-01-26T01:35:02+07:00
; #@! TF.GenerationSoftware,Kicad,Pcbnew,(6.0.1)
; #@! TF.FileFunction,NonPlated,1,2,NPTH
FMAT,2
METRIC
; #@! TA.AperFunction,NonPlated,NPTH,ComponentDrill
T1C0.700
; #@! TA.AperFunction,NonPlated,NPTH,ComponentDrill
T2C1.700
; #@! TA.AperFunction,NonPlated,NPTH,ComponentDrill
T3C3.050
; #@! TA.AperFunction,NonPlated,NPTH,ComponentDrill
T4C4.000
%
G90
G05
T1
X209.547Y-82.87
X215.327Y-82.87
T2
X50.706Y-172.629
X51.944Y-134.459
X56.421Y-96.358
X56.706Y-134.459
X57.374Y-115.408
X57.842Y-153.579
X60.866Y-172.629
X62.104Y-134.459
X66.581Y-96.358
X66.866Y-134.459
X67.534Y-115.408
X68.002Y-153.579
X75.471Y-96.358
X81.186Y-115.408
X82.901Y-134.458
X85.631Y-96.358
X88.807Y-153.579
X91.346Y-115.408
X93.061Y-134.458
X94.521Y-94.771
X98.967Y-153.579
X102.258Y-115.016
X103.64Y-134.603
X104.681Y-94.771
X105.201Y-174.551
X109.712Y-155.018
X112.263Y-116.78
X113.645Y-136.367
X114.946Y-97.909
X115.207Y-176.315
X119.717Y-156.782
X121.019Y-118.323
X122.4Y-137.911
X124.952Y-99.673
X128.473Y-158.326
X131.024Y-120.088
X132.406Y-139.676
X133.707Y-101.217
X138.479Y-160.09
X139.234Y-179.576
X139.779Y-121.632
X141.161Y-141.219
X141.579Y-179.99
X143.712Y-102.981
X147.233Y-161.634
X149.24Y-181.341
X149.784Y-123.396
X151.167Y-142.983
X151.585Y-181.754
X152.467Y-104.525
X157.239Y-163.398
X158.539Y-124.94
X159.922Y-144.527
X162.472Y-106.289
X165.994Y-164.942
X168.545Y-126.704
X169.72Y-184.952
X169.927Y-146.291
X171.229Y-107.833
X172.065Y-185.365
X175.999Y-166.706
X179.726Y-186.716
X181.234Y-109.597
X182.071Y-187.13
X195.152Y-128.737
X197.078Y-167.085
X201.224Y-108.323
X203.15Y-146.671
X205.158Y-126.973
X207.083Y-165.321
X211.23Y-106.558
X213.155Y-144.906
X213.913Y-125.428
X215.838Y-163.777
X216.801Y-182.951
X219.985Y-105.014
X221.911Y-143.362
X223.918Y-123.664
X225.844Y-162.013
X226.807Y-181.187
X229.991Y-103.249
X231.916Y-141.598
X232.673Y-122.121
X234.599Y-160.469
X238.745Y-101.706
X240.671Y-140.055
X242.678Y-120.356
X244.604Y-158.705
X248.751Y-99.942
X250.676Y-138.29
X251.434Y-118.812
X253.359Y-157.161
X256.937Y-177.446
X257.506Y-98.398
X259.432Y-136.746
X261.439Y-117.048
X263.365Y-155.397
X266.942Y-175.682
X267.512Y-96.634
X269.438Y-134.982
X272.067Y-115.523
X273.972Y-154.792
X277.973Y-95.024
X280.068Y-135.791
X282.227Y-115.523
X284.132Y-154.792
X288.133Y-95.024
X290.228Y-135.791
X291.117Y-116.741
X293.022Y-154.792
X297.023Y-97.692
X299.118Y-135.791
X301.277Y-116.741
X303.182Y-154.792
X307.183Y-97.692
X309.278Y-135.791
X310.167Y-116.741
X316.073Y-97.692
X319.216Y-154.792
X320.327Y-116.741
X325.598Y-97.692
X326.233Y-97.692
X329.376Y-154.792
X330.074Y-135.791
X331.503Y-178.654
X333.981Y-116.741
X335.123Y-97.692
X335.758Y-97.692
X340.234Y-135.791
X341.663Y-178.654
X344.141Y-116.741
X345.283Y-97.692
X350.553Y-159.604
X350.553Y-178.654
X360.713Y-159.604
X360.713Y-178.654
X369.603Y-97.692
X369.603Y-116.741
X369.603Y-135.791
X369.603Y-178.654
X379.763Y-97.692
X379.763Y-116.741
X379.763Y-135.791
X379.763Y-178.654
T3
X51.022Y-146.579
X74.822Y-146.579
X133.733Y-171.498
X136.078Y-171.912
X157.171Y-175.631
X159.517Y-176.045
X208.869Y-177.242
X232.308Y-173.109
X318.778Y-90.692
X323.254Y-128.791
X342.578Y-90.692
X347.054Y-128.791
T4
X51.022Y-161.819
X55.786Y-172.629
X57.024Y-134.459
X61.501Y-96.358
X61.786Y-134.459
X62.454Y-115.408
X62.922Y-153.579
X74.822Y-161.819
X80.551Y-96.358
X86.266Y-115.408
X87.981Y-134.458
X93.887Y-153.579
X99.601Y-94.771
X107.261Y-115.898
X108.643Y-135.485
X110.204Y-175.433
X114.714Y-155.9
X119.949Y-98.791
X126.021Y-119.205
X127.403Y-138.794
X131.087Y-186.507
X133.432Y-186.92
X133.476Y-159.208
X138.709Y-102.099
X144.237Y-180.458
X144.782Y-122.514
X146.164Y-142.101
X146.582Y-180.872
X152.236Y-162.516
X154.525Y-190.64
X156.87Y-191.053
X157.469Y-105.407
X163.542Y-125.822
X164.924Y-145.409
X170.997Y-165.824
X174.723Y-185.834
X176.231Y-108.715
X177.068Y-186.247
X200.155Y-127.855
X202.081Y-166.203
X206.227Y-107.44
X208.153Y-145.788
X211.516Y-192.25
X218.915Y-124.546
X220.841Y-162.895
X221.804Y-182.069
X224.988Y-104.132
X226.913Y-142.48
X234.954Y-188.117
X237.675Y-121.238
X239.602Y-159.587
X243.748Y-100.824
X245.674Y-139.173
X256.437Y-117.93
X258.362Y-156.279
X261.94Y-176.564
X262.509Y-97.516
X264.435Y-135.864
X277.147Y-115.523
X279.052Y-154.792
X283.053Y-95.024
X285.148Y-135.791
X296.197Y-116.741
X298.102Y-154.792
X302.103Y-97.692
X304.198Y-135.791
X315.247Y-116.741
X318.778Y-105.932
X321.153Y-97.692
X323.254Y-144.031
X324.296Y-154.792
X330.678Y-97.692
X335.154Y-135.791
X336.583Y-178.654
X339.061Y-116.741
X340.203Y-97.692
X342.578Y-105.932
X347.054Y-144.031
X355.633Y-159.604
X355.633Y-178.654
X374.683Y-97.692
X374.683Y-116.741
X374.683Y-135.791
X374.683Y-178.654
T0
M30
