%TF.GenerationSoftware,KiCad,Pcbnew,(6.0.1)*%
%TF.CreationDate,2022-01-26T01:35:16+07:00*%
%TF.ProjectId,Maja V1 PCB Redesign,4d616a61-2056-4312-9050-434220526564,rev?*%
%TF.SameCoordinates,Original*%
%TF.FileFunction,Copper,L2,Bot*%
%TF.FilePolarity,Positive*%
%FSLAX46Y46*%
G04 Gerber Fmt 4.6, Leading zero omitted, Abs format (unit mm)*
G04 Created by KiCad (PCBNEW (6.0.1)) date 2022-01-26 01:35:16*
%MOMM*%
%LPD*%
G01*
G04 APERTURE LIST*
G04 Aperture macros list*
%AMRoundRect*
0 Rectangle with rounded corners*
0 $1 Rounding radius*
0 $2 $3 $4 $5 $6 $7 $8 $9 X,Y pos of 4 corners*
0 Add a 4 corners polygon primitive as box body*
4,1,4,$2,$3,$4,$5,$6,$7,$8,$9,$2,$3,0*
0 Add four circle primitives for the rounded corners*
1,1,$1+$1,$2,$3*
1,1,$1+$1,$4,$5*
1,1,$1+$1,$6,$7*
1,1,$1+$1,$8,$9*
0 Add four rect primitives between the rounded corners*
20,1,$1+$1,$2,$3,$4,$5,0*
20,1,$1+$1,$4,$5,$6,$7,0*
20,1,$1+$1,$6,$7,$8,$9,0*
20,1,$1+$1,$8,$9,$2,$3,0*%
%AMRotRect*
0 Rectangle, with rotation*
0 The origin of the aperture is its center*
0 $1 length*
0 $2 width*
0 $3 Rotation angle, in degrees counterclockwise*
0 Add horizontal line*
21,1,$1,$2,0,0,$3*%
G04 Aperture macros list end*
%TA.AperFunction,NonConductor*%
%ADD10C,1.874879*%
%TD*%
%TA.AperFunction,NonConductor*%
%ADD11C,3.467596*%
%TD*%
%TA.AperFunction,SMDPad,CuDef*%
%ADD12RotRect,0.900000X1.200000X80.000000*%
%TD*%
%TA.AperFunction,SMDPad,CuDef*%
%ADD13RoundRect,0.250000X-0.450000X0.350000X-0.450000X-0.350000X0.450000X-0.350000X0.450000X0.350000X0*%
%TD*%
%TA.AperFunction,SMDPad,CuDef*%
%ADD14RotRect,1.800000X1.100000X190.000000*%
%TD*%
%TA.AperFunction,ComponentPad*%
%ADD15R,1.700000X1.700000*%
%TD*%
%TA.AperFunction,ComponentPad*%
%ADD16C,1.700000*%
%TD*%
%TA.AperFunction,ComponentPad*%
%ADD17C,2.200000*%
%TD*%
%TA.AperFunction,SMDPad,CuDef*%
%ADD18R,0.600000X1.450000*%
%TD*%
%TA.AperFunction,SMDPad,CuDef*%
%ADD19R,0.300000X1.450000*%
%TD*%
%TA.AperFunction,ComponentPad*%
%ADD20O,1.050000X2.100000*%
%TD*%
%TA.AperFunction,SMDPad,CuDef*%
%ADD21RoundRect,0.250000X-0.350000X-0.450000X0.350000X-0.450000X0.350000X0.450000X-0.350000X0.450000X0*%
%TD*%
%TA.AperFunction,SMDPad,CuDef*%
%ADD22R,1.200000X0.900000*%
%TD*%
%TA.AperFunction,SMDPad,CuDef*%
%ADD23RotRect,0.900000X1.200000X100.000000*%
%TD*%
%TA.AperFunction,SMDPad,CuDef*%
%ADD24R,0.700000X1.000000*%
%TD*%
%TA.AperFunction,SMDPad,CuDef*%
%ADD25R,0.700000X0.600000*%
%TD*%
%TA.AperFunction,SMDPad,CuDef*%
%ADD26R,1.500000X0.500000*%
%TD*%
%TA.AperFunction,SMDPad,CuDef*%
%ADD27R,0.500000X1.500000*%
%TD*%
%TA.AperFunction,SMDPad,CuDef*%
%ADD28RoundRect,0.250000X-0.337500X-0.475000X0.337500X-0.475000X0.337500X0.475000X-0.337500X0.475000X0*%
%TD*%
%TA.AperFunction,SMDPad,CuDef*%
%ADD29R,1.200000X1.400000*%
%TD*%
%TA.AperFunction,SMDPad,CuDef*%
%ADD30RoundRect,0.250000X0.337500X0.475000X-0.337500X0.475000X-0.337500X-0.475000X0.337500X-0.475000X0*%
%TD*%
%TA.AperFunction,SMDPad,CuDef*%
%ADD31RoundRect,0.250000X0.350000X0.450000X-0.350000X0.450000X-0.350000X-0.450000X0.350000X-0.450000X0*%
%TD*%
%TA.AperFunction,SMDPad,CuDef*%
%ADD32RoundRect,0.250000X-0.475000X0.337500X-0.475000X-0.337500X0.475000X-0.337500X0.475000X0.337500X0*%
%TD*%
%TA.AperFunction,SMDPad,CuDef*%
%ADD33RoundRect,0.250001X0.624999X-0.462499X0.624999X0.462499X-0.624999X0.462499X-0.624999X-0.462499X0*%
%TD*%
%TA.AperFunction,SMDPad,CuDef*%
%ADD34RoundRect,0.250000X0.450000X-0.350000X0.450000X0.350000X-0.450000X0.350000X-0.450000X-0.350000X0*%
%TD*%
%TA.AperFunction,SMDPad,CuDef*%
%ADD35RoundRect,0.250000X0.503940X-0.266541X0.382387X0.422824X-0.503940X0.266541X-0.382387X-0.422824X0*%
%TD*%
%TA.AperFunction,SMDPad,CuDef*%
%ADD36RoundRect,0.250000X0.475000X-0.337500X0.475000X0.337500X-0.475000X0.337500X-0.475000X-0.337500X0*%
%TD*%
%TA.AperFunction,SMDPad,CuDef*%
%ADD37R,5.200000X5.200000*%
%TD*%
%TA.AperFunction,SMDPad,CuDef*%
%ADD38RoundRect,0.062500X-0.475000X0.062500X-0.475000X-0.062500X0.475000X-0.062500X0.475000X0.062500X0*%
%TD*%
%TA.AperFunction,SMDPad,CuDef*%
%ADD39RoundRect,0.062500X-0.062500X0.475000X-0.062500X-0.475000X0.062500X-0.475000X0.062500X0.475000X0*%
%TD*%
%TA.AperFunction,ViaPad*%
%ADD40C,0.800000*%
%TD*%
%TA.AperFunction,Conductor*%
%ADD41C,0.250000*%
%TD*%
%TA.AperFunction,Conductor*%
%ADD42C,0.381000*%
%TD*%
%TA.AperFunction,Conductor*%
%ADD43C,0.200000*%
%TD*%
G04 APERTURE END LIST*
D10*
X45614479Y-96640770D02*
G75*
G03*
X45614479Y-96640770I-937439J0D01*
G01*
X84614503Y-173640769D02*
G75*
G03*
X84614503Y-173640769I-937439J0D01*
G01*
X360414485Y-115640758D02*
G75*
G03*
X360414485Y-115640758I-937439J0D01*
G01*
X192114491Y-112640764D02*
G75*
G03*
X192114491Y-112640764I-937439J0D01*
G01*
X192314491Y-188640764D02*
G75*
G03*
X192314491Y-188640764I-937439J0D01*
G01*
D11*
X151962431Y-90066692D02*
G75*
G03*
X151962431Y-90066692I-1733798J0D01*
G01*
D10*
X301293241Y-175742746D02*
G75*
G03*
X301293241Y-175742746I-937439J0D01*
G01*
D12*
%TO.P,D22,1,K*%
%TO.N,ROW1*%
X170648979Y-131290765D03*
%TO.P,D22,2,A*%
%TO.N,Net-(D22-Pad2)*%
X171222017Y-128040899D03*
%TD*%
D13*
%TO.P,R5,1*%
%TO.N,DP*%
X182854092Y-121952993D03*
%TO.P,R5,2*%
%TO.N,D+*%
X182854092Y-123952993D03*
%TD*%
D14*
%TO.P,S1,1,1*%
%TO.N,unconnected-(S1-Pad1)*%
X220061294Y-131772116D03*
%TO.P,S1,2,2*%
%TO.N,RESET*%
X213955486Y-132848735D03*
%TO.P,S1,3,3*%
%TO.N,GND*%
X220703792Y-135415905D03*
%TO.P,S1,4,4*%
%TO.N,unconnected-(S1-Pad4)*%
X214597984Y-136492524D03*
%TD*%
D15*
%TO.P,J2,6,GND*%
%TO.N,GND*%
X241014640Y-130652321D03*
D16*
%TO.P,J2,5,~{RST}*%
%TO.N,RESET*%
X241014640Y-128112321D03*
%TO.P,J2,4,MOSI*%
%TO.N,MOSI*%
X238474640Y-130652321D03*
%TO.P,J2,3,SCK*%
%TO.N,SCK*%
X238474640Y-128112321D03*
%TO.P,J2,2,VCC*%
%TO.N,+5V*%
X235934640Y-130652321D03*
%TO.P,J2,1,MISO*%
%TO.N,MISO*%
X235934640Y-128112321D03*
%TD*%
D12*
%TO.P,D37,1,K*%
%TO.N,ROW 2*%
X172010377Y-151144259D03*
%TO.P,D37,2,A*%
%TO.N,Net-(D37-Pad2)*%
X172583415Y-147894393D03*
%TD*%
D17*
%TO.P,K40,1,COL*%
%TO.N,COL9*%
X241480492Y-137332689D03*
%TO.P,K40,2,ROW*%
%TO.N,Net-(D40-Pad2)*%
X247292955Y-133728611D03*
%TD*%
%TO.P,K31,1,COL*%
%TO.N,COL15*%
X370872676Y-114200950D03*
%TO.P,K31,2,ROW*%
%TO.N,Net-(D31-Pad2)*%
X377222676Y-111660950D03*
%TD*%
%TO.P,K54,1,COL*%
%TO.N,COL9*%
X235408492Y-157747039D03*
%TO.P,K54,2,ROW*%
%TO.N,Net-(D54-Pad2)*%
X241220955Y-154142961D03*
%TD*%
%TO.P,K33,1,COL*%
%TO.N,COL2*%
X84171026Y-131918350D03*
%TO.P,K33,2,ROW*%
%TO.N,Net-(D33-Pad2)*%
X90521026Y-129378350D03*
%TD*%
%TO.P,K62,1,COL*%
%TO.N,COL4*%
X143270765Y-177708966D03*
%TO.P,K62,2,ROW*%
%TO.N,Net-(D62-Pad2)*%
X149965361Y-176310220D03*
%TD*%
%TO.P,K21,1,COL*%
%TO.N,COL5*%
X141470625Y-119350764D03*
%TO.P,K21,2,ROW*%
%TO.N,Net-(D21-Pad2)*%
X148165221Y-117952018D03*
%TD*%
%TO.P,K16,1,COL*%
%TO.N,COL15*%
X370872676Y-95152200D03*
%TO.P,K16,2,ROW*%
%TO.N,Net-(D16-Pad2)*%
X377222676Y-92612200D03*
%TD*%
%TO.P,K6,1,COL*%
%TO.N,COL5*%
X154158374Y-102244264D03*
%TO.P,K6,2,ROW*%
%TO.N,Net-(D6-Pad2)*%
X160852970Y-100845518D03*
%TD*%
%TO.P,K69,1,COL*%
%TO.N,COL14*%
X326868179Y-95152229D03*
%TO.P,K69,2,ROW*%
%TO.N,Net-(D15-Pad2)*%
X333218179Y-92612229D03*
%TD*%
%TO.P,K48,1,COL*%
%TO.N,COL3*%
X111403375Y-152736789D03*
%TO.P,K48,2,ROW*%
%TO.N,Net-(D48-Pad2)*%
X118097971Y-151338043D03*
%TD*%
%TO.P,K2,1,COL*%
%TO.N,COL1*%
X76740626Y-93818200D03*
%TO.P,K2,2,ROW*%
%TO.N,Net-(D2-Pad2)*%
X83090626Y-91278200D03*
%TD*%
%TO.P,K70,1,COL*%
%TO.N,COL4*%
X140925691Y-177295466D03*
%TO.P,K70,2,ROW*%
%TO.N,Net-(D62-Pad2)*%
X147620287Y-175896720D03*
%TD*%
%TO.P,K14,1,COL*%
%TO.N,COL13*%
X317343179Y-95152229D03*
%TO.P,K14,2,ROW*%
%TO.N,Net-(D14-Pad2)*%
X323693179Y-92612229D03*
%TD*%
%TO.P,K65,1,COL*%
%TO.N,COL10*%
X257746381Y-174724457D03*
%TO.P,K65,2,ROW*%
%TO.N,Net-(D65-Pad2)*%
X263558844Y-171120379D03*
%TD*%
%TO.P,K56,1,COL*%
%TO.N,COL11*%
X275242176Y-152251650D03*
%TO.P,K56,2,ROW*%
%TO.N,Net-(D56-Pad2)*%
X281592176Y-149711650D03*
%TD*%
%TO.P,K52,1,COL*%
%TO.N,COL7*%
X197887492Y-164362838D03*
%TO.P,K52,2,ROW*%
%TO.N,Net-(D52-Pad2)*%
X203699955Y-160758760D03*
%TD*%
%TO.P,K3,1,COL*%
%TO.N,COL2*%
X95790626Y-92230700D03*
%TO.P,K3,2,ROW*%
%TO.N,Net-(D3-Pad2)*%
X102140626Y-89690700D03*
%TD*%
%TO.P,K36,1,COL*%
%TO.N,COL5*%
X142853124Y-138937889D03*
%TO.P,K36,2,ROW*%
%TO.N,Net-(D36-Pad2)*%
X149547720Y-137539143D03*
%TD*%
%TO.P,K37,1,COL*%
%TO.N,COL6*%
X161613374Y-142246239D03*
%TO.P,K37,2,ROW*%
%TO.N,Net-(D37-Pad2)*%
X168307970Y-140847493D03*
%TD*%
%TO.P,K27,1,COL*%
%TO.N,COL11*%
X273337176Y-112982650D03*
%TO.P,K27,2,ROW*%
%TO.N,Net-(D27-Pad2)*%
X279687176Y-110442650D03*
%TD*%
%TO.P,K64,1,COL*%
%TO.N,COL8*%
X217610742Y-180229013D03*
%TO.P,K64,2,ROW*%
%TO.N,Net-(D64-Pad2)*%
X223423205Y-176624935D03*
%TD*%
%TO.P,K51,1,COL*%
%TO.N,COL6*%
X167685625Y-162660789D03*
%TO.P,K51,2,ROW*%
%TO.N,Net-(D51-Pad2)*%
X174380221Y-161262043D03*
%TD*%
%TO.P,K1,1,COL*%
%TO.N,COL0*%
X57690626Y-93818200D03*
%TO.P,K1,2,ROW*%
%TO.N,Net-(D1-Pad2)*%
X64040626Y-91278200D03*
%TD*%
%TO.P,K22,1,COL*%
%TO.N,COL6*%
X160231125Y-122658789D03*
%TO.P,K22,2,ROW*%
%TO.N,Net-(D22-Pad2)*%
X166925721Y-121260043D03*
%TD*%
%TO.P,K11,1,COL*%
%TO.N,COL10*%
X258315992Y-95675889D03*
%TO.P,K11,2,ROW*%
%TO.N,Net-(D11-Pad2)*%
X264128455Y-92071811D03*
%TD*%
%TO.P,K35,1,COL*%
%TO.N,COL4*%
X124092125Y-135630589D03*
%TO.P,K35,2,ROW*%
%TO.N,Net-(D35-Pad2)*%
X130786721Y-134231843D03*
%TD*%
%TO.P,K18,1,COL*%
%TO.N,COL2*%
X82456176Y-112868350D03*
%TO.P,K18,2,ROW*%
%TO.N,Net-(D18-Pad2)*%
X88806176Y-110328350D03*
%TD*%
%TO.P,K44,1,COL*%
%TO.N,COL13*%
X331343676Y-133250950D03*
%TO.P,K44,2,ROW*%
%TO.N,Net-(D44-Pad2)*%
X337693676Y-130710950D03*
%TD*%
%TO.P,K50,1,COL*%
%TO.N,COL5*%
X148924874Y-159352789D03*
%TO.P,K50,2,ROW*%
%TO.N,Net-(D50-Pad2)*%
X155619470Y-157954043D03*
%TD*%
%TO.P,K34,1,COL*%
%TO.N,COL3*%
X105331574Y-132321889D03*
%TO.P,K34,2,ROW*%
%TO.N,Net-(D34-Pad2)*%
X112026170Y-130923143D03*
%TD*%
%TO.P,K26,1,COL*%
%TO.N,COL10*%
X252243492Y-116090338D03*
%TO.P,K26,2,ROW*%
%TO.N,Net-(D26-Pad2)*%
X258055955Y-112486260D03*
%TD*%
%TO.P,K10,1,COL*%
%TO.N,COL9*%
X239554992Y-98984489D03*
%TO.P,K10,2,ROW*%
%TO.N,Net-(D10-Pad2)*%
X245367455Y-95380411D03*
%TD*%
%TO.P,K63,1,COL*%
%TO.N,COL6*%
X173756720Y-183084462D03*
%TO.P,K63,2,ROW*%
%TO.N,Net-(D63-Pad2)*%
X180451316Y-181685716D03*
%TD*%
%TO.P,K15,1,COL*%
%TO.N,COL14*%
X336393179Y-95152229D03*
%TO.P,K15,2,ROW*%
%TO.N,Net-(D15-Pad2)*%
X342743179Y-92612229D03*
%TD*%
%TO.P,K20,1,COL*%
%TO.N,COL4*%
X122710374Y-116042437D03*
%TO.P,K20,2,ROW*%
%TO.N,Net-(D20-Pad2)*%
X129404970Y-114643691D03*
%TD*%
%TO.P,K17,1,COL*%
%TO.N,COL0*%
X58643676Y-112868350D03*
%TO.P,K17,2,ROW*%
%TO.N,Net-(D17-Pad2)*%
X64993676Y-110328350D03*
%TD*%
%TO.P,K7,1,COL*%
%TO.N,COL6*%
X172920374Y-105552189D03*
%TO.P,K7,2,ROW*%
%TO.N,Net-(D7-Pad2)*%
X179614970Y-104153443D03*
%TD*%
%TO.P,K19,1,COL*%
%TO.N,COL3*%
X103949474Y-112734789D03*
%TO.P,K19,2,ROW*%
%TO.N,Net-(D19-Pad2)*%
X110644070Y-111336043D03*
%TD*%
%TO.P,K5,1,COL*%
%TO.N,COL4*%
X135398375Y-98936289D03*
%TO.P,K5,2,ROW*%
%TO.N,Net-(D5-Pad2)*%
X142092971Y-97537543D03*
%TD*%
%TO.P,K24,1,COL*%
%TO.N,COL8*%
X214722242Y-122706138D03*
%TO.P,K24,2,ROW*%
%TO.N,Net-(D24-Pad2)*%
X220534705Y-119102060D03*
%TD*%
%TO.P,K28,1,COL*%
%TO.N,COL12*%
X292387176Y-114200950D03*
%TO.P,K28,2,ROW*%
%TO.N,Net-(D28-Pad2)*%
X298737176Y-111660950D03*
%TD*%
%TO.P,K67,1,COL*%
%TO.N,COL14*%
X351822676Y-176114050D03*
%TO.P,K67,2,ROW*%
%TO.N,Net-(D67-Pad2)*%
X358172676Y-173574050D03*
%TD*%
%TO.P,K59,1,COL*%
%TO.N,COL14*%
X351822676Y-157063950D03*
%TO.P,K59,2,ROW*%
%TO.N,Net-(D59-Pad2)*%
X358172676Y-154523950D03*
%TD*%
%TO.P,K8,1,COL*%
%TO.N,COL7*%
X202033992Y-105600589D03*
%TO.P,K8,2,ROW*%
%TO.N,Net-(D8-Pad2)*%
X207846455Y-101996511D03*
%TD*%
%TO.P,K9,1,COL*%
%TO.N,COL8*%
X220794742Y-102291738D03*
%TO.P,K9,2,ROW*%
%TO.N,Net-(D9-Pad2)*%
X226607205Y-98687660D03*
%TD*%
%TO.P,K39,1,COL*%
%TO.N,COL8*%
X222720242Y-140639963D03*
%TO.P,K39,2,ROW*%
%TO.N,Net-(D39-Pad2)*%
X228532705Y-137035885D03*
%TD*%
%TO.P,K49,1,COL*%
%TO.N,COL4*%
X130165125Y-156044789D03*
%TO.P,K49,2,ROW*%
%TO.N,Net-(D49-Pad2)*%
X136859721Y-154646043D03*
%TD*%
%TO.P,K43,1,COL*%
%TO.N,COL12*%
X300387676Y-133250950D03*
%TO.P,K43,2,ROW*%
%TO.N,Net-(D43-Pad2)*%
X306737676Y-130710950D03*
%TD*%
%TO.P,K47,1,COL*%
%TO.N,COL2*%
X90076519Y-151038991D03*
%TO.P,K47,2,ROW*%
%TO.N,Net-(D47-Pad2)*%
X96426519Y-148498991D03*
%TD*%
%TO.P,K58,1,COL*%
%TO.N,COL13*%
X320485926Y-152251650D03*
%TO.P,K58,2,ROW*%
%TO.N,Net-(D58-Pad2)*%
X326835926Y-149711650D03*
%TD*%
%TO.P,K29,1,COL*%
%TO.N,COL13*%
X311437176Y-114200950D03*
%TO.P,K29,2,ROW*%
%TO.N,Net-(D29-Pad2)*%
X317787176Y-111660950D03*
%TD*%
%TO.P,K23,1,COL*%
%TO.N,COL7*%
X195961992Y-126014838D03*
%TO.P,K23,2,ROW*%
%TO.N,Net-(D23-Pad2)*%
X201774455Y-122410760D03*
%TD*%
%TO.P,K71,1,COL*%
%TO.N,COL6*%
X171411646Y-182670962D03*
%TO.P,K71,2,ROW*%
%TO.N,Net-(D63-Pad2)*%
X178106242Y-181272216D03*
%TD*%
%TO.P,K61,1,COL*%
%TO.N,COL3*%
X106892992Y-172270156D03*
%TO.P,K61,2,ROW*%
%TO.N,Net-(D61-Pad2)*%
X113587588Y-170871410D03*
%TD*%
%TO.P,K45,1,COL*%
%TO.N,COL15*%
X370872676Y-133250950D03*
%TO.P,K45,2,ROW*%
%TO.N,Net-(D45-Pad2)*%
X377222676Y-130710950D03*
%TD*%
%TO.P,K42,1,COL*%
%TO.N,COL11*%
X281337676Y-133250950D03*
%TO.P,K42,2,ROW*%
%TO.N,Net-(D42-Pad2)*%
X287687676Y-130710950D03*
%TD*%
%TO.P,K25,1,COL*%
%TO.N,COL9*%
X233482242Y-119398614D03*
%TO.P,K25,2,ROW*%
%TO.N,Net-(D25-Pad2)*%
X239294705Y-115794536D03*
%TD*%
%TO.P,K32,1,COL*%
%TO.N,COL0*%
X57976469Y-131918691D03*
%TO.P,K32,2,ROW*%
%TO.N,Net-(D32-Pad2)*%
X64326469Y-129378691D03*
%TD*%
%TO.P,K38,1,COL*%
%TO.N,COL7*%
X203959492Y-143948664D03*
%TO.P,K38,2,ROW*%
%TO.N,Net-(D38-Pad2)*%
X209771955Y-140344586D03*
%TD*%
%TO.P,K46,1,COL*%
%TO.N,COL1*%
X59111615Y-151039046D03*
%TO.P,K46,2,ROW*%
%TO.N,Net-(D46-Pad2)*%
X65461615Y-148499046D03*
%TD*%
%TO.P,K68,1,COL*%
%TO.N,COL15*%
X370872676Y-176114050D03*
%TO.P,K68,2,ROW*%
%TO.N,Net-(D68-Pad2)*%
X377222676Y-173574050D03*
%TD*%
%TO.P,K30,1,COL*%
%TO.N,COL14*%
X335250676Y-114200950D03*
%TO.P,K30,2,ROW*%
%TO.N,Net-(D30-Pad2)*%
X341600676Y-111660950D03*
%TD*%
%TO.P,K57,1,COL*%
%TO.N,COL12*%
X294292176Y-152251650D03*
%TO.P,K57,2,ROW*%
%TO.N,Net-(D57-Pad2)*%
X300642176Y-149711650D03*
%TD*%
%TO.P,K66,1,COL*%
%TO.N,COL13*%
X332772676Y-176114050D03*
%TO.P,K66,2,ROW*%
%TO.N,Net-(D66-Pad2)*%
X339122676Y-173574050D03*
%TD*%
%TO.P,K41,1,COL*%
%TO.N,COL10*%
X260241742Y-134023988D03*
%TO.P,K41,2,ROW*%
%TO.N,Net-(D41-Pad2)*%
X266054205Y-130419910D03*
%TD*%
%TO.P,K12,1,COL*%
%TO.N,COL11*%
X279242676Y-92484200D03*
%TO.P,K12,2,ROW*%
%TO.N,Net-(D12-Pad2)*%
X285592676Y-89944200D03*
%TD*%
%TO.P,K60,1,COL*%
%TO.N,COL0*%
X51975976Y-170089500D03*
%TO.P,K60,2,ROW*%
%TO.N,Net-(D60-Pad2)*%
X58325976Y-167549500D03*
%TD*%
%TO.P,K4,1,COL*%
%TO.N,COL3*%
X116637875Y-95628189D03*
%TO.P,K4,2,ROW*%
%TO.N,Net-(D4-Pad2)*%
X123332471Y-94229443D03*
%TD*%
%TO.P,K72,1,COL*%
%TO.N,COL0*%
X53213969Y-131918691D03*
%TO.P,K72,2,ROW*%
%TO.N,Net-(D32-Pad2)*%
X59563969Y-129378691D03*
%TD*%
%TO.P,K53,1,COL*%
%TO.N,COL8*%
X216647992Y-161054939D03*
%TO.P,K53,2,ROW*%
%TO.N,Net-(D53-Pad2)*%
X222460455Y-157450861D03*
%TD*%
%TO.P,K55,1,COL*%
%TO.N,COL10*%
X254168992Y-154439039D03*
%TO.P,K55,2,ROW*%
%TO.N,Net-(D55-Pad2)*%
X259981455Y-150834961D03*
%TD*%
%TO.P,K13,1,COL*%
%TO.N,COL12*%
X298292676Y-95152200D03*
%TO.P,K13,2,ROW*%
%TO.N,Net-(D13-Pad2)*%
X304642676Y-92612200D03*
%TD*%
D18*
%TO.P,J1,A1B12,GND*%
%TO.N,GND*%
X209187499Y-84315000D03*
%TO.P,J1,A4B9,VBUS*%
%TO.N,VCC*%
X209987499Y-84315000D03*
D19*
%TO.P,J1,A5,CC1*%
%TO.N,Net-(J1-PadA5)*%
X211187499Y-84315000D03*
%TO.P,J1,A6,DP1*%
%TO.N,DP*%
X212187499Y-84315000D03*
%TO.P,J1,A7,DN1*%
%TO.N,DN*%
X212687499Y-84315000D03*
%TO.P,J1,A8,SBU1*%
%TO.N,unconnected-(J1-PadA8)*%
X213687499Y-84315000D03*
D18*
%TO.P,J1,B1A12,GND*%
%TO.N,GND*%
X215687499Y-84315000D03*
%TO.P,J1,B4A9,VBUS*%
%TO.N,VCC*%
X214887499Y-84315000D03*
D19*
%TO.P,J1,B5,CC2*%
%TO.N,Net-(J1-PadB5)*%
X214187499Y-84315000D03*
%TO.P,J1,B6,DP2*%
%TO.N,DP*%
X213187499Y-84315000D03*
%TO.P,J1,B7,DN2*%
%TO.N,DN*%
X211687499Y-84315000D03*
%TO.P,J1,B8,SBU2*%
%TO.N,unconnected-(J1-PadB8)*%
X210687499Y-84315000D03*
D20*
%TO.P,J1,S1,SHIELD*%
%TO.N,GND*%
X208117499Y-83400000D03*
%TO.P,J1,S2,SHIELD*%
X216757499Y-83400000D03*
%TO.P,J1,S3,SHIELD*%
X208117499Y-79220000D03*
%TO.P,J1,S4,SHIELD*%
X216757499Y-79220000D03*
%TD*%
D12*
%TO.P,D36,1,K*%
%TO.N,ROW 2*%
X137407179Y-144376619D03*
%TO.P,D36,2,A*%
%TO.N,Net-(D36-Pad2)*%
X137980217Y-141126753D03*
%TD*%
D21*
%TO.P,R1,1*%
%TO.N,Net-(J1-PadB5)*%
X215442140Y-89444821D03*
%TO.P,R1,2*%
%TO.N,GND*%
X217442140Y-89444821D03*
%TD*%
D22*
%TO.P,D59,1,K*%
%TO.N,ROW3*%
X363577643Y-164373111D03*
%TO.P,D59,2,A*%
%TO.N,Net-(D59-Pad2)*%
X363577643Y-161073111D03*
%TD*%
D23*
%TO.P,D53,1,K*%
%TO.N,ROW3*%
X229412762Y-165834490D03*
%TO.P,D53,2,A*%
%TO.N,Net-(D53-Pad2)*%
X228839724Y-162584624D03*
%TD*%
D24*
%TO.P,U2,1,GND*%
%TO.N,GND*%
X213417140Y-91907321D03*
D25*
%TO.P,U2,2,IO1*%
%TO.N,DP*%
X213417140Y-93607321D03*
%TO.P,U2,3,IO2*%
%TO.N,DN*%
X211417140Y-93607321D03*
%TO.P,U2,4,VCC*%
%TO.N,VCC*%
X211417140Y-91707321D03*
%TD*%
D22*
%TO.P,D2,1,K*%
%TO.N,ROW0*%
X88385500Y-101153344D03*
%TO.P,D2,2,A*%
%TO.N,Net-(D2-Pad2)*%
X88385500Y-97853344D03*
%TD*%
D23*
%TO.P,D11,1,K*%
%TO.N,ROW0*%
X271234519Y-100334527D03*
%TO.P,D11,2,A*%
%TO.N,Net-(D11-Pad2)*%
X270661481Y-97084661D03*
%TD*%
D22*
%TO.P,D47,1,K*%
%TO.N,ROW3*%
X101879250Y-158303344D03*
%TO.P,D47,2,A*%
%TO.N,Net-(D47-Pad2)*%
X101879250Y-155003344D03*
%TD*%
D23*
%TO.P,D25,1,K*%
%TO.N,ROW1*%
X246163922Y-123549116D03*
%TO.P,D25,2,A*%
%TO.N,Net-(D25-Pad2)*%
X245590884Y-120299250D03*
%TD*%
D22*
%TO.P,D33,1,K*%
%TO.N,ROW 2*%
X96323000Y-138459594D03*
%TO.P,D33,2,A*%
%TO.N,Net-(D33-Pad2)*%
X96323000Y-135159594D03*
%TD*%
D23*
%TO.P,D10,1,K*%
%TO.N,ROW0*%
X252978269Y-103509527D03*
%TO.P,D10,2,A*%
%TO.N,Net-(D10-Pad2)*%
X252405231Y-100259661D03*
%TD*%
D12*
%TO.P,D21,1,K*%
%TO.N,ROW1*%
X151598981Y-128115777D03*
%TO.P,D21,2,A*%
%TO.N,Net-(D21-Pad2)*%
X152172019Y-124865911D03*
%TD*%
D22*
%TO.P,D17,1,K*%
%TO.N,ROW1*%
X70923000Y-119409594D03*
%TO.P,D17,2,A*%
%TO.N,Net-(D17-Pad2)*%
X70923000Y-116109594D03*
%TD*%
%TO.P,D31,1,K*%
%TO.N,ROW1*%
X366198000Y-121790844D03*
%TO.P,D31,2,A*%
%TO.N,Net-(D31-Pad2)*%
X366198000Y-118490844D03*
%TD*%
D12*
%TO.P,D48,1,K*%
%TO.N,ROW3*%
X121888250Y-162247027D03*
%TO.P,D48,2,A*%
%TO.N,Net-(D48-Pad2)*%
X122461288Y-158997161D03*
%TD*%
D22*
%TO.P,D68,1,K*%
%TO.N,ROW4*%
X366772296Y-183395817D03*
%TO.P,D68,2,A*%
%TO.N,Net-(D68-Pad2)*%
X366772296Y-180095817D03*
%TD*%
D26*
%TO.P,REF\u002A\u002A,44*%
%TO.N,+5V*%
X177962497Y-131688756D03*
%TO.P,REF\u002A\u002A,43*%
%TO.N,GND*%
X177962497Y-132488756D03*
%TO.P,REF\u002A\u002A,42*%
%TO.N,N/C*%
X177962497Y-133288756D03*
%TO.P,REF\u002A\u002A,41*%
%TO.N,COL0*%
X177962497Y-134088756D03*
%TO.P,REF\u002A\u002A,40*%
%TO.N,COL1*%
X177962497Y-134888756D03*
%TO.P,REF\u002A\u002A,39*%
%TO.N,COL2*%
X177962497Y-135688756D03*
%TO.P,REF\u002A\u002A,38*%
%TO.N,COL3*%
X177962497Y-136488756D03*
%TO.P,REF\u002A\u002A,37*%
%TO.N,COL4*%
X177962497Y-137288756D03*
%TO.P,REF\u002A\u002A,36*%
%TO.N,COL5*%
X177962497Y-138088756D03*
%TO.P,REF\u002A\u002A,35*%
%TO.N,GND*%
X177962497Y-138888756D03*
%TO.P,REF\u002A\u002A,34*%
%TO.N,+5V*%
X177962497Y-139688756D03*
D27*
%TO.P,REF\u002A\u002A,33*%
%TO.N,Net-(R6-Pad1)*%
X179862497Y-141588756D03*
%TO.P,REF\u002A\u002A,32*%
%TO.N,COL6*%
X180662497Y-141588756D03*
%TO.P,REF\u002A\u002A,31*%
%TO.N,ROW 2*%
X181462497Y-141588756D03*
%TO.P,REF\u002A\u002A,30*%
%TO.N,ROW3*%
X182262497Y-141588756D03*
%TO.P,REF\u002A\u002A,29*%
%TO.N,ROW4*%
X183062497Y-141588756D03*
%TO.P,REF\u002A\u002A,28*%
%TO.N,COL7*%
X183862497Y-141588756D03*
%TO.P,REF\u002A\u002A,27*%
%TO.N,COL8*%
X184662497Y-141588756D03*
%TO.P,REF\u002A\u002A,26*%
%TO.N,COL9*%
X185462497Y-141588756D03*
%TO.P,REF\u002A\u002A,25*%
%TO.N,COL10*%
X186262497Y-141588756D03*
%TO.P,REF\u002A\u002A,24*%
%TO.N,+5V*%
X187062497Y-141588756D03*
%TO.P,REF\u002A\u002A,23*%
%TO.N,GND*%
X187862497Y-141588756D03*
D26*
%TO.P,REF\u002A\u002A,22*%
%TO.N,COL11*%
X189762497Y-139688756D03*
%TO.P,REF\u002A\u002A,21*%
%TO.N,COL12*%
X189762497Y-138888756D03*
%TO.P,REF\u002A\u002A,20*%
%TO.N,COL13*%
X189762497Y-138088756D03*
%TO.P,REF\u002A\u002A,19*%
%TO.N,COL14*%
X189762497Y-137288756D03*
%TO.P,REF\u002A\u002A,18*%
%TO.N,COL15*%
X189762497Y-136488756D03*
%TO.P,REF\u002A\u002A,17*%
%TO.N,XTAL1*%
X189762497Y-135688756D03*
%TO.P,REF\u002A\u002A,16*%
%TO.N,XTAL2*%
X189762497Y-134888756D03*
%TO.P,REF\u002A\u002A,15*%
%TO.N,GND*%
X189762497Y-134088756D03*
%TO.P,REF\u002A\u002A,14*%
%TO.N,+5V*%
X189762497Y-133288756D03*
%TO.P,REF\u002A\u002A,13*%
%TO.N,RESET*%
X189762497Y-132488756D03*
%TO.P,REF\u002A\u002A,12*%
%TO.N,N/C*%
X189762497Y-131688756D03*
D27*
%TO.P,REF\u002A\u002A,11*%
%TO.N,MISO*%
X187862497Y-129788756D03*
%TO.P,REF\u002A\u002A,10*%
%TO.N,MOSI*%
X187062497Y-129788756D03*
%TO.P,REF\u002A\u002A,9*%
%TO.N,SCK*%
X186262497Y-129788756D03*
%TO.P,REF\u002A\u002A,8*%
%TO.N,ROW1*%
X185462497Y-129788756D03*
%TO.P,REF\u002A\u002A,7*%
%TO.N,+5V*%
X184662497Y-129788756D03*
%TO.P,REF\u002A\u002A,6*%
%TO.N,Net-(C1-Pad1)*%
X183862497Y-129788756D03*
%TO.P,REF\u002A\u002A,5*%
%TO.N,GND*%
X183062497Y-129788756D03*
%TO.P,REF\u002A\u002A,4*%
%TO.N,D+*%
X182262497Y-129788756D03*
%TO.P,REF\u002A\u002A,3*%
%TO.N,D-*%
X181462497Y-129788756D03*
%TO.P,REF\u002A\u002A,2*%
%TO.N,+5V*%
X180662497Y-129788756D03*
%TO.P,REF\u002A\u002A,1*%
%TO.N,ROW0*%
X179862497Y-129788756D03*
%TD*%
D23*
%TO.P,D40,1,K*%
%TO.N,ROW 2*%
X254238589Y-142247874D03*
%TO.P,D40,2,A*%
%TO.N,Net-(D40-Pad2)*%
X253665551Y-138998008D03*
%TD*%
%TO.P,D39,1,K*%
%TO.N,ROW 2*%
X235554710Y-145636143D03*
%TO.P,D39,2,A*%
%TO.N,Net-(D39-Pad2)*%
X234981672Y-142386277D03*
%TD*%
D22*
%TO.P,D3,1,K*%
%TO.N,ROW0*%
X107435500Y-99565844D03*
%TO.P,D3,2,A*%
%TO.N,Net-(D3-Pad2)*%
X107435500Y-96265844D03*
%TD*%
%TO.P,D56,1,K*%
%TO.N,ROW3*%
X287003998Y-159258804D03*
%TO.P,D56,2,A*%
%TO.N,Net-(D56-Pad2)*%
X287003998Y-155958804D03*
%TD*%
D12*
%TO.P,D4,1,K*%
%TO.N,ROW0*%
X126992731Y-105097027D03*
%TO.P,D4,2,A*%
%TO.N,Net-(D4-Pad2)*%
X127565769Y-101847161D03*
%TD*%
%TO.P,D50,1,K*%
%TO.N,ROW3*%
X159352815Y-168184927D03*
%TO.P,D50,2,A*%
%TO.N,Net-(D50-Pad2)*%
X159925853Y-164935061D03*
%TD*%
D22*
%TO.P,D66,1,K*%
%TO.N,ROW4*%
X344554938Y-183299009D03*
%TO.P,D66,2,A*%
%TO.N,Net-(D66-Pad2)*%
X344554938Y-179999009D03*
%TD*%
D23*
%TO.P,D65,1,K*%
%TO.N,ROW4*%
X253772019Y-181297027D03*
%TO.P,D65,2,A*%
%TO.N,Net-(D65-Pad2)*%
X253198981Y-178047161D03*
%TD*%
%TO.P,D26,1,K*%
%TO.N,ROW1*%
X264884519Y-120178277D03*
%TO.P,D26,2,A*%
%TO.N,Net-(D26-Pad2)*%
X264311481Y-116928411D03*
%TD*%
D22*
%TO.P,D18,1,K*%
%TO.N,ROW1*%
X94735500Y-119409594D03*
%TO.P,D18,2,A*%
%TO.N,Net-(D18-Pad2)*%
X94735500Y-116109594D03*
%TD*%
%TO.P,D27,1,K*%
%TO.N,ROW1*%
X285235500Y-119409594D03*
%TO.P,D27,2,A*%
%TO.N,Net-(D27-Pad2)*%
X285235500Y-116109594D03*
%TD*%
%TO.P,D32,1,K*%
%TO.N,ROW 2*%
X70129250Y-138459594D03*
%TO.P,D32,2,A*%
%TO.N,Net-(D32-Pad2)*%
X70129250Y-135159594D03*
%TD*%
D23*
%TO.P,D24,1,K*%
%TO.N,ROW1*%
X227426262Y-126926628D03*
%TO.P,D24,2,A*%
%TO.N,Net-(D24-Pad2)*%
X226853224Y-123676762D03*
%TD*%
%TO.P,D23,1,K*%
%TO.N,ROW1*%
X208624063Y-130454729D03*
%TO.P,D23,2,A*%
%TO.N,Net-(D23-Pad2)*%
X208051025Y-127204863D03*
%TD*%
D22*
%TO.P,D12,1,K*%
%TO.N,ROW0*%
X291585500Y-98772094D03*
%TO.P,D12,2,A*%
%TO.N,Net-(D12-Pad2)*%
X291585500Y-95472094D03*
%TD*%
%TO.P,D28,1,K*%
%TO.N,ROW1*%
X304285500Y-120997094D03*
%TO.P,D28,2,A*%
%TO.N,Net-(D28-Pad2)*%
X304285500Y-117697094D03*
%TD*%
D23*
%TO.P,D9,1,K*%
%TO.N,ROW0*%
X233576624Y-107099214D03*
%TO.P,D9,2,A*%
%TO.N,Net-(D9-Pad2)*%
X233003586Y-103849348D03*
%TD*%
%TO.P,D41,1,K*%
%TO.N,ROW 2*%
X273051544Y-138762799D03*
%TO.P,D41,2,A*%
%TO.N,Net-(D41-Pad2)*%
X272478506Y-135512933D03*
%TD*%
D12*
%TO.P,D63,1,K*%
%TO.N,ROW4*%
X184936481Y-189234527D03*
%TO.P,D63,2,A*%
%TO.N,Net-(D63-Pad2)*%
X185509519Y-185984661D03*
%TD*%
D28*
%TO.P,C4,2*%
%TO.N,GND*%
X190352374Y-144486581D03*
%TO.P,C4,1*%
%TO.N,+5V*%
X188277374Y-144486581D03*
%TD*%
D22*
%TO.P,D58,1,K*%
%TO.N,ROW3*%
X332260365Y-159145497D03*
%TO.P,D58,2,A*%
%TO.N,Net-(D58-Pad2)*%
X332260365Y-155845497D03*
%TD*%
D23*
%TO.P,D52,1,K*%
%TO.N,ROW3*%
X210909519Y-169390777D03*
%TO.P,D52,2,A*%
%TO.N,Net-(D52-Pad2)*%
X210336481Y-166140911D03*
%TD*%
D22*
%TO.P,D44,1,K*%
%TO.N,ROW 2*%
X351318735Y-139104855D03*
%TO.P,D44,2,A*%
%TO.N,Net-(D44-Pad2)*%
X351318735Y-135804855D03*
%TD*%
%TO.P,D57,1,K*%
%TO.N,ROW3*%
X306042839Y-159194265D03*
%TO.P,D57,2,A*%
%TO.N,Net-(D57-Pad2)*%
X306042839Y-155894265D03*
%TD*%
%TO.P,D42,1,K*%
%TO.N,ROW 2*%
X293234138Y-140048730D03*
%TO.P,D42,2,A*%
%TO.N,Net-(D42-Pad2)*%
X293234138Y-136748730D03*
%TD*%
D23*
%TO.P,D64,1,K*%
%TO.N,ROW4*%
X205353269Y-186853277D03*
%TO.P,D64,2,A*%
%TO.N,Net-(D64-Pad2)*%
X204780231Y-183603411D03*
%TD*%
%TO.P,D38,1,K*%
%TO.N,ROW 2*%
X216870831Y-149121218D03*
%TO.P,D38,2,A*%
%TO.N,Net-(D38-Pad2)*%
X216297793Y-145871352D03*
%TD*%
%TO.P,D54,1,K*%
%TO.N,ROW3*%
X248150423Y-162392440D03*
%TO.P,D54,2,A*%
%TO.N,Net-(D54-Pad2)*%
X247577385Y-159142574D03*
%TD*%
D28*
%TO.P,C2,1*%
%TO.N,XTAL1*%
X201543196Y-138526243D03*
%TO.P,C2,2*%
%TO.N,GND*%
X203618196Y-138526243D03*
%TD*%
D12*
%TO.P,D61,1,K*%
%TO.N,ROW4*%
X118261481Y-178915777D03*
%TO.P,D61,2,A*%
%TO.N,Net-(D61-Pad2)*%
X118834519Y-175665911D03*
%TD*%
%TO.P,D5,1,K*%
%TO.N,ROW0*%
X146042731Y-108272027D03*
%TO.P,D5,2,A*%
%TO.N,Net-(D5-Pad2)*%
X146615769Y-105022161D03*
%TD*%
D22*
%TO.P,D13,1,K*%
%TO.N,ROW0*%
X309773782Y-101914337D03*
%TO.P,D13,2,A*%
%TO.N,Net-(D13-Pad2)*%
X309773782Y-98614337D03*
%TD*%
%TO.P,D14,1,K*%
%TO.N,ROW0*%
X313016750Y-101947094D03*
%TO.P,D14,2,A*%
%TO.N,Net-(D14-Pad2)*%
X313016750Y-98647094D03*
%TD*%
%TO.P,D43,1,K*%
%TO.N,ROW 2*%
X312184238Y-140121335D03*
%TO.P,D43,2,A*%
%TO.N,Net-(D43-Pad2)*%
X312184238Y-136821335D03*
%TD*%
D12*
%TO.P,D49,1,K*%
%TO.N,ROW3*%
X140486481Y-165422027D03*
%TO.P,D49,2,A*%
%TO.N,Net-(D49-Pad2)*%
X141059519Y-162172161D03*
%TD*%
D29*
%TO.P,Y1,4,4*%
%TO.N,GND*%
X198668196Y-138506243D03*
%TO.P,Y1,3,3*%
%TO.N,XTAL2*%
X198668196Y-136306243D03*
%TO.P,Y1,2,2*%
%TO.N,GND*%
X196968196Y-136306243D03*
%TO.P,Y1,1,1*%
%TO.N,XTAL1*%
X196968196Y-138506243D03*
%TD*%
D13*
%TO.P,R4,1*%
%TO.N,DN*%
X180822219Y-121936994D03*
%TO.P,R4,2*%
%TO.N,D-*%
X180822219Y-123936994D03*
%TD*%
D22*
%TO.P,D15,1,K*%
%TO.N,ROW0*%
X347941750Y-101947094D03*
%TO.P,D15,2,A*%
%TO.N,Net-(D15-Pad2)*%
X347941750Y-98647094D03*
%TD*%
D12*
%TO.P,D7,1,K*%
%TO.N,ROW0*%
X183348981Y-114622027D03*
%TO.P,D7,2,A*%
%TO.N,Net-(D7-Pad2)*%
X183922019Y-111372161D03*
%TD*%
D22*
%TO.P,D16,1,K*%
%TO.N,ROW0*%
X366198000Y-102740844D03*
%TO.P,D16,2,A*%
%TO.N,Net-(D16-Pad2)*%
X366198000Y-99440844D03*
%TD*%
%TO.P,D67,1,K*%
%TO.N,ROW4*%
X363722855Y-183395817D03*
%TO.P,D67,2,A*%
%TO.N,Net-(D67-Pad2)*%
X363722855Y-180095817D03*
%TD*%
D12*
%TO.P,D62,1,K*%
%TO.N,ROW4*%
X165886481Y-186059527D03*
%TO.P,D62,2,A*%
%TO.N,Net-(D62-Pad2)*%
X166459519Y-182809661D03*
%TD*%
D30*
%TO.P,C6,2*%
%TO.N,GND*%
X176179640Y-124732321D03*
%TO.P,C6,1*%
%TO.N,+5V*%
X178254640Y-124732321D03*
%TD*%
D31*
%TO.P,R2,1*%
%TO.N,Net-(J1-PadA5)*%
X209504640Y-89444821D03*
%TO.P,R2,2*%
%TO.N,GND*%
X207504640Y-89444821D03*
%TD*%
D32*
%TO.P,C8,1*%
%TO.N,+5V*%
X174267140Y-130244821D03*
%TO.P,C8,2*%
%TO.N,GND*%
X174267140Y-132319821D03*
%TD*%
D33*
%TO.P,F1,1*%
%TO.N,+5V*%
X206917140Y-96488571D03*
%TO.P,F1,2*%
%TO.N,VCC*%
X206917140Y-93513571D03*
%TD*%
D12*
%TO.P,D51,1,K*%
%TO.N,ROW3*%
X162224775Y-168798042D03*
%TO.P,D51,2,A*%
%TO.N,Net-(D51-Pad2)*%
X162797813Y-165548176D03*
%TD*%
D22*
%TO.P,D45,1,K*%
%TO.N,ROW 2*%
X366198000Y-140702181D03*
%TO.P,D45,2,A*%
%TO.N,Net-(D45-Pad2)*%
X366198000Y-137402181D03*
%TD*%
D30*
%TO.P,C3,1*%
%TO.N,+5V*%
X198927405Y-132960261D03*
%TO.P,C3,2*%
%TO.N,GND*%
X196852405Y-132960261D03*
%TD*%
D22*
%TO.P,D1,1,K*%
%TO.N,ROW0*%
X69335500Y-101153344D03*
%TO.P,D1,2,A*%
%TO.N,Net-(D1-Pad2)*%
X69335500Y-97853344D03*
%TD*%
D12*
%TO.P,D34,1,K*%
%TO.N,ROW 2*%
X115880231Y-140815777D03*
%TO.P,D34,2,A*%
%TO.N,Net-(D34-Pad2)*%
X116453269Y-137565911D03*
%TD*%
D22*
%TO.P,D60,1,K*%
%TO.N,ROW4*%
X63817827Y-177208496D03*
%TO.P,D60,2,A*%
%TO.N,Net-(D60-Pad2)*%
X63817827Y-173908496D03*
%TD*%
D12*
%TO.P,D19,1,K*%
%TO.N,ROW1*%
X114292731Y-121765777D03*
%TO.P,D19,2,A*%
%TO.N,Net-(D19-Pad2)*%
X114865769Y-118515911D03*
%TD*%
%TO.P,D6,1,K*%
%TO.N,ROW0*%
X165092731Y-111447027D03*
%TO.P,D6,2,A*%
%TO.N,Net-(D6-Pad2)*%
X165665769Y-108197161D03*
%TD*%
D34*
%TO.P,R6,2*%
%TO.N,GND*%
X175267140Y-140832321D03*
%TO.P,R6,1*%
%TO.N,Net-(R6-Pad1)*%
X175267140Y-142832321D03*
%TD*%
D28*
%TO.P,C5,1*%
%TO.N,XTAL2*%
X201543196Y-136256243D03*
%TO.P,C5,2*%
%TO.N,GND*%
X203618196Y-136256243D03*
%TD*%
D22*
%TO.P,D46,1,K*%
%TO.N,ROW3*%
X70923000Y-157509594D03*
%TO.P,D46,2,A*%
%TO.N,Net-(D46-Pad2)*%
X70923000Y-154209594D03*
%TD*%
D35*
%TO.P,R3,1*%
%TO.N,+5V*%
X210590788Y-136317129D03*
%TO.P,R3,2*%
%TO.N,RESET*%
X210243492Y-134347513D03*
%TD*%
D23*
%TO.P,D55,1,K*%
%TO.N,ROW3*%
X266909597Y-159014928D03*
%TO.P,D55,2,A*%
%TO.N,Net-(D55-Pad2)*%
X266336559Y-155765062D03*
%TD*%
D12*
%TO.P,D35,1,K*%
%TO.N,ROW 2*%
X134930231Y-143990777D03*
%TO.P,D35,2,A*%
%TO.N,Net-(D35-Pad2)*%
X135503269Y-140740911D03*
%TD*%
D36*
%TO.P,C7,1*%
%TO.N,+5V*%
X173217140Y-142919821D03*
%TO.P,C7,2*%
%TO.N,GND*%
X173217140Y-140844821D03*
%TD*%
D37*
%TO.P,U1,45,GND*%
%TO.N,GND*%
X183862499Y-135688750D03*
D38*
%TO.P,U1,44,AVCC*%
%TO.N,+5V*%
X180524999Y-133188750D03*
%TO.P,U1,43,GND*%
%TO.N,GND*%
X180524999Y-133688750D03*
%TO.P,U1,42,AREF*%
%TO.N,unconnected-(U1-Pad42)*%
X180524999Y-134188750D03*
%TO.P,U1,41,PF0*%
%TO.N,COL0*%
X180524999Y-134688750D03*
%TO.P,U1,40,PF1*%
%TO.N,COL1*%
X180524999Y-135188750D03*
%TO.P,U1,39,PF4*%
%TO.N,COL2*%
X180524999Y-135688750D03*
%TO.P,U1,38,PF5*%
%TO.N,COL3*%
X180524999Y-136188750D03*
%TO.P,U1,37,PF6*%
%TO.N,COL4*%
X180524999Y-136688750D03*
%TO.P,U1,36,PF7*%
%TO.N,COL5*%
X180524999Y-137188750D03*
%TO.P,U1,35,GND*%
%TO.N,GND*%
X180524999Y-137688750D03*
%TO.P,U1,34,VCC*%
%TO.N,+5V*%
X180524999Y-138188750D03*
D39*
%TO.P,U1,33,~{HWB}/PE2*%
%TO.N,Net-(R6-Pad1)*%
X181362499Y-139026250D03*
%TO.P,U1,32,PC7*%
%TO.N,COL6*%
X181862499Y-139026250D03*
%TO.P,U1,31,PC6*%
%TO.N,ROW 2*%
X182362499Y-139026250D03*
%TO.P,U1,30,PB6*%
%TO.N,ROW3*%
X182862499Y-139026250D03*
%TO.P,U1,29,PB5*%
%TO.N,ROW4*%
X183362499Y-139026250D03*
%TO.P,U1,28,PB4*%
%TO.N,COL7*%
X183862499Y-139026250D03*
%TO.P,U1,27,PD7*%
%TO.N,COL8*%
X184362499Y-139026250D03*
%TO.P,U1,26,PD6*%
%TO.N,COL9*%
X184862499Y-139026250D03*
%TO.P,U1,25,PD4*%
%TO.N,COL10*%
X185362499Y-139026250D03*
%TO.P,U1,24,AVCC*%
%TO.N,+5V*%
X185862499Y-139026250D03*
%TO.P,U1,23,GND*%
%TO.N,GND*%
X186362499Y-139026250D03*
D38*
%TO.P,U1,22,PD5*%
%TO.N,COL11*%
X187199999Y-138188750D03*
%TO.P,U1,21,PD3*%
%TO.N,COL12*%
X187199999Y-137688750D03*
%TO.P,U1,20,PD2*%
%TO.N,COL13*%
X187199999Y-137188750D03*
%TO.P,U1,19,PD1*%
%TO.N,COL14*%
X187199999Y-136688750D03*
%TO.P,U1,18,PD0*%
%TO.N,COL15*%
X187199999Y-136188750D03*
%TO.P,U1,17,XTAL1*%
%TO.N,XTAL1*%
X187199999Y-135688750D03*
%TO.P,U1,16,XTAL2*%
%TO.N,XTAL2*%
X187199999Y-135188750D03*
%TO.P,U1,15,GND*%
%TO.N,GND*%
X187199999Y-134688750D03*
%TO.P,U1,14,VCC*%
%TO.N,+5V*%
X187199999Y-134188750D03*
%TO.P,U1,13,~{RESET}*%
%TO.N,RESET*%
X187199999Y-133688750D03*
%TO.P,U1,12,PB7*%
%TO.N,unconnected-(U1-Pad12)*%
X187199999Y-133188750D03*
D39*
%TO.P,U1,11,PB3*%
%TO.N,MISO*%
X186362499Y-132351250D03*
%TO.P,U1,10,PB2*%
%TO.N,MOSI*%
X185862499Y-132351250D03*
%TO.P,U1,9,PB1*%
%TO.N,SCK*%
X185362499Y-132351250D03*
%TO.P,U1,8,PB0*%
%TO.N,ROW1*%
X184862499Y-132351250D03*
%TO.P,U1,7,VBUS*%
%TO.N,+5V*%
X184362499Y-132351250D03*
%TO.P,U1,6,UCAP*%
%TO.N,Net-(C1-Pad1)*%
X183862499Y-132351250D03*
%TO.P,U1,5,UGND*%
%TO.N,GND*%
X183362499Y-132351250D03*
%TO.P,U1,4,D+*%
%TO.N,D+*%
X182862499Y-132351250D03*
%TO.P,U1,3,D-*%
%TO.N,D-*%
X182362499Y-132351250D03*
%TO.P,U1,2,UVCC*%
%TO.N,+5V*%
X181862499Y-132351250D03*
%TO.P,U1,1,PE6*%
%TO.N,ROW0*%
X181362499Y-132351250D03*
%TD*%
D22*
%TO.P,D29,1,K*%
%TO.N,ROW1*%
X323324009Y-120997094D03*
%TO.P,D29,2,A*%
%TO.N,Net-(D29-Pad2)*%
X323324009Y-117697094D03*
%TD*%
%TO.P,D30,1,K*%
%TO.N,ROW1*%
X347148000Y-120997094D03*
%TO.P,D30,2,A*%
%TO.N,Net-(D30-Pad2)*%
X347148000Y-117697094D03*
%TD*%
D12*
%TO.P,D20,1,K*%
%TO.N,ROW1*%
X133342731Y-124940777D03*
%TO.P,D20,2,A*%
%TO.N,Net-(D20-Pad2)*%
X133915769Y-121690911D03*
%TD*%
D23*
%TO.P,D8,1,K*%
%TO.N,ROW0*%
X214878269Y-110653277D03*
%TO.P,D8,2,A*%
%TO.N,Net-(D8-Pad2)*%
X214305231Y-107403411D03*
%TD*%
D30*
%TO.P,C1,2*%
%TO.N,GND*%
X184079640Y-126132321D03*
%TO.P,C1,1*%
%TO.N,Net-(C1-Pad1)*%
X186154640Y-126132321D03*
%TD*%
D40*
%TO.N,SCK*%
X236417140Y-124482321D03*
%TO.N,GND*%
X233267140Y-129432321D03*
%TO.N,MOSI*%
X235567140Y-132932321D03*
X230517140Y-132932321D03*
%TO.N,COL3*%
X111539364Y-163155712D03*
%TO.N,+5V*%
X178245772Y-122893927D03*
%TO.N,GND*%
X222749112Y-97279188D03*
X225465105Y-134791262D03*
%TO.N,MISO*%
X214277248Y-131238062D03*
X211889326Y-131111376D03*
%TO.N,GND*%
X199139800Y-101452937D03*
X204197995Y-91004766D03*
X215189838Y-91907321D03*
%TO.N,MOSI*%
X216949504Y-128401838D03*
X214884273Y-128498646D03*
X206540203Y-124689278D03*
%TO.N,SCK*%
X213737584Y-128150848D03*
X206484976Y-123662637D03*
%TO.N,ROW1*%
X188505960Y-120085876D03*
%TO.N,+5V*%
X186661275Y-120911126D03*
%TO.N,ROW1*%
X210359504Y-125556210D03*
X180350921Y-118901579D03*
X175316923Y-115061542D03*
X163870510Y-131139726D03*
%TO.N,ROW0*%
X212391279Y-112008220D03*
X185562195Y-114613854D03*
%TO.N,ROW 2*%
X181457998Y-151643199D03*
%TO.N,ROW3*%
X172817140Y-170332321D03*
X182667140Y-169432321D03*
%TO.N,ROW 2*%
X175017140Y-151732321D03*
X193017140Y-151632321D03*
X212017140Y-149775392D03*
X198367140Y-151582321D03*
%TO.N,+5V*%
X174467139Y-128632331D03*
X172892140Y-145107321D03*
X189517140Y-146782321D03*
%TO.N,VCC*%
X206917140Y-93513571D03*
%TO.N,+5V*%
X195867140Y-141082321D03*
X186917140Y-109382321D03*
%TO.N,VCC*%
X209267140Y-86582321D03*
X216417140Y-87582321D03*
%TO.N,COL11*%
X273337176Y-109141370D03*
%TO.N,COL10*%
X251949250Y-112087436D03*
%TO.N,COL9*%
X233482242Y-115960690D03*
%TO.N,COL8*%
X214722242Y-119763906D03*
%TO.N,COL7*%
X204724250Y-120903997D03*
X203199250Y-113788913D03*
%TO.N,COL8*%
X221799250Y-110726543D03*
%TO.N,COL9*%
X240599250Y-107464172D03*
%TO.N,COL10*%
X259415991Y-104402879D03*
%TO.N,COL11*%
X279824250Y-101347393D03*
%TO.N,COL12*%
X298949250Y-102769819D03*
%TO.N,COL8*%
X205149250Y-178384290D03*
%TO.N,COL10*%
X257746381Y-168866569D03*
X255224250Y-162417856D03*
%TO.N,COL8*%
X217674250Y-169763866D03*
%TO.N,COL6*%
X167685625Y-172048505D03*
X171258633Y-177994917D03*
%TO.N,COL4*%
X129249250Y-170761469D03*
X130165125Y-165850187D03*
%TO.N,COL6*%
X165374250Y-112963630D03*
%TO.N,COL5*%
X154158374Y-111185766D03*
%TO.N,COL4*%
X135398375Y-107938156D03*
%TO.N,COL6*%
X160231125Y-119330608D03*
%TO.N,COL5*%
X141470625Y-115801144D03*
%TO.N,COL4*%
X122710374Y-112707065D03*
%TO.N,COL3*%
X103949474Y-108911779D03*
%TO.N,COL2*%
X82456176Y-109058988D03*
%TO.N,COL1*%
X77474250Y-109684569D03*
X77199250Y-101894312D03*
%TO.N,COL2*%
X96449250Y-102014215D03*
%TO.N,COL3*%
X116699250Y-104743489D03*
%TO.N,COL7*%
X197199250Y-157066323D03*
%TO.N,COL8*%
X215824250Y-155861664D03*
%TO.N,COL9*%
X234524250Y-151820906D03*
%TO.N,COL10*%
X253249250Y-148140087D03*
%TO.N,COL11*%
X273974250Y-144693248D03*
%TO.N,COL12*%
X292999250Y-145362934D03*
%TO.N,COL5*%
X142853124Y-150871875D03*
%TO.N,COL4*%
X124092125Y-148122874D03*
%TO.N,COL13*%
X312149250Y-145255749D03*
%TO.N,COL14*%
X351822676Y-151112323D03*
%TO.N,ROW 2*%
X144160657Y-145725401D03*
X160888874Y-148907500D03*
%TO.N,COL15*%
X371599250Y-148016075D03*
%TO.N,COL1*%
X59111615Y-141083710D03*
%TO.N,COL2*%
X84799250Y-141136075D03*
%TO.N,COL3*%
X105357499Y-144647500D03*
%TD*%
D41*
%TO.N,SCK*%
X218244493Y-128672213D02*
X225383248Y-127366213D01*
X214211105Y-127677327D02*
X217249607Y-127677327D01*
X225383248Y-127366213D02*
X228267140Y-124482321D01*
X228267140Y-124482321D02*
X236417140Y-124482321D01*
X213737584Y-128150848D02*
X214211105Y-127677327D01*
X217249607Y-127677327D02*
X218244493Y-128672213D01*
D42*
%TO.N,GND*%
X233317140Y-129382321D02*
X239744640Y-129382321D01*
X233267140Y-129432321D02*
X233317140Y-129382321D01*
X239744640Y-129382321D02*
X241014640Y-130652321D01*
D41*
%TO.N,MOSI*%
X230517140Y-132932321D02*
X235567140Y-132932321D01*
D42*
%TO.N,+5V*%
X236617140Y-131334821D02*
X235934640Y-130652321D01*
X227319637Y-134496411D02*
X235903050Y-134496411D01*
X236617140Y-133782321D02*
X236617140Y-131334821D01*
X212818907Y-138545248D02*
X223270800Y-138545248D01*
X223270800Y-138545248D02*
X227319637Y-134496411D01*
X235903050Y-134496411D02*
X236617140Y-133782321D01*
X210590788Y-136317129D02*
X212818907Y-138545248D01*
D41*
%TO.N,MISO*%
X228764813Y-128118514D02*
X234831046Y-127008727D01*
X228530945Y-128352382D02*
X228764813Y-128118514D01*
X227486456Y-128352382D02*
X228530945Y-128352382D01*
X225604071Y-128696755D02*
X227486456Y-128352382D01*
X234831046Y-127008727D02*
X235934640Y-128112321D01*
%TO.N,RESET*%
X238739105Y-125836786D02*
X241014640Y-128112321D01*
X231047922Y-127243850D02*
X238739105Y-125836786D01*
%TO.N,Net-(D19-Pad2)*%
X114967140Y-113336043D02*
G75*
G03*
X112967140Y-111336043I-1999999J1D01*
G01*
%TO.N,Net-(D7-Pad2)*%
X181967140Y-104153443D02*
G75*
G02*
X183967140Y-106153443I1J-1999999D01*
G01*
%TO.N,Net-(D5-Pad2)*%
X144967140Y-97537543D02*
G75*
G02*
X146967140Y-99537543I1J-1999999D01*
G01*
%TO.N,Net-(D22-Pad2)*%
X171417140Y-123260043D02*
G75*
G03*
X169417140Y-121260043I-1999999J1D01*
G01*
%TO.N,Net-(D21-Pad2)*%
X150767140Y-117952018D02*
G75*
G02*
X152767140Y-119952018I1J-1999999D01*
G01*
%TO.N,Net-(D3-Pad2)*%
X107467140Y-91690700D02*
G75*
G03*
X105467140Y-89690700I-1999999J1D01*
G01*
%TO.N,Net-(D20-Pad2)*%
X134367140Y-116643691D02*
G75*
G03*
X132367140Y-114643691I-1999999J1D01*
G01*
%TO.N,Net-(D6-Pad2)*%
X165617140Y-102845518D02*
G75*
G03*
X163617140Y-100845518I-1999999J1D01*
G01*
%TO.N,Net-(D17-Pad2)*%
X70923000Y-112328350D02*
G75*
G03*
X68923000Y-110328350I-1999999J1D01*
G01*
%TO.N,Net-(D18-Pad2)*%
X92735500Y-110328350D02*
G75*
G02*
X94735500Y-112328350I1J-1999999D01*
G01*
%TO.N,Net-(D2-Pad2)*%
X88385500Y-93278200D02*
G75*
G03*
X86385500Y-91278200I-1999999J1D01*
G01*
%TO.N,Net-(D1-Pad2)*%
X67217140Y-91132321D02*
G75*
G02*
X69217140Y-93132321I1J-1999999D01*
G01*
%TO.N,Net-(D4-Pad2)*%
X125565769Y-94182321D02*
G75*
G02*
X127565769Y-96182321I1J-1999999D01*
G01*
%TO.N,Net-(D35-Pad2)*%
X135503269Y-136231843D02*
G75*
G03*
X133503269Y-134231843I-1999999J1D01*
G01*
%TO.N,Net-(D33-Pad2)*%
X94323000Y-129378350D02*
G75*
G02*
X96323000Y-131378350I1J-1999999D01*
G01*
%TO.N,Net-(D34-Pad2)*%
X116453269Y-132923143D02*
G75*
G03*
X114453269Y-130923143I-1999999J1D01*
G01*
%TO.N,Net-(D36-Pad2)*%
X137980218Y-140547671D02*
G75*
G02*
X138566004Y-139133459I1999999J0D01*
G01*
X140674530Y-137024931D02*
G75*
G02*
X142088744Y-136439144I1414214J-1414213D01*
G01*
X147619294Y-136439145D02*
G75*
G02*
X149033506Y-137024931I0J-1999999D01*
G01*
X137980217Y-140547671D02*
X137980217Y-141126753D01*
X140674530Y-137024931D02*
X138566003Y-139133458D01*
X147619294Y-136439144D02*
X142088744Y-136439144D01*
X149547720Y-137539143D02*
X149033507Y-137024930D01*
%TO.N,Net-(D35-Pad2)*%
X135503269Y-136231843D02*
X135503269Y-140740911D01*
X130786721Y-134231843D02*
X133503269Y-134231843D01*
%TO.N,Net-(D34-Pad2)*%
X116453269Y-132923143D02*
X116453269Y-137565911D01*
X112026170Y-130923143D02*
X114453269Y-130923143D01*
%TO.N,Net-(D33-Pad2)*%
X96323000Y-131378350D02*
X96323000Y-135159594D01*
X90521026Y-129378350D02*
X94323000Y-129378350D01*
%TO.N,Net-(D32-Pad2)*%
X70117140Y-131382321D02*
G75*
G03*
X68117140Y-129382321I-1999999J1D01*
G01*
X68117140Y-129382321D02*
X64330099Y-129382321D01*
X64330099Y-129382321D02*
X64326469Y-129378691D01*
X70117140Y-135159594D02*
X70117140Y-131382321D01*
X70129250Y-135159594D02*
X70117140Y-135159594D01*
%TO.N,Net-(D47-Pad2)*%
X99879250Y-148732321D02*
G75*
G02*
X101879250Y-150732321I1J-1999999D01*
G01*
X96659849Y-148732321D02*
X99879250Y-148732321D01*
X96426519Y-148498991D02*
X96659849Y-148732321D01*
X101879250Y-150732321D02*
X101879250Y-155003344D01*
%TO.N,Net-(D60-Pad2)*%
X61817827Y-167549500D02*
G75*
G02*
X63817827Y-169549500I1J-1999999D01*
G01*
%TO.N,Net-(D46-Pad2)*%
X68923000Y-148499046D02*
G75*
G02*
X70923000Y-150499046I1J-1999999D01*
G01*
%TO.N,Net-(D49-Pad2)*%
X139059519Y-154646043D02*
G75*
G02*
X141059519Y-156646043I1J-1999999D01*
G01*
%TO.N,Net-(D61-Pad2)*%
X118834519Y-172871410D02*
G75*
G03*
X116834519Y-170871410I-1999999J1D01*
G01*
%TO.N,Net-(D50-Pad2)*%
X157925853Y-157954043D02*
G75*
G02*
X159925853Y-159954043I1J-1999999D01*
G01*
%TO.N,Net-(D48-Pad2)*%
X120461288Y-151338043D02*
G75*
G02*
X122461288Y-153338043I1J-1999999D01*
G01*
%TO.N,Net-(D60-Pad2)*%
X63817827Y-169549500D02*
X63817827Y-173908496D01*
X58325976Y-167549500D02*
X61817827Y-167549500D01*
%TO.N,Net-(D61-Pad2)*%
X118834519Y-172871410D02*
X118834519Y-175665911D01*
X113587588Y-170871410D02*
X116834519Y-170871410D01*
%TO.N,Net-(D50-Pad2)*%
X159925853Y-159954043D02*
X159925853Y-164935061D01*
X155619470Y-157954043D02*
X157925853Y-157954043D01*
%TO.N,Net-(D49-Pad2)*%
X136859721Y-154646043D02*
X139059519Y-154646043D01*
X141059519Y-156646043D02*
X141059519Y-162172161D01*
%TO.N,Net-(D48-Pad2)*%
X122461288Y-153338043D02*
X122461288Y-158997161D01*
X118097971Y-151338043D02*
X120461288Y-151338043D01*
%TO.N,Net-(D46-Pad2)*%
X70923000Y-150499046D02*
X70923000Y-154209594D01*
X65461615Y-148499046D02*
X68923000Y-148499046D01*
%TO.N,Net-(D17-Pad2)*%
X70923000Y-112328350D02*
X70923000Y-116109594D01*
X64993676Y-110328350D02*
X68923000Y-110328350D01*
%TO.N,Net-(D18-Pad2)*%
X94735500Y-112328350D02*
X94735500Y-116109594D01*
X88806176Y-110328350D02*
X92735500Y-110328350D01*
%TO.N,Net-(D19-Pad2)*%
X114967140Y-113336043D02*
X114967140Y-118414540D01*
X114967140Y-118414540D02*
X114865769Y-118515911D01*
X110644070Y-111336043D02*
X112967140Y-111336043D01*
%TO.N,Net-(D20-Pad2)*%
X134367140Y-121239540D02*
X133915769Y-121690911D01*
X134367140Y-116643691D02*
X134367140Y-121239540D01*
X129404970Y-114643691D02*
X132367140Y-114643691D01*
%TO.N,Net-(D21-Pad2)*%
X152767140Y-119952018D02*
X152767140Y-124270790D01*
X152767140Y-124270790D02*
X152172019Y-124865911D01*
X148165221Y-117952018D02*
X150767140Y-117952018D01*
%TO.N,Net-(D22-Pad2)*%
X171417140Y-123260043D02*
X171417140Y-127845790D01*
X171417140Y-127845790D02*
X171222019Y-128040911D01*
X166925721Y-121260043D02*
X169417140Y-121260043D01*
%TO.N,Net-(D7-Pad2)*%
X183967140Y-106153443D02*
X183967140Y-111327040D01*
X183967140Y-111327040D02*
X183922019Y-111372161D01*
X179614970Y-104153443D02*
X181967140Y-104153443D01*
%TO.N,Net-(D6-Pad2)*%
X165617140Y-108148532D02*
X165665769Y-108197161D01*
X165617140Y-102845518D02*
X165617140Y-108148532D01*
X160852970Y-100845518D02*
X163617140Y-100845518D01*
%TO.N,Net-(D5-Pad2)*%
X146967140Y-104670790D02*
X146615769Y-105022161D01*
X146967140Y-99537543D02*
X146967140Y-104670790D01*
X142092971Y-97537543D02*
X144967140Y-97537543D01*
%TO.N,Net-(D4-Pad2)*%
X123379593Y-94182321D02*
X125565769Y-94182321D01*
X127565769Y-96182321D02*
X127565769Y-101847161D01*
X123332471Y-94229443D02*
X123379593Y-94182321D01*
%TO.N,Net-(D3-Pad2)*%
X107467140Y-96234204D02*
X107435500Y-96265844D01*
X102140626Y-89690700D02*
X105467140Y-89690700D01*
X107467140Y-91690700D02*
X107467140Y-96234204D01*
%TO.N,Net-(D2-Pad2)*%
X88385500Y-93278200D02*
X88385500Y-97853344D01*
X83090626Y-91278200D02*
X86385500Y-91278200D01*
%TO.N,Net-(D1-Pad2)*%
X69217140Y-97734984D02*
X69335500Y-97853344D01*
X69217140Y-93132321D02*
X69217140Y-97734984D01*
X64186505Y-91132321D02*
X67217140Y-91132321D01*
X64040626Y-91278200D02*
X64186505Y-91132321D01*
%TO.N,Net-(D43-Pad2)*%
X312184238Y-130710950D02*
X312184238Y-136821335D01*
X306737676Y-130710950D02*
X312184238Y-130710950D01*
%TO.N,ROW0*%
X177445370Y-127371629D02*
G75*
G02*
X177152477Y-126664522I707106J707106D01*
G01*
%TO.N,+5V*%
X180369606Y-126184787D02*
G75*
G02*
X180662499Y-126891894I-707106J-707106D01*
G01*
X175418182Y-131395863D02*
G75*
G03*
X176125289Y-131688756I707106J707106D01*
G01*
%TO.N,GND*%
X173274247Y-125025214D02*
G75*
G02*
X173981354Y-124732321I707106J-707106D01*
G01*
X173718854Y-132319820D02*
G75*
G02*
X173011748Y-132026927I-3J999993D01*
G01*
X172910033Y-131925214D02*
G75*
G02*
X172617140Y-131218107I707106J707106D01*
G01*
X172910033Y-125389428D02*
G75*
G03*
X172617140Y-126096535I707106J-707106D01*
G01*
%TO.N,SCK*%
X200421371Y-124371086D02*
G75*
G03*
X201128478Y-124663979I707106J707106D01*
G01*
X205069420Y-124663978D02*
G75*
G03*
X205776526Y-124371085I3J999993D01*
G01*
%TO.N,MOSI*%
X200235173Y-124820606D02*
G75*
G03*
X200942280Y-125113499I707106J707106D01*
G01*
%TO.N,SCK*%
X199200081Y-123149796D02*
G75*
G03*
X198492974Y-122856903I-707106J-707106D01*
G01*
%TO.N,MOSI*%
X198306776Y-123306424D02*
G75*
G02*
X199013882Y-123599317I3J-999993D01*
G01*
%TO.N,SCK*%
X188243146Y-124180034D02*
G75*
G03*
X188096700Y-124533587I353556J-353553D01*
G01*
X189419830Y-123003350D02*
G75*
G02*
X189773384Y-122856903I353553J-353550D01*
G01*
X186408943Y-128642310D02*
G75*
G03*
X186262497Y-128995863I353556J-353553D01*
G01*
X186949663Y-128211880D02*
G75*
G03*
X187303216Y-128065435I0J500001D01*
G01*
X188096700Y-127064844D02*
G75*
G02*
X187950253Y-127418398I-499997J-1D01*
G01*
%TO.N,MOSI*%
X188399773Y-127604596D02*
G75*
G03*
X188546220Y-127251042I-353550J353553D01*
G01*
X188546221Y-124719785D02*
G75*
G02*
X188692666Y-124366232I500001J0D01*
G01*
X189959582Y-123306423D02*
G75*
G03*
X189606028Y-123452870I-1J-499997D01*
G01*
%TO.N,ROW1*%
X187117019Y-127615914D02*
G75*
G02*
X186763465Y-127762361I-353553J353550D01*
G01*
X186474216Y-127762362D02*
G75*
G03*
X186120663Y-127908807I0J-500001D01*
G01*
X187500733Y-123991447D02*
G75*
G02*
X187647180Y-124345001I-353550J-353553D01*
G01*
X187500734Y-127232199D02*
G75*
G03*
X187647180Y-126878646I-353556J353553D01*
G01*
X185608944Y-128420526D02*
G75*
G03*
X185462497Y-128774080I353550J-353553D01*
G01*
X187368809Y-121223027D02*
G75*
G03*
X187222362Y-121576581I353550J-353553D01*
G01*
X187368808Y-123859522D02*
G75*
G02*
X187222362Y-123505969I353556J353553D01*
G01*
%TO.N,+5V*%
X177962499Y-140379855D02*
G75*
G02*
X177816052Y-140733409I-499997J-1D01*
G01*
X176863586Y-141685875D02*
G75*
G02*
X176510033Y-141832321I-353553J353556D01*
G01*
%TO.N,Net-(R6-Pad1)*%
X175267140Y-143825214D02*
G75*
G03*
X175413587Y-144178768I499997J-1D01*
G01*
X178813587Y-144835874D02*
G75*
G02*
X178460033Y-144982321I-353553J353550D01*
G01*
X176070694Y-144835875D02*
G75*
G03*
X176424247Y-144982321I353553J353556D01*
G01*
X179716051Y-143933410D02*
G75*
G03*
X179862497Y-143579857I-353556J353553D01*
G01*
%TO.N,ROW3*%
X178295942Y-168212255D02*
G75*
G02*
X176881728Y-168798042I-1414214J1414213D01*
G01*
X180462590Y-166045607D02*
G75*
G03*
X181048376Y-164631394I-1414214J1414213D01*
G01*
%TO.N,ROW4*%
X177980625Y-172397541D02*
G75*
G03*
X178566411Y-173811753I1999999J0D01*
G01*
X182985904Y-177402820D02*
G75*
G02*
X181571691Y-176817033I0J1999999D01*
G01*
X177980625Y-169991718D02*
G75*
G02*
X178566412Y-168577505I1999999J0D01*
G01*
X182476711Y-164667204D02*
G75*
G03*
X183062497Y-163252991I-1414214J1414213D01*
G01*
X184503065Y-177402821D02*
G75*
G02*
X186503065Y-179402821I1J-1999999D01*
G01*
%TO.N,ROW3*%
X181676711Y-153510318D02*
G75*
G03*
X182262497Y-152096105I-1414214J1414213D01*
G01*
X181634163Y-153552866D02*
G75*
G03*
X181048376Y-154967080I1414213J-1414214D01*
G01*
%TO.N,COL3*%
X85367694Y-164777322D02*
G75*
G02*
X84367694Y-163777322I-1J999999D01*
G01*
X85367694Y-161648639D02*
G75*
G03*
X84367694Y-162648639I-1J-999999D01*
G01*
X98023031Y-164777322D02*
X105271121Y-166076991D01*
X105271121Y-166076991D02*
X106892992Y-167439846D01*
X85367694Y-164777322D02*
X98023031Y-164777322D01*
X84367694Y-162648639D02*
X84367694Y-163777322D01*
X110798727Y-163896349D02*
X98565104Y-161648639D01*
X98565104Y-161648639D02*
X85367694Y-161648639D01*
X111539364Y-163155712D02*
X110798727Y-163896349D01*
X106892992Y-167439846D02*
X106892992Y-172270156D01*
X102949474Y-106885844D02*
X102949474Y-106885364D01*
X72199250Y-106885844D02*
X102949474Y-106885844D01*
%TO.N,Net-(D15-Pad2)*%
X347941750Y-92612229D02*
X347941750Y-98647094D01*
X342743179Y-92612229D02*
X347941750Y-92612229D01*
D42*
%TO.N,+5V*%
X178245772Y-122893927D02*
X178254640Y-124732321D01*
D41*
X175418182Y-131395863D02*
X174267140Y-130244821D01*
X177962497Y-131688756D02*
X176125289Y-131688756D01*
D42*
%TO.N,GND*%
X217442140Y-97279188D02*
X222749112Y-97279188D01*
X217442140Y-89444821D02*
X217442140Y-97279188D01*
D41*
X220703792Y-137301279D02*
X220703792Y-135415905D01*
X221432741Y-138030228D02*
X220703792Y-137301279D01*
X225465105Y-135622596D02*
X223057473Y-138030228D01*
X225465105Y-134791262D02*
X225465105Y-135622596D01*
X223057473Y-138030228D02*
X221432741Y-138030228D01*
%TO.N,MISO*%
X188724566Y-130650825D02*
X187862497Y-129788756D01*
X195075313Y-130650825D02*
X188724566Y-130650825D01*
X195291292Y-130434847D02*
X195075313Y-130650825D01*
X200095636Y-131867781D02*
X198662702Y-130434847D01*
X206973986Y-133932801D02*
X206681686Y-133932801D01*
X209770302Y-131136485D02*
X206973986Y-133932801D01*
X209907549Y-131111376D02*
X209770302Y-131136485D01*
X204616666Y-131867781D02*
X200095636Y-131867781D01*
X198662702Y-130434847D02*
X195291292Y-130434847D01*
X206681686Y-133932801D02*
X204616666Y-131867781D01*
X211889326Y-131111376D02*
X209907549Y-131111376D01*
%TO.N,RESET*%
X213955486Y-132848735D02*
X212871114Y-131764363D01*
X212871114Y-131764363D02*
X212871114Y-130569206D01*
X212871114Y-130569206D02*
X227445679Y-127902862D01*
X227445679Y-127902862D02*
X228344747Y-127902862D01*
X228344747Y-127902862D02*
X228546055Y-127701554D01*
X228546055Y-127701554D02*
X231047922Y-127243850D01*
%TO.N,MISO*%
X214851408Y-130663902D02*
X225604071Y-128696755D01*
X214277248Y-131238062D02*
X214851408Y-130663902D01*
%TO.N,GND*%
X198425693Y-101452937D02*
X199139800Y-101452937D01*
X197488692Y-102389938D02*
X198425693Y-101452937D01*
X197488692Y-114039128D02*
X197488692Y-102389938D01*
X184475832Y-120514483D02*
X187100393Y-117889922D01*
X187100393Y-117889922D02*
X193637898Y-117889922D01*
X193637898Y-117889922D02*
X197488692Y-114039128D01*
X184475832Y-126132321D02*
X184475832Y-120514483D01*
X184079640Y-126132321D02*
X184475832Y-126132321D01*
D42*
%TO.N,+5V*%
X184662497Y-128415312D02*
X184662497Y-129788756D01*
X185830468Y-127247341D02*
X184662497Y-128415312D01*
X186757244Y-127247341D02*
X185830468Y-127247341D01*
X187132160Y-126872425D02*
X186757244Y-127247341D01*
X187132160Y-124351222D02*
X187132160Y-126872425D01*
X186707342Y-123926404D02*
X187132160Y-124351222D01*
X186707342Y-120957193D02*
X186707342Y-123926404D01*
X186661275Y-120911126D02*
X186707342Y-120957193D01*
%TO.N,GND*%
X207504640Y-89641292D02*
X207504640Y-89444821D01*
X205561469Y-89641292D02*
X207504640Y-89641292D01*
X204197995Y-91004766D02*
X205561469Y-89641292D01*
X215189838Y-91907321D02*
X213417140Y-91907321D01*
D41*
X215842499Y-84315000D02*
X216757499Y-83400000D01*
X215687499Y-84315000D02*
X215842499Y-84315000D01*
D42*
X209187499Y-84315000D02*
X209032499Y-84315000D01*
X209032499Y-84315000D02*
X208117499Y-83400000D01*
D41*
%TO.N,MOSI*%
X216852696Y-128498646D02*
X216949504Y-128401838D01*
X214884273Y-128498646D02*
X216852696Y-128498646D01*
X188399773Y-127604596D02*
X187062497Y-128941872D01*
X187062497Y-128941872D02*
X187062497Y-129788756D01*
X188546220Y-124719785D02*
X188546220Y-127251042D01*
X189606028Y-123452870D02*
X188692666Y-124366232D01*
X200235173Y-124820606D02*
X199013883Y-123599316D01*
X206115982Y-125113499D02*
X200942280Y-125113499D01*
X198306776Y-123306423D02*
X189959582Y-123306423D01*
X206540203Y-124689278D02*
X206115982Y-125113499D01*
%TO.N,SCK*%
X186262497Y-128995863D02*
X186262497Y-129788756D01*
X186839372Y-128211881D02*
X186408943Y-128642310D01*
X187950253Y-127418398D02*
X187303216Y-128065435D01*
X186949663Y-128211881D02*
X186839372Y-128211881D01*
X188096700Y-124533587D02*
X188096700Y-127064844D01*
X189419830Y-123003350D02*
X188243146Y-124180034D01*
X200421371Y-124371086D02*
X199200081Y-123149796D01*
X205069420Y-124663979D02*
X201128478Y-124663979D01*
X198492974Y-122856903D02*
X189773384Y-122856903D01*
X206484976Y-123662637D02*
X205776527Y-124371086D01*
%TO.N,ROW1*%
X187368809Y-121223027D02*
X188505960Y-120085876D01*
X187222362Y-123505969D02*
X187222362Y-121576581D01*
X187500733Y-123991447D02*
X187368808Y-123859522D01*
X187117019Y-127615914D02*
X187500734Y-127232199D01*
X185608944Y-128420526D02*
X186120663Y-127908807D01*
X187647180Y-126878646D02*
X187647180Y-124345001D01*
X185462497Y-129788756D02*
X185462497Y-128774080D01*
X186474216Y-127762361D02*
X186763465Y-127762361D01*
%TO.N,GND*%
X188173381Y-143024317D02*
X187862499Y-142713435D01*
X189559136Y-143024317D02*
X188173381Y-143024317D01*
X187862499Y-142713435D02*
X187862499Y-141588750D01*
X190352374Y-144486581D02*
X190352374Y-143817555D01*
X190352374Y-143817555D02*
X189559136Y-143024317D01*
%TO.N,ROW0*%
X185554022Y-114622027D02*
X183348981Y-114622027D01*
X185562195Y-114613854D02*
X185554022Y-114622027D01*
X177152477Y-119361815D02*
X170764864Y-112974202D01*
X177152477Y-126664522D02*
X177152477Y-119361815D01*
X179862497Y-129788756D02*
X177445370Y-127371629D01*
X170764864Y-112974202D02*
X182963672Y-115007336D01*
X165790914Y-112145210D02*
X170764864Y-112974202D01*
%TO.N,ROW1*%
X177735322Y-117479941D02*
X175316923Y-115061542D01*
X178929283Y-117479941D02*
X177735322Y-117479941D01*
X180350921Y-118901579D02*
X178929283Y-117479941D01*
X209233319Y-130454729D02*
X208624063Y-130454729D01*
X210359504Y-129328544D02*
X209233319Y-130454729D01*
X210359504Y-125556210D02*
X210359504Y-129328544D01*
X163870510Y-131139726D02*
X169556293Y-132087357D01*
%TO.N,ROW0*%
X213746222Y-110653277D02*
X214878269Y-110653277D01*
X212391279Y-112008220D02*
X213746222Y-110653277D01*
%TO.N,ROW4*%
X183062497Y-163252991D02*
X183062497Y-141588756D01*
X178566411Y-168577504D02*
X182476711Y-164667204D01*
X181571690Y-176817034D02*
X178566410Y-173811754D01*
X184503065Y-177402821D02*
X182985904Y-177402821D01*
X177980624Y-172397541D02*
X177980624Y-169991718D01*
X186503065Y-187667943D02*
X186503065Y-179402821D01*
X184936481Y-189234527D02*
X186503065Y-187667943D01*
%TO.N,ROW3*%
X182262497Y-152096105D02*
X182262497Y-141588756D01*
X181634163Y-153552866D02*
X181676711Y-153510318D01*
X178295942Y-168212255D02*
X180462590Y-166045607D01*
X181048376Y-164631394D02*
X181048376Y-154967080D01*
X170582861Y-168798042D02*
X176881728Y-168798042D01*
%TO.N,ROW 2*%
X181462497Y-151638700D02*
X181462497Y-141588756D01*
X181457998Y-151643199D02*
X181462497Y-151638700D01*
%TO.N,ROW3*%
X182262499Y-140736962D02*
X182262499Y-141588756D01*
X182262499Y-141588756D02*
X182262497Y-141588756D01*
%TO.N,Net-(R6-Pad1)*%
X176424247Y-144982321D02*
X178460033Y-144982321D01*
X178813587Y-144835874D02*
X179716051Y-143933410D01*
X179862497Y-143579857D02*
X179862497Y-141588756D01*
X175413587Y-144178768D02*
X176070694Y-144835875D01*
X175267140Y-142832321D02*
X175267140Y-143825214D01*
X181159506Y-139932801D02*
X181362499Y-139729808D01*
X179862497Y-140753039D02*
X180682735Y-139932801D01*
X181362499Y-139729808D02*
X181362499Y-139026250D01*
X179862497Y-141588756D02*
X179862497Y-140753039D01*
X180682735Y-139932801D02*
X181159506Y-139932801D01*
%TO.N,COL6*%
X180662497Y-140588756D02*
X180662497Y-141588756D01*
X180868932Y-140382321D02*
X180662497Y-140588756D01*
X181862499Y-139865526D02*
X181345704Y-140382321D01*
X181345704Y-140382321D02*
X180868932Y-140382321D01*
X181862499Y-139026250D02*
X181862499Y-139865526D01*
%TO.N,ROW 2*%
X182362499Y-140001244D02*
X181462497Y-140901246D01*
X181462497Y-140901246D02*
X181462497Y-141588756D01*
X182362499Y-139026250D02*
X182362499Y-140001244D01*
%TO.N,ROW3*%
X182867140Y-140132321D02*
X182262499Y-140736962D01*
X182862499Y-139026250D02*
X182862499Y-140127680D01*
X182862499Y-140127680D02*
X182867140Y-140132321D01*
%TO.N,ROW4*%
X183362499Y-140514245D02*
X183362499Y-139026250D01*
X183062499Y-140814245D02*
X183362499Y-140514245D01*
X185119346Y-189234527D02*
X184936481Y-189234527D01*
X202167140Y-192382321D02*
X188267140Y-192382321D01*
X205353269Y-186853277D02*
X205353269Y-189196192D01*
X205353269Y-189196192D02*
X202167140Y-192382321D01*
X188267140Y-192382321D02*
X185119346Y-189234527D01*
%TO.N,ROW3*%
X172817140Y-170332321D02*
X172117140Y-170332321D01*
X172117140Y-170332321D02*
X170582861Y-168798042D01*
X162224775Y-168798042D02*
X170582861Y-168798042D01*
X182708684Y-169390777D02*
X182667140Y-169432321D01*
X210909519Y-169390777D02*
X182708684Y-169390777D01*
%TO.N,ROW 2*%
X173679078Y-151144259D02*
X172010377Y-151144259D01*
X174267140Y-151732321D02*
X173679078Y-151144259D01*
X175017140Y-151732321D02*
X174267140Y-151732321D01*
X198367140Y-151582321D02*
X193017140Y-151582321D01*
X193017140Y-151582321D02*
X193017140Y-151632321D01*
X212671314Y-149121218D02*
X212017140Y-149775392D01*
X216870831Y-149121218D02*
X212671314Y-149121218D01*
%TO.N,RESET*%
X199909438Y-132317301D02*
X198476504Y-130884367D01*
X204430468Y-132317301D02*
X199909438Y-132317301D01*
X206495488Y-134382321D02*
X204430468Y-132317301D01*
X210243492Y-134347513D02*
X210208684Y-134382321D01*
X210208684Y-134382321D02*
X206495488Y-134382321D01*
X198476504Y-130884367D02*
X195477489Y-130884367D01*
X195477489Y-130884367D02*
X193873106Y-132488750D01*
X193873106Y-132488750D02*
X189762499Y-132488750D01*
X212456708Y-134347513D02*
X210243492Y-134347513D01*
X213955486Y-132848735D02*
X212456708Y-134347513D01*
%TO.N,+5V*%
X180662499Y-126891894D02*
X180662499Y-129788750D01*
X178917140Y-124732321D02*
X180369606Y-126184787D01*
X178254640Y-124732321D02*
X178917140Y-124732321D01*
%TO.N,GND*%
X173718854Y-132319821D02*
X174267140Y-132319821D01*
X173274247Y-125025214D02*
X172910033Y-125389428D01*
X172617140Y-126096535D02*
X172617140Y-131218107D01*
X172910033Y-131925214D02*
X173011747Y-132026928D01*
X176179640Y-124732321D02*
X173981354Y-124732321D01*
D42*
%TO.N,+5V*%
X206567140Y-135182321D02*
X204217140Y-132832321D01*
X204217140Y-132832321D02*
X198927405Y-132832321D01*
X206567140Y-136317129D02*
X206567140Y-135182321D01*
X206567140Y-139082321D02*
X206567140Y-136317129D01*
X195867140Y-141082321D02*
X204567140Y-141082321D01*
X204567140Y-141082321D02*
X206567140Y-139082321D01*
%TO.N,GND*%
X202861774Y-137382321D02*
X202906010Y-137338085D01*
X199792118Y-137382321D02*
X202861774Y-137382321D01*
X198668196Y-138506243D02*
X199792118Y-137382321D01*
%TO.N,+5V*%
X173467140Y-143169821D02*
X173217140Y-142919821D01*
X173467140Y-144532321D02*
X173467140Y-143169821D01*
X172892140Y-145107321D02*
X173467140Y-144532321D01*
X188277374Y-145792555D02*
X188277374Y-144486581D01*
X189517140Y-146782321D02*
X189267140Y-146782321D01*
X189267140Y-146782321D02*
X188277374Y-145792555D01*
X174467139Y-130044822D02*
X174267140Y-130244821D01*
X174467139Y-128632331D02*
X174467139Y-130044822D01*
%TO.N,GND*%
X217442140Y-86657321D02*
X217442140Y-89444821D01*
X215687499Y-84902680D02*
X217442140Y-86657321D01*
D41*
X215687499Y-84315000D02*
X215687499Y-84902680D01*
%TO.N,Net-(J1-PadB5)*%
X215117140Y-89119821D02*
X215442140Y-89444821D01*
X215117140Y-87232321D02*
X215117140Y-89119821D01*
X214187499Y-86302680D02*
X215117140Y-87232321D01*
X214187499Y-84315000D02*
X214187499Y-86302680D01*
D42*
%TO.N,VCC*%
X209987499Y-85861962D02*
X209267140Y-86582321D01*
X209987499Y-84315000D02*
X209987499Y-85861962D01*
D41*
%TO.N,+5V*%
X198927405Y-132832321D02*
X198927405Y-132960261D01*
D42*
X206567140Y-136317129D02*
X210590788Y-136317129D01*
X199810890Y-96488571D02*
X186917140Y-109382321D01*
X206917140Y-96488571D02*
X199810890Y-96488571D01*
D41*
X174304640Y-141832321D02*
X173217140Y-142919821D01*
X177816052Y-140733409D02*
X176863586Y-141685875D01*
X176510033Y-141832321D02*
X174304640Y-141832321D01*
X177962499Y-139688750D02*
X177962499Y-140379855D01*
%TO.N,GND*%
X177210711Y-138888750D02*
X177962499Y-138888750D01*
X175267140Y-140832321D02*
X177210711Y-138888750D01*
X173217140Y-140844821D02*
X175254640Y-140844821D01*
X175254640Y-140844821D02*
X175267140Y-140832321D01*
%TO.N,+5V*%
X187062499Y-143271706D02*
X187062499Y-141588750D01*
X188277374Y-144486581D02*
X187062499Y-143271706D01*
%TO.N,GND*%
X183862499Y-137688750D02*
X183862499Y-135688750D01*
X180524999Y-137688750D02*
X183862499Y-137688750D01*
X183862499Y-133688750D02*
X183862499Y-135688750D01*
X180524999Y-133688750D02*
X183862499Y-133688750D01*
X183362499Y-135688750D02*
X183862499Y-135688750D01*
X183362499Y-132351250D02*
X183362499Y-135688750D01*
X187199999Y-134688750D02*
X183862499Y-134688750D01*
X183862499Y-134688750D02*
X183862499Y-135688750D01*
X186337979Y-135688750D02*
X183862499Y-135688750D01*
X186337979Y-138382321D02*
X186337979Y-135688750D01*
X186362499Y-138406841D02*
X186337979Y-138382321D01*
X186362499Y-139026250D02*
X186362499Y-138406841D01*
%TO.N,Net-(C1-Pad1)*%
X186154640Y-126194821D02*
X183862499Y-128486962D01*
X186154640Y-126132321D02*
X186154640Y-126194821D01*
X183862499Y-128486962D02*
X183862499Y-129788750D01*
%TO.N,GND*%
X183062499Y-128351244D02*
X183062499Y-129788750D01*
X184079640Y-127334103D02*
X183062499Y-128351244D01*
X184079640Y-126132321D02*
X184079640Y-127334103D01*
X174436069Y-132488750D02*
X177962499Y-132488750D01*
X174267140Y-132319821D02*
X174436069Y-132488750D01*
X216757499Y-79220000D02*
X216757499Y-83400000D01*
X208117499Y-79220000D02*
X208117499Y-83400000D01*
D42*
X216242140Y-91907321D02*
X215189838Y-91907321D01*
X217442140Y-90707321D02*
X216242140Y-91907321D01*
X217442140Y-89444821D02*
X217442140Y-90707321D01*
D41*
%TO.N,Net-(J1-PadA5)*%
X209504640Y-87794821D02*
X209504640Y-89444821D01*
X211187499Y-86111962D02*
X209504640Y-87794821D01*
X211187499Y-84315000D02*
X211187499Y-86111962D01*
D42*
%TO.N,GND*%
X209187499Y-85261962D02*
X207504640Y-86944821D01*
X207504640Y-86944821D02*
X207504640Y-89444821D01*
X209187499Y-84315000D02*
X209187499Y-85261962D01*
%TO.N,VCC*%
X216417140Y-87082321D02*
X216417140Y-87582321D01*
X214887499Y-85552680D02*
X216417140Y-87082321D01*
X214887499Y-84315000D02*
X214887499Y-85552680D01*
X207885894Y-93513580D02*
X206917138Y-93513580D01*
X209692140Y-91707321D02*
X207885890Y-93513571D01*
X209692140Y-91707321D02*
X211417140Y-91707321D01*
D41*
%TO.N,XTAL1*%
X196599564Y-138506243D02*
X196968196Y-138506243D01*
X193782071Y-135688750D02*
X196599564Y-138506243D01*
X189762499Y-135688750D02*
X193782071Y-135688750D01*
D42*
%TO.N,GND*%
X198438991Y-138106243D02*
X198668196Y-138106243D01*
X196968196Y-136635448D02*
X198438991Y-138106243D01*
X196968196Y-136406243D02*
X196968196Y-136635448D01*
%TO.N,+5V*%
X195690817Y-131399387D02*
X197945414Y-131399387D01*
X193801454Y-133288750D02*
X195690817Y-131399387D01*
D41*
X198927405Y-132381378D02*
X198927405Y-132960261D01*
D42*
X189762499Y-133288750D02*
X193801454Y-133288750D01*
X197945414Y-131399387D02*
X198927405Y-132381378D01*
%TO.N,GND*%
X202906010Y-137338085D02*
X202906010Y-136968429D01*
X202906010Y-137476723D02*
X202906010Y-137338085D01*
X203618196Y-135103083D02*
X203618196Y-136256243D01*
X202634676Y-134119563D02*
X203618196Y-135103083D01*
X197873173Y-134119563D02*
X202634676Y-134119563D01*
X196852405Y-133098795D02*
X197873173Y-134119563D01*
D41*
X196852405Y-132960261D02*
X196852405Y-133098795D01*
%TO.N,XTAL1*%
X200327861Y-139741578D02*
X201543196Y-138526243D01*
X196968196Y-139037387D02*
X197672387Y-139741578D01*
X197672387Y-139741578D02*
X200327861Y-139741578D01*
X196968196Y-138506243D02*
X196968196Y-139037387D01*
%TO.N,XTAL2*%
X201493196Y-136306243D02*
X201543196Y-136256243D01*
X198668196Y-136306243D02*
X201493196Y-136306243D01*
X198668196Y-136206243D02*
X198668196Y-136306243D01*
X189762499Y-134888750D02*
X197350703Y-134888750D01*
X197350703Y-134888750D02*
X198668196Y-136206243D01*
D42*
%TO.N,GND*%
X202906010Y-137814057D02*
X203618196Y-138526243D01*
X202906010Y-137476723D02*
X202906010Y-137814057D01*
X202906010Y-136968429D02*
X203618196Y-136256243D01*
D41*
X198668196Y-138106243D02*
X198668196Y-138506243D01*
X196968196Y-136306243D02*
X196968196Y-136406243D01*
D42*
X195723916Y-134088750D02*
X196852405Y-132960261D01*
X189762499Y-134088750D02*
X195723916Y-134088750D01*
D43*
%TO.N,D-*%
X181462499Y-128537567D02*
X181462499Y-129788750D01*
X181621158Y-128378908D02*
X181462499Y-128537567D01*
X181621158Y-124735934D02*
X181621158Y-128378908D01*
X180822219Y-123936994D02*
X181621158Y-124735934D01*
%TO.N,D+*%
X182071160Y-128381364D02*
X182262499Y-128572703D01*
X182262499Y-128572703D02*
X182262499Y-129788750D01*
X182071160Y-124735934D02*
X182071160Y-128381364D01*
X182854100Y-123952994D02*
X182071160Y-124735934D01*
%TO.N,DP*%
X182854100Y-121324704D02*
X182854100Y-121952994D01*
X182056312Y-120526916D02*
X182854100Y-121324704D01*
X182785340Y-117207321D02*
X182056312Y-117936349D01*
X193110340Y-117207321D02*
X182785340Y-117207321D01*
X196417140Y-113900521D02*
X193110340Y-117207321D01*
X209310340Y-99857321D02*
X198135340Y-99857321D01*
X182056312Y-117936349D02*
X182056312Y-120526916D01*
X212642140Y-96525521D02*
X209310340Y-99857321D01*
X212642140Y-94907322D02*
X212642140Y-96525521D01*
X198135340Y-99857321D02*
X196417140Y-101575521D01*
X213417140Y-94132322D02*
X212642140Y-94907322D01*
X213417140Y-93607321D02*
X213417140Y-94132322D01*
X196417140Y-101575521D02*
X196417140Y-113900521D01*
%TO.N,DN*%
X180822219Y-121292772D02*
X180822219Y-121936994D01*
X181606312Y-117749949D02*
X181606312Y-120508679D01*
X182598940Y-116757321D02*
X181606312Y-117749949D01*
X192923940Y-116757321D02*
X182598940Y-116757321D01*
X195967140Y-101389121D02*
X195967140Y-113714121D01*
X195967140Y-113714121D02*
X192923940Y-116757321D01*
X197948940Y-99407321D02*
X195967140Y-101389121D01*
X209123940Y-99407321D02*
X197948940Y-99407321D01*
X212192140Y-96339121D02*
X209123940Y-99407321D01*
X212192140Y-94907322D02*
X212192140Y-96339121D01*
X181606312Y-120508679D02*
X180822219Y-121292772D01*
X211417140Y-93607321D02*
X211417140Y-94132322D01*
X211417140Y-94132322D02*
X212192140Y-94907322D01*
%TO.N,DP*%
X212617140Y-92807321D02*
X213417140Y-93607321D01*
X212617140Y-85832321D02*
X212617140Y-92807321D01*
X213187499Y-85261962D02*
X212617140Y-85832321D01*
X213187499Y-84315000D02*
X213187499Y-85261962D01*
%TO.N,DN*%
X212167140Y-92857321D02*
X211417140Y-93607321D01*
X212167140Y-85707321D02*
X212167140Y-92857321D01*
X212687499Y-85186962D02*
X212687499Y-84315000D01*
X212154820Y-85707321D02*
X212167140Y-85707321D01*
X212167140Y-85707321D02*
X212687499Y-85186962D01*
X211687499Y-85240000D02*
X212154820Y-85707321D01*
X211687499Y-84315000D02*
X211687499Y-85240000D01*
%TO.N,DP*%
X213187499Y-83427680D02*
X213187499Y-84315000D01*
X212917140Y-83157321D02*
X213187499Y-83427680D01*
X212187499Y-83461962D02*
X212492140Y-83157321D01*
X212187499Y-84315000D02*
X212187499Y-83461962D01*
X212492140Y-83157321D02*
X212917140Y-83157321D01*
D41*
%TO.N,Net-(D14-Pad2)*%
X321693179Y-87685442D02*
G75*
G02*
X323693179Y-89685442I1J-1999999D01*
G01*
%TO.N,COL11*%
X290228202Y-108366991D02*
G75*
G03*
X290935309Y-108659884I707106J707106D01*
G01*
%TO.N,COL10*%
X290630660Y-108049386D02*
G75*
G03*
X290957476Y-108190724I348868J358167D01*
G01*
X288591951Y-106278599D02*
G75*
G02*
X288692077Y-106288564I-148019J-1995268D01*
G01*
X288692077Y-106288563D02*
X288842140Y-106307321D01*
X288321950Y-106258571D02*
X288591951Y-106278598D01*
X288842140Y-106307321D02*
X290630660Y-108049386D01*
X291402266Y-108210364D02*
X290957476Y-108190725D01*
%TO.N,COL11*%
X291694620Y-105373372D02*
X291762127Y-105426891D01*
X291911938Y-105511939D02*
X292074101Y-105570074D01*
X280048997Y-103272558D02*
X280188016Y-103411577D01*
X309148290Y-107659884D02*
X309146362Y-107758186D01*
X279824250Y-101347393D02*
X279824250Y-102636324D01*
X308246592Y-105588732D02*
X308439417Y-105627087D01*
X292074101Y-105570074D02*
X292243824Y-105599577D01*
X280351486Y-103520804D02*
X280533123Y-103596041D01*
X279864533Y-102927451D02*
X279939770Y-103109088D01*
X279824250Y-102636324D02*
X279826178Y-102734626D01*
X273443382Y-107242889D02*
X273368619Y-107425440D01*
X279826178Y-102734626D02*
X279864533Y-102927451D01*
X308923543Y-108296118D02*
X308784524Y-108435137D01*
X279939770Y-103109088D02*
X280048997Y-103272558D01*
X280188016Y-103411577D02*
X280351486Y-103520804D01*
X280533123Y-103596041D02*
X280725948Y-103634396D01*
X273855351Y-106828721D02*
X273691548Y-106938644D01*
X280725948Y-103634396D02*
X280824250Y-103636324D01*
X280824250Y-103636324D02*
X289281952Y-103636324D01*
X309108007Y-106295677D02*
X309146362Y-106488502D01*
X289281952Y-103636324D02*
X289380254Y-103638252D01*
X308621054Y-105702324D02*
X308784524Y-105811551D01*
X274329586Y-106712414D02*
X274230952Y-106714375D01*
X289380254Y-103638252D02*
X289573079Y-103676607D01*
X289573079Y-103676607D02*
X289754716Y-103751844D01*
X289754716Y-103751844D02*
X289918186Y-103861071D01*
X288252187Y-106713975D02*
X288166053Y-106712414D01*
X289918186Y-103861071D02*
X289989059Y-103929217D01*
X291762127Y-105426891D02*
X291911938Y-105511939D01*
X289989059Y-103929217D02*
X290185723Y-104125881D01*
X290185723Y-104125881D02*
X290202953Y-104142931D01*
X290202953Y-104142931D02*
X290238853Y-104175509D01*
X290238853Y-104175509D02*
X290257491Y-104191008D01*
X288801390Y-106940179D02*
X288733883Y-106886660D01*
X292243824Y-105599577D02*
X292329958Y-105601138D01*
X290257491Y-104191008D02*
X291694620Y-105373372D01*
X292329958Y-105601138D02*
X295099250Y-105601138D01*
X295099250Y-105601138D02*
X295113584Y-105586804D01*
X309148290Y-106586804D02*
X309148290Y-107659884D01*
X295113584Y-105586804D02*
X308148290Y-105586804D01*
X308148290Y-105586804D02*
X308246592Y-105588732D01*
X308439417Y-105627087D02*
X308621054Y-105702324D01*
X308784524Y-105811551D02*
X308923543Y-105950570D01*
X308923543Y-105950570D02*
X309032770Y-106114040D01*
X308246592Y-108657956D02*
X308148290Y-108659884D01*
X309032770Y-106114040D02*
X309108007Y-106295677D01*
X309146362Y-106488502D02*
X309148290Y-106586804D01*
X309146362Y-107758186D02*
X309108007Y-107951011D01*
X309108007Y-107951011D02*
X309032770Y-108132648D01*
X309032770Y-108132648D02*
X308923543Y-108296118D01*
X308784524Y-108435137D02*
X308621054Y-108544364D01*
X273691548Y-106938644D02*
X273552431Y-107078504D01*
X308621054Y-108544364D02*
X308439417Y-108619601D01*
X308439417Y-108619601D02*
X308246592Y-108657956D01*
X308148290Y-108659884D02*
X290935309Y-108659884D01*
X290228202Y-108366991D02*
X288801390Y-106940179D01*
X288733883Y-106886660D02*
X288584072Y-106801612D01*
X288584072Y-106801612D02*
X288421910Y-106743478D01*
X288421910Y-106743478D02*
X288252187Y-106713975D01*
X288166053Y-106712414D02*
X274329586Y-106712414D01*
X274230952Y-106714375D02*
X274037501Y-106752988D01*
X274037501Y-106752988D02*
X273855351Y-106828721D01*
X273552431Y-107078504D02*
X273443382Y-107242889D01*
X273368619Y-107425440D02*
X273331035Y-107619093D01*
X273331035Y-107619093D02*
X273329600Y-107717736D01*
X273329600Y-107717736D02*
X273337176Y-109141370D01*
%TO.N,COL4*%
X156265579Y-140288750D02*
G75*
G02*
X159265579Y-137288750I3000001J-1D01*
G01*
%TO.N,COL2*%
X155366539Y-138688750D02*
G75*
G02*
X158366539Y-135688750I3000001J-1D01*
G01*
%TO.N,COL5*%
X156715099Y-141088750D02*
G75*
G02*
X159715099Y-138088750I3000001J-1D01*
G01*
%TO.N,COL0*%
X154467499Y-137088750D02*
G75*
G02*
X157467499Y-134088750I3000001J-1D01*
G01*
%TO.N,COL3*%
X155816059Y-139488750D02*
G75*
G02*
X158816059Y-136488750I3000001J-1D01*
G01*
%TO.N,COL1*%
X154917019Y-137888750D02*
G75*
G02*
X157917019Y-134888750I3000001J-1D01*
G01*
%TO.N,COL5*%
X142853124Y-149978982D02*
X142853124Y-150871875D01*
X142888693Y-149786609D02*
X142854728Y-149913367D01*
X142854728Y-149913367D02*
X142853124Y-149978982D01*
X142954307Y-149672960D02*
X142888693Y-149786609D01*
X142999570Y-149625429D02*
X142954307Y-149672960D01*
X143190430Y-149434569D02*
X142999570Y-149625429D01*
X143233162Y-149393547D02*
X143190430Y-149434569D01*
X143334199Y-149331734D02*
X143233162Y-149393547D01*
X143446902Y-149295299D02*
X143334199Y-149331734D01*
X143565003Y-149286268D02*
X143446902Y-149295299D01*
X143623662Y-149294512D02*
X143565003Y-149286268D01*
X151578229Y-150578538D02*
X143623662Y-149294512D01*
X152367955Y-150719595D02*
X151578229Y-150578538D01*
X156715099Y-141088750D02*
X156715099Y-146947230D01*
X152927154Y-150735175D02*
X152543787Y-150735175D01*
X177962499Y-138088750D02*
X159715099Y-138088750D01*
X156422206Y-147654337D02*
X153634261Y-150442282D01*
X152367955Y-150719595D02*
G75*
G03*
X152543787Y-150735175I175842J984516D01*
G01*
X152927154Y-150735174D02*
G75*
G03*
X153634260Y-150442281I3J999993D01*
G01*
X156422206Y-147654337D02*
G75*
G03*
X156715099Y-146947230I-707101J707104D01*
G01*
%TO.N,COL0*%
X154467499Y-140123124D02*
X154467499Y-137088750D01*
X161035711Y-134088750D02*
X177962499Y-134088750D01*
X157467499Y-134088750D02*
X161035711Y-134088750D01*
%TO.N,COL1*%
X157917019Y-134888750D02*
X177962499Y-134888750D01*
X154917019Y-146202440D02*
X154917019Y-137888750D01*
X100268627Y-140239204D02*
X152271279Y-148796091D01*
X100002378Y-140133378D02*
X100132573Y-140196181D01*
X95050054Y-139505081D02*
X95127239Y-139582266D01*
X71772056Y-139358634D02*
X94696500Y-139358634D01*
X59111615Y-139683625D02*
X71032851Y-139683625D01*
X154917018Y-146202440D02*
G75*
G02*
X154624125Y-146909546I-999998J-1D01*
G01*
X152929859Y-148603814D02*
G75*
G02*
X152433643Y-148809360I-496235J496239D01*
G01*
X99704629Y-139875158D02*
X99866060Y-140036589D01*
X100002378Y-140133377D02*
G75*
G02*
X99866061Y-140036588I217218J450319D01*
G01*
X95480792Y-139728712D02*
X99351076Y-139728712D01*
X100268627Y-140239204D02*
G75*
G02*
X100132573Y-140196181I81180J493356D01*
G01*
X152929859Y-148603814D02*
X154624126Y-146909547D01*
X99704629Y-139875158D02*
G75*
G03*
X99351076Y-139728712I-353553J-353556D01*
G01*
X71386405Y-139537178D02*
X71418503Y-139505080D01*
X95480792Y-139728711D02*
G75*
G02*
X95127239Y-139582266I0J500001D01*
G01*
X95050054Y-139505081D02*
G75*
G03*
X94696500Y-139358634I-353553J-353550D01*
G01*
X71772056Y-139358635D02*
G75*
G03*
X71418503Y-139505080I0J-500001D01*
G01*
X71386405Y-139537178D02*
G75*
G02*
X71032851Y-139683625I-353553J353550D01*
G01*
X59111615Y-141083710D02*
X59111615Y-139683625D01*
X152433643Y-148809360D02*
G75*
G02*
X152271279Y-148796091I5J1000065D01*
G01*
%TO.N,COL2*%
X158366539Y-135688750D02*
X177962499Y-135688750D01*
X155366539Y-146388638D02*
X155366539Y-138688750D01*
X155364610Y-146486939D02*
X155366539Y-146388638D01*
X155326255Y-146679765D02*
X155364610Y-146486939D01*
X155251018Y-146861402D02*
X155326255Y-146679765D01*
X155141792Y-147024871D02*
X155251018Y-146861402D01*
X153203404Y-148965987D02*
X155073646Y-147095745D01*
X152247027Y-149258880D02*
X152496297Y-149258880D01*
X100146277Y-140743669D02*
X152085484Y-149245746D01*
X95294596Y-140178232D02*
X99023252Y-140178232D01*
X94863857Y-139954600D02*
X94941043Y-140031786D01*
X85533952Y-139808154D02*
X94510304Y-139808154D01*
X84945697Y-140189302D02*
X85180399Y-139954600D01*
X84799250Y-141136075D02*
X84799250Y-140542856D01*
X153203404Y-148965987D02*
G75*
G02*
X152496297Y-149258880I-707104J707101D01*
G01*
X155073646Y-147095745D02*
X155141792Y-147024871D01*
X100146277Y-140743668D02*
G75*
G02*
X99962557Y-140674551I80768J493420D01*
G01*
X95294596Y-140178231D02*
G75*
G02*
X94941043Y-140031786I0J500001D01*
G01*
X94863857Y-139954600D02*
G75*
G03*
X94510304Y-139808154I-353553J-353556D01*
G01*
X85533952Y-139808155D02*
G75*
G03*
X85180399Y-139954600I0J-500001D01*
G01*
X99287744Y-140253916D02*
G75*
G03*
X99023252Y-140178232I-264490J-424309D01*
G01*
X84945697Y-140189302D02*
G75*
G03*
X84799250Y-140542856I353550J-353553D01*
G01*
X152247027Y-149258879D02*
G75*
G02*
X152085484Y-149245745I2J1000052D01*
G01*
X99287744Y-140253916D02*
X99962557Y-140674552D01*
%TO.N,COL3*%
X158816059Y-136488750D02*
X177962499Y-136488750D01*
X155816059Y-146574836D02*
X155816059Y-139488750D01*
X153389602Y-149415507D02*
X155523166Y-147281943D01*
X105352499Y-142582500D02*
X105952499Y-142257500D01*
X105357499Y-144647500D02*
X105352499Y-142582500D01*
X107247499Y-142437500D02*
X151899829Y-149695446D01*
X152060267Y-149708400D02*
X152682495Y-149708400D01*
X155816058Y-146574836D02*
G75*
G02*
X155523165Y-147281942I-999998J-1D01*
G01*
X152060267Y-149708399D02*
G75*
G02*
X151899829Y-149695445I6J1000080D01*
G01*
X153389602Y-149415507D02*
G75*
G02*
X152682495Y-149708400I-707106J707106D01*
G01*
X105952499Y-142257500D02*
X107247499Y-142437500D01*
%TO.N,COL4*%
X156265579Y-146761032D02*
X156265579Y-140288750D01*
X153569336Y-149871490D02*
X155972686Y-147468138D01*
X153346669Y-150047844D02*
X153520311Y-149914500D01*
X152594330Y-150204114D02*
X153097355Y-150148223D01*
X151734914Y-150146739D02*
X152500734Y-150205697D01*
X125957499Y-145987500D02*
X151693615Y-150141824D01*
X124241700Y-146445164D02*
X124561605Y-146130846D01*
X124092125Y-148122874D02*
X124092125Y-146801818D01*
X153346669Y-150047844D02*
G75*
G02*
X153097355Y-150148223I-304529J396563D01*
G01*
X124912030Y-145987500D02*
X125957499Y-145987500D01*
X153569336Y-149871490D02*
G75*
G02*
X153520311Y-149914500I-353491J353482D01*
G01*
X151734914Y-150146739D02*
G75*
G02*
X151693615Y-150141824I38395J498584D01*
G01*
X124912030Y-145987501D02*
G75*
G03*
X124561606Y-146130847I0J-499999D01*
G01*
X159265579Y-137288750D02*
X177962499Y-137288750D01*
X156265579Y-146761032D02*
G75*
G02*
X155972686Y-147468138I-1000005J3D01*
G01*
X124241700Y-146445164D02*
G75*
G03*
X124092125Y-146801818I350431J-356657D01*
G01*
X152594330Y-150204114D02*
G75*
G02*
X152500734Y-150205697I-55215J496871D01*
G01*
%TO.N,COL6*%
X171411646Y-182670962D02*
X173756720Y-183084462D01*
%TO.N,COL4*%
X140925691Y-177295466D02*
X143270765Y-177708966D01*
%TO.N,COL12*%
X308597810Y-109109404D02*
G75*
G03*
X309597810Y-108109404I1J999999D01*
G01*
X309597810Y-106137284D02*
G75*
G03*
X308597810Y-105137284I-999999J1D01*
G01*
%TO.N,COL10*%
X307698770Y-108210364D02*
G75*
G03*
X308698770Y-107210364I1J999999D01*
G01*
X307698770Y-106036324D02*
G75*
G02*
X308698770Y-107036324I1J-999999D01*
G01*
%TO.N,COL7*%
X199374730Y-118659404D02*
G75*
G03*
X200374730Y-119659404I999999J-1D01*
G01*
X199374730Y-116712284D02*
G75*
G02*
X200374730Y-115712284I999999J1D01*
G01*
%TO.N,COL8*%
X199824250Y-116861804D02*
G75*
G02*
X200524250Y-116161804I699999J1D01*
G01*
X199824250Y-118509884D02*
G75*
G03*
X200524250Y-119209884I699999J-1D01*
G01*
%TO.N,COL9*%
X200774034Y-116611588D02*
G75*
G03*
X200274250Y-117111588I216J-500000D01*
G01*
X200274250Y-118260364D02*
G75*
G03*
X200774250Y-118760364I500001J1D01*
G01*
X200774034Y-116611588D02*
X201385008Y-116611324D01*
X233482242Y-115960690D02*
X233482242Y-114325530D01*
X233482242Y-114325530D02*
G75*
G03*
X232308589Y-113340723I-1000000J0D01*
G01*
X201910447Y-118760364D02*
X200774250Y-118760364D01*
X232308589Y-113340723D02*
X201982635Y-118688177D01*
X201982635Y-118688177D02*
X201910447Y-118760364D01*
X200274250Y-118260364D02*
X200274250Y-117111588D01*
%TO.N,COL10*%
X272130409Y-106274300D02*
G75*
G02*
X272307076Y-106258571I176667J-984286D01*
G01*
X289802861Y-104378737D02*
G75*
G03*
X289095754Y-104085844I-707106J-707106D01*
G01*
X292168807Y-106050657D02*
G75*
G02*
X291533470Y-105822891I0J999999D01*
G01*
X289883281Y-104459157D02*
G75*
G03*
X289955049Y-104524284I706640J706590D01*
G01*
%TO.N,COL12*%
X298949250Y-104137284D02*
G75*
G03*
X299949250Y-105137284I999999J-1D01*
G01*
X293387176Y-109109404D02*
G75*
G03*
X292387176Y-110109404I-1J-999999D01*
G01*
%TO.N,COL10*%
X259415993Y-105177523D02*
G75*
G03*
X260592659Y-106161793I999999J0D01*
G01*
X259415991Y-104402879D02*
X259415992Y-105177523D01*
X251949251Y-110716530D02*
G75*
G02*
X252775596Y-109731724I999997J2D01*
G01*
%TO.N,COL9*%
X240599249Y-108857480D02*
G75*
G02*
X239772904Y-109842286I-999997J-2D01*
G01*
%TO.N,COL8*%
X221799249Y-111716078D02*
G75*
G02*
X220972904Y-112700884I-999997J-2D01*
G01*
X214722242Y-118089984D02*
G75*
G03*
X213548589Y-117105177I-1000000J0D01*
G01*
%TO.N,COL7*%
X204724250Y-120309410D02*
G75*
G03*
X203550596Y-119324604I-1000000J-1D01*
G01*
X202372904Y-115524216D02*
G75*
G03*
X203199250Y-114539410I-173656J984808D01*
G01*
X204724250Y-120903997D02*
X204724250Y-120309410D01*
X203199250Y-113788913D02*
X203199250Y-114539410D01*
%TO.N,COL8*%
X214722242Y-119763906D02*
X214722242Y-118089984D01*
X221799250Y-110726543D02*
X221799250Y-111716078D01*
%TO.N,COL9*%
X240599250Y-107464172D02*
X240599250Y-108857480D01*
%TO.N,COL10*%
X251949250Y-112087436D02*
X251949250Y-110716530D01*
%TO.N,COL12*%
X298949250Y-102769819D02*
X298949250Y-104137284D01*
%TO.N,Net-(D8-Pad2)*%
X212299480Y-102289404D02*
G75*
G03*
X211592373Y-101996511I-707106J-707106D01*
G01*
X214012338Y-104002262D02*
G75*
G02*
X214305231Y-104709369I-707106J-707106D01*
G01*
%TO.N,Net-(D11-Pad2)*%
X270661481Y-93071811D02*
G75*
G03*
X269661481Y-92071811I-999999J1D01*
G01*
%TO.N,Net-(D13-Pad2)*%
X309773782Y-93612200D02*
G75*
G03*
X308773782Y-92612200I-999999J1D01*
G01*
%TO.N,Net-(D12-Pad2)*%
X291585500Y-90944200D02*
G75*
G03*
X290585500Y-89944200I-999999J1D01*
G01*
%TO.N,Net-(D9-Pad2)*%
X233003586Y-99687660D02*
G75*
G03*
X232003586Y-98687660I-999999J1D01*
G01*
%TO.N,Net-(D10-Pad2)*%
X251405231Y-95380411D02*
G75*
G02*
X252405231Y-96380411I1J-999999D01*
G01*
%TO.N,Net-(D14-Pad2)*%
X318016750Y-87685442D02*
G75*
G03*
X313016750Y-92685442I0J-5000000D01*
G01*
%TO.N,Net-(D16-Pad2)*%
X366198000Y-96654192D02*
G75*
G02*
X371198000Y-91654192I5000000J0D01*
G01*
%TO.N,Net-(D30-Pad2)*%
X347148000Y-112660950D02*
G75*
G03*
X346148000Y-111660950I-999999J1D01*
G01*
%TO.N,Net-(D27-Pad2)*%
X285235500Y-111442650D02*
G75*
G03*
X284235500Y-110442650I-999999J1D01*
G01*
%TO.N,Net-(D24-Pad2)*%
X227222383Y-119641692D02*
G75*
G03*
X226222383Y-118641692I-999999J1D01*
G01*
%TO.N,Net-(D31-Pad2)*%
X367198000Y-111660950D02*
G75*
G03*
X366198000Y-112660950I-1J-999999D01*
G01*
%TO.N,Net-(D26-Pad2)*%
X264311481Y-113486260D02*
G75*
G03*
X263311481Y-112486260I-999999J1D01*
G01*
%TO.N,Net-(D23-Pad2)*%
X207172383Y-122410760D02*
G75*
G02*
X208172383Y-123410760I1J-999999D01*
G01*
%TO.N,Net-(D28-Pad2)*%
X303285500Y-111660950D02*
G75*
G02*
X304285500Y-112660950I1J-999999D01*
G01*
%TO.N,Net-(D25-Pad2)*%
X245590884Y-116794536D02*
G75*
G03*
X244590884Y-115794536I-999999J1D01*
G01*
%TO.N,Net-(D29-Pad2)*%
X323324009Y-112660950D02*
G75*
G03*
X322324009Y-111660950I-999999J1D01*
G01*
%TO.N,Net-(D40-Pad2)*%
X252665551Y-133728611D02*
G75*
G02*
X253665551Y-134728611I1J-999999D01*
G01*
%TO.N,Net-(D42-Pad2)*%
X292234138Y-130710950D02*
G75*
G02*
X293234138Y-131710950I1J-999999D01*
G01*
%TO.N,Net-(D38-Pad2)*%
X215297793Y-140344586D02*
G75*
G02*
X216297793Y-141344586I1J-999999D01*
G01*
%TO.N,Net-(D39-Pad2)*%
X233981672Y-137035885D02*
G75*
G02*
X234981672Y-138035885I1J-999999D01*
G01*
%TO.N,Net-(D41-Pad2)*%
X272478506Y-131419910D02*
G75*
G03*
X271478506Y-130419910I-999999J1D01*
G01*
%TO.N,Net-(D45-Pad2)*%
X366198000Y-131710950D02*
G75*
G02*
X367198000Y-130710950I999999J1D01*
G01*
%TO.N,Net-(D44-Pad2)*%
X348056614Y-135804855D02*
G75*
G02*
X344521080Y-134340389I-1J4999998D01*
G01*
X342356107Y-132175416D02*
G75*
G03*
X338820573Y-130710950I-3535533J-3535532D01*
G01*
%TO.N,Net-(D67-Pad2)*%
X363722855Y-174574050D02*
G75*
G03*
X362722855Y-173574050I-999999J1D01*
G01*
%TO.N,Net-(D68-Pad2)*%
X366922383Y-174410442D02*
G75*
G02*
X367922383Y-173410442I999999J1D01*
G01*
%TO.N,Net-(D66-Pad2)*%
X343697383Y-173574050D02*
G75*
G02*
X344697383Y-174574050I1J-999999D01*
G01*
%TO.N,ROW4*%
X326339970Y-181882814D02*
G75*
G03*
X324925756Y-181297027I-1414214J-1414213D01*
G01*
X327170379Y-182713223D02*
G75*
G03*
X328584592Y-183299009I1414213J1414214D01*
G01*
%TO.N,COL10*%
X302923770Y-165235364D02*
G75*
G03*
X303423770Y-164735364I-1J500001D01*
G01*
X302923770Y-163061324D02*
G75*
G02*
X303423770Y-163561324I-1J-500001D01*
G01*
X257205610Y-164262249D02*
G75*
G03*
X258071385Y-164513145I681355J731951D01*
G01*
X259465871Y-166438073D02*
G75*
G03*
X258767857Y-166950487I184420J-982844D01*
G01*
%TO.N,ROW4*%
X232139851Y-182761493D02*
G75*
G02*
X235675385Y-181297027I3535533J-3535532D01*
G01*
X229512533Y-185388811D02*
G75*
G02*
X225976999Y-186853277I-3535533J3535532D01*
G01*
%TO.N,Net-(D64-Pad2)*%
X207042939Y-183603411D02*
G75*
G03*
X210578473Y-182138945I1J4999998D01*
G01*
X218163551Y-176624935D02*
G75*
G03*
X214628017Y-178089401I-1J-4999998D01*
G01*
%TO.N,COL8*%
X202886435Y-177110364D02*
G75*
G02*
X203429974Y-177270980I2J-999993D01*
G01*
X201724250Y-176610364D02*
G75*
G03*
X202224250Y-177110364I500001J1D01*
G01*
X201724250Y-175411123D02*
G75*
G02*
X202224250Y-174911123I500001J-1D01*
G01*
X216312731Y-172348735D02*
G75*
G03*
X217083130Y-171663072I-184419J982845D01*
G01*
X203083560Y-174831056D02*
X216312731Y-172348735D01*
X217674250Y-169763866D02*
X217083130Y-171663072D01*
X205149250Y-178384290D02*
X203429974Y-177270980D01*
%TO.N,COL10*%
X257746381Y-168866569D02*
X258767856Y-166950487D01*
X265875529Y-165235364D02*
X259465871Y-166438072D01*
X255224250Y-162417856D02*
X257205609Y-164262250D01*
X258071385Y-164513145D02*
X265567871Y-163106505D01*
%TO.N,Net-(D55-Pad2)*%
X265336559Y-150834961D02*
G75*
G02*
X266336559Y-151834961I1J-999999D01*
G01*
%TO.N,Net-(D52-Pad2)*%
X209336481Y-160758760D02*
G75*
G02*
X210336481Y-161758760I1J-999999D01*
G01*
%TO.N,Net-(D54-Pad2)*%
X246577385Y-154142961D02*
G75*
G02*
X247577385Y-155142961I1J-999999D01*
G01*
%TO.N,Net-(D53-Pad2)*%
X227839724Y-157450861D02*
G75*
G02*
X228839724Y-158450861I1J-999999D01*
G01*
%TO.N,Net-(D57-Pad2)*%
X305042839Y-149711650D02*
G75*
G02*
X306042839Y-150711650I1J-999999D01*
G01*
%TO.N,Net-(D56-Pad2)*%
X287003998Y-150711650D02*
G75*
G03*
X286003998Y-149711650I-999999J1D01*
G01*
%TO.N,Net-(D58-Pad2)*%
X331260365Y-149711650D02*
G75*
G02*
X332260365Y-150711650I1J-999999D01*
G01*
%TO.N,ROW3*%
X347053301Y-162908645D02*
G75*
G03*
X350588835Y-164373111I3535533J3535532D01*
G01*
X344754619Y-160609963D02*
G75*
G03*
X341219085Y-159145497I-3535533J-3535532D01*
G01*
%TO.N,Net-(D59-Pad2)*%
X362577643Y-154523950D02*
G75*
G02*
X363577643Y-155523950I1J-999999D01*
G01*
%TO.N,COL14*%
X348277499Y-150112323D02*
G75*
G03*
X349277499Y-151112323I999999J-1D01*
G01*
X348277499Y-149987500D02*
G75*
G03*
X347277499Y-148987500I-999999J1D01*
G01*
%TO.N,COL15*%
X339760904Y-147890905D02*
G75*
G03*
X341175118Y-148476692I1414214J1414213D01*
G01*
%TO.N,COL14*%
X335959465Y-147307501D02*
G75*
G02*
X337262022Y-147789824I-1J-2000001D01*
G01*
X339398077Y-148987499D02*
G75*
G02*
X338095521Y-148505177I-3J1999993D01*
G01*
X338095520Y-148505178D02*
X337262022Y-147789823D01*
X335959465Y-147307500D02*
X320108567Y-147307500D01*
%TO.N,COL15*%
X333905320Y-142035321D02*
G75*
G03*
X330369786Y-140570855I-3535533J-3535532D01*
G01*
%TO.N,COL14*%
X310468827Y-140947771D02*
G75*
G02*
X310822380Y-141094216I0J-500001D01*
G01*
X310927083Y-141198919D02*
G75*
G03*
X311280637Y-141345366I353553J353550D01*
G01*
X312221811Y-141491812D02*
G75*
G03*
X311868258Y-141345366I-353553J-353556D01*
G01*
%TO.N,COL15*%
X313255195Y-140749400D02*
G75*
G02*
X312901642Y-140895846I-353553J353556D01*
G01*
X313287293Y-140717302D02*
G75*
G02*
X313640847Y-140570855I353553J-353550D01*
G01*
X310665722Y-140498250D02*
G75*
G02*
X311027006Y-140652600I-1J-500002D01*
G01*
X311473340Y-140895845D02*
G75*
G02*
X311112057Y-140741496I-3J499995D01*
G01*
%TO.N,COL14*%
X316573033Y-145843034D02*
G75*
G03*
X320108567Y-147307500I3535533J3535532D01*
G01*
%TO.N,COL15*%
X311112056Y-140741497D02*
X311027006Y-140652600D01*
X310665722Y-140498250D02*
X294158649Y-140498250D01*
%TO.N,COL13*%
X310075522Y-141397291D02*
G75*
G02*
X310782628Y-141690184I3J-999993D01*
G01*
X312149249Y-143471018D02*
G75*
G03*
X311856356Y-142763912I-999993J3D01*
G01*
%TO.N,COL12*%
X291718935Y-142139703D02*
G75*
G03*
X291011828Y-141846810I-707106J-707106D01*
G01*
X292706357Y-143102842D02*
G75*
G02*
X292999250Y-143809949I-707106J-707106D01*
G01*
%TO.N,COL11*%
X273681357Y-142851371D02*
G75*
G02*
X273974250Y-143558478I-707106J-707106D01*
G01*
%TO.N,COL9*%
X233557440Y-149844364D02*
G75*
G02*
X233938467Y-149928177I91611J-491534D01*
G01*
X234313667Y-150194508D02*
G75*
G02*
X234524250Y-150602231I-289415J-407721D01*
G01*
X234313667Y-150194508D02*
X233938467Y-149928177D01*
X233557440Y-149844364D02*
X216635506Y-152998187D01*
X234524250Y-151820906D02*
X234524250Y-150602231D01*
%TO.N,COL8*%
X214824250Y-153646532D02*
G75*
G02*
X215824250Y-154646532I1J-999999D01*
G01*
%TO.N,COL10*%
X252066030Y-145937566D02*
G75*
G02*
X253249250Y-146920638I183220J-983072D01*
G01*
%TO.N,COL7*%
X196199250Y-154096052D02*
G75*
G02*
X197199250Y-155096052I1J-999999D01*
G01*
%TO.N,COL11*%
X190983664Y-140117022D02*
G75*
G03*
X190837217Y-139763468I-499997J1D01*
G01*
%TO.N,COL12*%
X191558939Y-139376545D02*
G75*
G03*
X191412492Y-139022991I-499997J1D01*
G01*
%TO.N,COL13*%
X191547328Y-138088750D02*
G75*
G02*
X191618038Y-138118039I0J-99999D01*
G01*
%TO.N,COL14*%
X192085195Y-137435196D02*
G75*
G03*
X191731642Y-137288750I-353553J-353556D01*
G01*
%TO.N,COL15*%
X192907500Y-140713286D02*
G75*
G03*
X193200393Y-141420392I999993J-3D01*
G01*
X202694105Y-150499891D02*
G75*
G02*
X201986999Y-150206998I-3J999993D01*
G01*
X191774535Y-136488751D02*
G75*
G02*
X192481641Y-136781644I3J-999993D01*
G01*
X192907498Y-137621714D02*
G75*
G03*
X192614605Y-136914608I-999993J3D01*
G01*
%TO.N,COL11*%
X190983665Y-141332320D02*
G75*
G03*
X191276558Y-142039426I999993J-3D01*
G01*
X201242207Y-152005078D02*
G75*
G03*
X201949314Y-152297971I707106J707106D01*
G01*
%TO.N,COL14*%
X202507908Y-150949411D02*
G75*
G02*
X201800802Y-150656518I-3J999993D01*
G01*
X192165086Y-137515087D02*
G75*
G02*
X192457979Y-138222194I-707106J-707106D01*
G01*
X192750872Y-141606590D02*
G75*
G02*
X192457979Y-140899483I707106J707106D01*
G01*
%TO.N,COL13*%
X192008460Y-141085680D02*
G75*
G03*
X192301353Y-141792786I999993J-3D01*
G01*
X201614603Y-151106038D02*
G75*
G03*
X202321710Y-151398932I707108J707107D01*
G01*
X192008458Y-138922674D02*
G75*
G03*
X191715565Y-138215568I-999993J3D01*
G01*
%TO.N,COL12*%
X191558940Y-141271877D02*
G75*
G03*
X191851833Y-141978983I999993J-3D01*
G01*
X201428405Y-151555558D02*
G75*
G03*
X202135512Y-151848451I707106J707106D01*
G01*
%TO.N,COL9*%
X185462500Y-145932643D02*
G75*
G03*
X186048286Y-147346855I1999999J0D01*
G01*
X192726868Y-153197011D02*
G75*
G02*
X191312655Y-152611224I0J1999999D01*
G01*
%TO.N,COL8*%
X185248285Y-147182574D02*
G75*
G02*
X184662499Y-145768361I1414214J1414213D01*
G01*
X191126456Y-153060745D02*
G75*
G03*
X192540670Y-153646532I1414214J1414213D01*
G01*
%TO.N,COL10*%
X186262500Y-146096925D02*
G75*
G03*
X186848286Y-147511137I1999999J0D01*
G01*
X191498852Y-152161705D02*
G75*
G03*
X192913066Y-152747492I1414214J1414213D01*
G01*
%TO.N,COL7*%
X192354472Y-154096051D02*
G75*
G02*
X190940259Y-153510264I0J1999999D01*
G01*
X184448285Y-147018292D02*
G75*
G02*
X183862499Y-145604079I1414214J1414213D01*
G01*
%TO.N,COL4*%
X135398376Y-108670755D02*
G75*
G03*
X135691269Y-109377861I999993J-3D01*
G01*
X136505424Y-110192018D02*
G75*
G03*
X137038883Y-110469719I707106J707106D01*
G01*
%TO.N,COL5*%
X154149342Y-112191201D02*
G75*
G03*
X154975693Y-113176008I999997J-2D01*
G01*
%TO.N,COL6*%
X165374251Y-113714002D02*
G75*
G03*
X166200602Y-114698809I1000000J1D01*
G01*
X170047810Y-119184404D02*
G75*
G03*
X171047810Y-118184404I1J999999D01*
G01*
X170047810Y-115237284D02*
G75*
G02*
X171047810Y-116237284I1J-999999D01*
G01*
%TO.N,COL5*%
X169898290Y-118734884D02*
G75*
G03*
X170598290Y-118034884I1J699999D01*
G01*
X169898290Y-115686804D02*
G75*
G02*
X170598290Y-116386804I1J-699999D01*
G01*
%TO.N,COL4*%
X169648770Y-116136324D02*
G75*
G02*
X170148770Y-116636324I-1J-500001D01*
G01*
X170148770Y-117785364D02*
G75*
G02*
X169648770Y-118285364I-500001J1D01*
G01*
%TO.N,COL6*%
X160231125Y-118846035D02*
G75*
G02*
X161404773Y-117861227I999999J1D01*
G01*
%TO.N,COL5*%
X141470625Y-115081597D02*
G75*
G02*
X142644273Y-114096789I999999J1D01*
G01*
%TO.N,COL4*%
X123710374Y-111485844D02*
G75*
G03*
X122710374Y-112485844I-1J-999999D01*
G01*
%TO.N,COL3*%
X116699250Y-105691538D02*
G75*
G02*
X115525602Y-106676346I-999999J-1D01*
G01*
X103949474Y-107885364D02*
G75*
G03*
X102949474Y-106885364I-999999J1D01*
G01*
%TO.N,COL2*%
X96449250Y-103261804D02*
G75*
G02*
X95449250Y-104261804I-999999J-1D01*
G01*
X82456176Y-108335364D02*
G75*
G03*
X81456176Y-107335364I-999999J1D01*
G01*
%TO.N,COL1*%
X77474250Y-108784884D02*
G75*
G03*
X76474250Y-107784884I-999999J1D01*
G01*
X77199250Y-102812284D02*
G75*
G02*
X76199250Y-103812284I-999999J-1D01*
G01*
X70800210Y-106784884D02*
G75*
G03*
X71800210Y-107784884I999999J-1D01*
G01*
X70800210Y-104812284D02*
G75*
G02*
X71800210Y-103812284I999999J1D01*
G01*
%TO.N,COL2*%
X71249730Y-106635364D02*
G75*
G03*
X71949730Y-107335364I699999J-1D01*
G01*
X71249730Y-104961804D02*
G75*
G02*
X71949730Y-104261804I699999J1D01*
G01*
%TO.N,COL3*%
X72199250Y-106885844D02*
G75*
G02*
X71699250Y-106385844I1J500001D01*
G01*
X72199250Y-104711324D02*
G75*
G03*
X71699250Y-105211324I1J-500001D01*
G01*
%TO.N,COL6*%
X169648998Y-174256039D02*
G75*
G02*
X169016298Y-173862676I173642J984804D01*
G01*
%TO.N,COL4*%
X126507157Y-166588377D02*
G75*
G02*
X126164650Y-166597614I-197814J980237D01*
G01*
X128427336Y-169556597D02*
G75*
G03*
X127752567Y-169131643I-826100J-563536D01*
G01*
X84861971Y-163161324D02*
G75*
G02*
X85861971Y-162161324I999999J1D01*
G01*
X84861971Y-163310868D02*
G75*
G03*
X85861971Y-164310868I999999J-1D01*
G01*
X126507157Y-166588377D02*
X130165125Y-165850187D01*
X110245611Y-164269768D02*
X126164650Y-166597614D01*
X98497357Y-162198233D02*
X110245611Y-164269768D01*
X98460448Y-162161324D02*
X98497357Y-162198233D01*
X110090432Y-166427745D02*
X109698421Y-166355517D01*
X109698421Y-166355517D02*
X98102643Y-164310868D01*
X85861971Y-162161324D02*
X98460448Y-162161324D01*
X127752567Y-169131642D02*
X110090432Y-166427745D01*
X84861971Y-163310868D02*
X84861971Y-163161324D01*
X98102643Y-164310868D02*
X85861971Y-164310868D01*
X129249250Y-170761469D02*
X128427337Y-169556597D01*
%TO.N,COL6*%
X176628552Y-176136324D02*
G75*
G03*
X175628552Y-175136324I-999999J1D01*
G01*
X176628552Y-176535364D02*
G75*
G02*
X175628552Y-177535364I-999999J-1D01*
G01*
X176628552Y-176136324D02*
X176628552Y-176535364D01*
X175628552Y-177535364D02*
X175120159Y-177535364D01*
X174641455Y-175136324D02*
X175628552Y-175136324D01*
X169648998Y-174256040D02*
X174641455Y-175136324D01*
X167685625Y-172048505D02*
X169016297Y-173862676D01*
X171258633Y-177913836D02*
X171258633Y-177994917D01*
X171258634Y-177913836D02*
G75*
G02*
X172432277Y-176929029I999999J0D01*
G01*
X175120159Y-177535364D02*
X172432277Y-176929028D01*
%TO.N,COL5*%
X169898290Y-118734884D02*
X168601854Y-118734884D01*
X169215112Y-115686804D02*
X169898290Y-115686804D01*
X170598290Y-116386804D02*
X170598290Y-118034884D01*
X154149341Y-111194799D02*
X154149341Y-112191201D01*
X154975693Y-113176009D02*
X169215112Y-115686804D01*
X154158374Y-111185766D02*
X154149341Y-111194799D01*
%TO.N,COL6*%
X165374250Y-112963630D02*
X165374250Y-113714002D01*
%TO.N,COL4*%
X135398375Y-107938156D02*
X135398375Y-108670755D01*
%TO.N,COL1*%
X77474250Y-109684569D02*
X77474250Y-108784884D01*
%TO.N,COL2*%
X82456176Y-109058988D02*
X82456176Y-108335364D01*
%TO.N,COL3*%
X103949474Y-108911779D02*
X103949474Y-107885364D01*
%TO.N,COL4*%
X123710374Y-111485844D02*
X130425552Y-111485844D01*
X122710374Y-112707065D02*
X122710374Y-112485844D01*
%TO.N,COL5*%
X141470625Y-115801144D02*
X141470625Y-115081597D01*
%TO.N,COL6*%
X160231125Y-119330608D02*
X160231125Y-118846035D01*
%TO.N,COL1*%
X77199250Y-101894312D02*
X77199250Y-102812284D01*
%TO.N,COL2*%
X96449250Y-102014215D02*
X96449250Y-103261804D01*
%TO.N,COL3*%
X116699250Y-104743489D02*
X116699250Y-105691538D01*
%TO.N,Net-(D8-Pad2)*%
X212299480Y-102289404D02*
X214012338Y-104002262D01*
X207846455Y-101996511D02*
X211592373Y-101996511D01*
X214305231Y-104709369D02*
X214305231Y-107403411D01*
%TO.N,COL7*%
X183862499Y-145604079D02*
X183862499Y-141588750D01*
X190940258Y-153510265D02*
X184448285Y-147018292D01*
X196199250Y-154096052D02*
X192354472Y-154096052D01*
X197199250Y-157066323D02*
X197199250Y-155096052D01*
%TO.N,COL8*%
X191126456Y-153060745D02*
X185248285Y-147182574D01*
X184662499Y-145768361D02*
X184662499Y-141588750D01*
X214824250Y-153646532D02*
X192540670Y-153646532D01*
X215824250Y-155861664D02*
X215824250Y-154646532D01*
%TO.N,COL9*%
X216635506Y-152998187D02*
X216436680Y-153197012D01*
X216436680Y-153197012D02*
X192726868Y-153197012D01*
X191312654Y-152611225D02*
X186048285Y-147346856D01*
X185462499Y-145932643D02*
X185462499Y-141588750D01*
%TO.N,COL10*%
X186262499Y-146096925D02*
X186262499Y-141588750D01*
X191498852Y-152161705D02*
X186848285Y-147511138D01*
X216250483Y-152747492D02*
X192913066Y-152747492D01*
X216416170Y-152581805D02*
X216250483Y-152747492D01*
X253249250Y-148140087D02*
X253249250Y-146920638D01*
X252066030Y-145937566D02*
X216416170Y-152581805D01*
%TO.N,COL11*%
X190762499Y-139688750D02*
X189762499Y-139688750D01*
X190837217Y-139763468D02*
X190762499Y-139688750D01*
X190983664Y-141332320D02*
X190983664Y-140117022D01*
X201242207Y-152005078D02*
X191276557Y-142039427D01*
X262004002Y-143628117D02*
X216196837Y-152165422D01*
X216196837Y-152165422D02*
X216064286Y-152297972D01*
X272565566Y-141735580D02*
X272158468Y-141735580D01*
X272158468Y-141735580D02*
X262004002Y-143628117D01*
X273681357Y-142851371D02*
X272565566Y-141735580D01*
X273974250Y-144693248D02*
X273974250Y-143558478D01*
X216064286Y-152297972D02*
X201949314Y-152297971D01*
%TO.N,COL12*%
X191278251Y-138888750D02*
X189762499Y-138888750D01*
X191412492Y-139022991D02*
X191278251Y-138888750D01*
X191558939Y-141271877D02*
X191558939Y-139376545D01*
X201428405Y-151555558D02*
X191851832Y-141978984D01*
X215878089Y-151848452D02*
X202135512Y-151848451D01*
X215977501Y-151749040D02*
X215878089Y-151848452D01*
X272881597Y-141286060D02*
X272116933Y-141286060D01*
X291011828Y-141846810D02*
X273442348Y-141846810D01*
X273442348Y-141846810D02*
X272881597Y-141286060D01*
X291751033Y-142171801D02*
X291718935Y-142139703D01*
X272116933Y-141286060D02*
X215977501Y-151749040D01*
X292706357Y-143102842D02*
X291775316Y-142171801D01*
X291775316Y-142171801D02*
X291751033Y-142171801D01*
X292999250Y-145362934D02*
X292999250Y-143809949D01*
%TO.N,COL13*%
X191547328Y-138088750D02*
X189762499Y-138088750D01*
X192008459Y-141085680D02*
X192008459Y-138922674D01*
X201286065Y-150777500D02*
X192301352Y-141792787D01*
X201614603Y-151106038D02*
X201286065Y-150777500D01*
X215691892Y-151398932D02*
X202321710Y-151398932D01*
X215758168Y-151332657D02*
X215691892Y-151398932D01*
X269476570Y-141320896D02*
X215758168Y-151332657D01*
X272075399Y-140836540D02*
X269476570Y-141320896D01*
X191715566Y-138215567D02*
X191618038Y-138118039D01*
X273067794Y-140836540D02*
X272075399Y-140836540D01*
X273628545Y-141397290D02*
X273067794Y-140836540D01*
X291612240Y-141397290D02*
X273628545Y-141397290D01*
X294531043Y-141722281D02*
X291937231Y-141722281D01*
X291937231Y-141722281D02*
X291612240Y-141397290D01*
X311856357Y-142763911D02*
X310782629Y-141690183D01*
X294856035Y-141397290D02*
X294531043Y-141722281D01*
X312149250Y-145255749D02*
X312149250Y-143471018D01*
X310075522Y-141397290D02*
X294856035Y-141397290D01*
%TO.N,Net-(D37-Pad2)*%
X170031946Y-149057499D02*
G75*
G02*
X169324840Y-148764606I-3J999993D01*
G01*
X168600863Y-148040631D02*
G75*
G02*
X168307970Y-147333524I707106J707106D01*
G01*
X172583415Y-148541584D02*
X172583415Y-147894393D01*
X172067499Y-149057500D02*
X172583415Y-148541584D01*
X170031946Y-149057500D02*
X172067499Y-149057500D01*
X168600863Y-148040631D02*
X169324839Y-148764607D01*
X168307970Y-140847493D02*
X168307970Y-147333524D01*
%TO.N,COL6*%
X180598855Y-162883665D02*
G75*
G02*
X180452410Y-163237218I-500001J0D01*
G01*
X179579383Y-164110245D02*
G75*
G02*
X179225829Y-164256692I-353553J353550D01*
G01*
X180598856Y-141652393D02*
X180662499Y-141588750D01*
X180598856Y-162883665D02*
X180598856Y-141652393D01*
X179579383Y-164110245D02*
X180452410Y-163237218D01*
X174122847Y-164256692D02*
X179225829Y-164256692D01*
X173831720Y-164216408D02*
X174024546Y-164254763D01*
X173650083Y-164141171D02*
X173831720Y-164216408D01*
X173486614Y-164031945D02*
X173650083Y-164141171D01*
X173415740Y-163963799D02*
X173486614Y-164031945D01*
X174024546Y-164254763D02*
X174122847Y-164256692D01*
X172334750Y-162885536D02*
X172405623Y-162953682D01*
X172171281Y-162776309D02*
X172334750Y-162885536D01*
X171989643Y-162701072D02*
X172171281Y-162776309D01*
X171698516Y-162660789D02*
X171796818Y-162662717D01*
X171796818Y-162662717D02*
X171989643Y-162701072D01*
X172405623Y-162953682D02*
X173415740Y-163963799D01*
X167685625Y-162660789D02*
X171698516Y-162660789D01*
%TO.N,COL0*%
X53926563Y-131918691D02*
X53926563Y-137484585D01*
%TO.N,ROW 2*%
X100456459Y-139223843D02*
G75*
G02*
X100185106Y-139084200I82199J493195D01*
G01*
%TO.N,COL0*%
X154467498Y-146016243D02*
G75*
G02*
X154174605Y-146723349I-999993J-3D01*
G01*
%TO.N,ROW 2*%
X100456459Y-139223843D02*
X114545966Y-141572094D01*
%TO.N,COL0*%
X71200208Y-139087658D02*
X71232306Y-139055560D01*
X55676083Y-139234104D02*
G75*
G02*
X55322530Y-139087659I0J500001D01*
G01*
X154171878Y-146723350D02*
X154174606Y-146723350D01*
%TO.N,ROW 2*%
X114916807Y-141572094D02*
G75*
G03*
X115270361Y-141425647I1J499997D01*
G01*
X96323000Y-138459594D02*
X96693078Y-138829672D01*
X99723471Y-138829673D02*
G75*
G02*
X100077024Y-138976118I0J-500001D01*
G01*
%TO.N,COL0*%
X100267243Y-139674476D02*
G75*
G02*
X100000878Y-139535690I87193J492348D01*
G01*
X100267243Y-139674476D02*
X106384421Y-140757759D01*
X71200208Y-139087658D02*
G75*
G02*
X70846654Y-139234105I-353553J353550D01*
G01*
X152901156Y-147996800D02*
X152901156Y-147994072D01*
X54073010Y-137838139D02*
G75*
G02*
X53926563Y-137484585I353550J353553D01*
G01*
X53213969Y-131918691D02*
X53926563Y-131918691D01*
X54073010Y-137838139D02*
X55322530Y-139087659D01*
X55676083Y-139234105D02*
X70846654Y-139234105D01*
X71585859Y-138909115D02*
G75*
G03*
X71232306Y-139055560I0J-500001D01*
G01*
X71585859Y-138909114D02*
X94882698Y-138909114D01*
X95236252Y-139055561D02*
G75*
G03*
X94882698Y-138909114I-353553J-353550D01*
G01*
X95236252Y-139055561D02*
X95313437Y-139132746D01*
X95666990Y-139279191D02*
G75*
G02*
X95313437Y-139132746I0J500001D01*
G01*
X95666990Y-139279192D02*
X99537273Y-139279192D01*
X152901156Y-147994072D02*
X154171878Y-146723350D01*
X99890827Y-139425639D02*
G75*
G03*
X99537273Y-139279192I-353553J-353550D01*
G01*
X99890827Y-139425639D02*
X100000878Y-139535690D01*
X106384421Y-140757759D02*
X152031559Y-148276404D01*
X152901155Y-147996799D02*
G75*
G02*
X152031559Y-148276403I-707086J707041D01*
G01*
X154467499Y-146016243D02*
X154467499Y-140123124D01*
%TO.N,ROW 2*%
X70129250Y-138459594D02*
X96323000Y-138459594D01*
X96693078Y-138829672D02*
X99723471Y-138829672D01*
X100077024Y-138976118D02*
X100185106Y-139084200D01*
X114545966Y-141572094D02*
X114916807Y-141572094D01*
X115270361Y-141425647D02*
X115880231Y-140815777D01*
%TO.N,Net-(D63-Pad2)*%
X185509518Y-184023734D02*
G75*
G03*
X185216625Y-183316628I-999993J3D01*
G01*
X183171501Y-181685717D02*
G75*
G02*
X183878607Y-181978610I3J-999993D01*
G01*
%TO.N,ROW4*%
X182342663Y-191236126D02*
G75*
G03*
X183214168Y-190956838I164400J986390D01*
G01*
X164164169Y-187781839D02*
G75*
G02*
X163292663Y-188061126I-707106J707106D01*
G01*
X119439305Y-180563397D02*
G75*
G03*
X119982012Y-180842684I707103J707100D01*
G01*
X166179374Y-188409718D02*
G75*
G02*
X165886481Y-187702611I707106J707106D01*
G01*
X65194782Y-178585451D02*
G75*
G03*
X65901889Y-178878344I707106J707106D01*
G01*
X117219526Y-179957732D02*
G75*
G02*
X116348020Y-180237019I-707106J707106D01*
G01*
X111091342Y-178878345D02*
G75*
G02*
X111798448Y-179171238I3J-999993D01*
G01*
X112483579Y-179592945D02*
G75*
G02*
X111940872Y-179313658I164396J986387D01*
G01*
%TO.N,ROW3*%
X72169722Y-158756316D02*
G75*
G03*
X72523275Y-158902762I353553J353556D01*
G01*
X93158292Y-158909565D02*
G75*
G03*
X93076093Y-158902762I-82207J-493296D01*
G01*
X104583959Y-160813843D02*
G75*
G02*
X104312606Y-160674200I82199J493195D01*
G01*
X100512768Y-159828344D02*
G75*
G03*
X100866322Y-159681897I1J499997D01*
G01*
X120826597Y-163308680D02*
G75*
G02*
X120390845Y-163448324I-353552J353548D01*
G01*
X123633960Y-163988843D02*
G75*
G02*
X123362606Y-163849200I82201J493202D01*
G01*
X139053614Y-166558785D02*
G75*
G03*
X139489367Y-166419141I82200J493195D01*
G01*
X142295216Y-167099052D02*
G75*
G02*
X142023863Y-166959409I82199J493195D01*
G01*
X158210655Y-169327087D02*
G75*
G02*
X157339149Y-169606374I-707106J707106D01*
G01*
%TO.N,Net-(D51-Pad2)*%
X171738558Y-159034595D02*
G75*
G02*
X172445664Y-159327488I3J-999993D01*
G01*
X166764619Y-159034595D02*
G75*
G03*
X166057513Y-159327488I-3J-999993D01*
G01*
X163090706Y-162294293D02*
G75*
G03*
X162797813Y-163001400I707106J-707106D01*
G01*
%TO.N,ROW 2*%
X138066615Y-145492201D02*
G75*
G02*
X137795262Y-145352558I82199J493195D01*
G01*
X137553626Y-145110922D02*
G75*
G02*
X137407179Y-144757368I353550J353553D01*
G01*
X143771687Y-146114371D02*
G75*
G02*
X143418133Y-146260818I-353553J353550D01*
G01*
X142637499Y-146254015D02*
G75*
G03*
X142719698Y-146260818I82207J493296D01*
G01*
X133163368Y-144674994D02*
G75*
G03*
X133599120Y-144535351I82198J493199D01*
G01*
X116292004Y-141897421D02*
G75*
G02*
X115880231Y-141405266I88227J492154D01*
G01*
X116560974Y-141945638D02*
G75*
G03*
X116649200Y-141953483I88224J492152D01*
G01*
%TO.N,ROW1*%
X100887667Y-119409595D02*
G75*
G02*
X101594773Y-119702488I3J-999993D01*
G01*
X102637712Y-120745423D02*
G75*
G03*
X103180419Y-121024710I707103J707100D01*
G01*
X113522402Y-122536106D02*
G75*
G02*
X113086650Y-122675750I-353552J353548D01*
G01*
X114948857Y-122891699D02*
G75*
G03*
X115220209Y-123031342I353551J353551D01*
G01*
X134797106Y-126294159D02*
G75*
G02*
X134525753Y-126154516I82199J493195D01*
G01*
X132572402Y-125711106D02*
G75*
G02*
X132136650Y-125850750I-353552J353548D01*
G01*
X150506293Y-128912356D02*
G75*
G03*
X150942045Y-128772713I82198J493199D01*
G01*
X152931466Y-129316552D02*
G75*
G02*
X152660113Y-129176909I82199J493195D01*
G01*
X169992045Y-131947713D02*
G75*
G02*
X169556293Y-132087357I-353552J353548D01*
G01*
%TO.N,ROW 2*%
X137553626Y-145110922D02*
X137795262Y-145352558D01*
X143771687Y-146114371D02*
X144160657Y-145725401D01*
X138066615Y-145492201D02*
X142637499Y-146254015D01*
X137407179Y-144376619D02*
X137407179Y-144757368D01*
X142719698Y-146260818D02*
X143418133Y-146260818D01*
X137341952Y-144311392D02*
X137407179Y-144376619D01*
X135250846Y-144311392D02*
X137341952Y-144311392D01*
X134930231Y-143990777D02*
X135250846Y-144311392D01*
X116983296Y-141953483D02*
X117013094Y-141983281D01*
X116292004Y-141897421D02*
X116560974Y-141945638D01*
X115880231Y-140815777D02*
X115880231Y-141405266D01*
X116649200Y-141953483D02*
X116983296Y-141953483D01*
X117013094Y-141983281D02*
X133163368Y-144674995D01*
X133599120Y-144535351D02*
X134143694Y-143990777D01*
X134143694Y-143990777D02*
X134930231Y-143990777D01*
%TO.N,COL15*%
X371599250Y-148016075D02*
X371138633Y-148476692D01*
X273440188Y-139937500D02*
X271992330Y-139937500D01*
X371138633Y-148476692D02*
X341175118Y-148476692D01*
X330369786Y-140570855D02*
X313640847Y-140570855D01*
X339760904Y-147890905D02*
X333905320Y-142035321D01*
X313287293Y-140717302D02*
X313255195Y-140749400D01*
X291984636Y-140498250D02*
X274000939Y-140498250D01*
X312901642Y-140895846D02*
X311473340Y-140895846D01*
X294158649Y-140498250D02*
X294158649Y-140823241D01*
X294158649Y-140823241D02*
X292309627Y-140823241D01*
X292309627Y-140823241D02*
X291984636Y-140498250D01*
X274000939Y-140498250D02*
X273440188Y-139937500D01*
X271992330Y-139937500D02*
X215319498Y-150499892D01*
X215319498Y-150499892D02*
X202694105Y-150499892D01*
X201986998Y-150206999D02*
X193200392Y-141420393D01*
%TO.N,COL14*%
X316573033Y-145843034D02*
X312221811Y-141491812D01*
%TO.N,COL15*%
X192907499Y-140713286D02*
X192907499Y-137621714D01*
%TO.N,COL14*%
X292123429Y-141272761D02*
X291798438Y-140947770D01*
%TO.N,COL15*%
X192614606Y-136914607D02*
X192481642Y-136781643D01*
X191774535Y-136488750D02*
X189762499Y-136488750D01*
%TO.N,COL14*%
X351822676Y-151112323D02*
X349277499Y-151112323D01*
X348277499Y-150112323D02*
X348277499Y-149987500D01*
X294344846Y-141272761D02*
X292123429Y-141272761D01*
X347277499Y-148987500D02*
X339398077Y-148987500D01*
X311868258Y-141345366D02*
X311280637Y-141345366D01*
X272033864Y-140387020D02*
X215538832Y-150916275D01*
X310927083Y-141198919D02*
X310822380Y-141094216D01*
X310468827Y-140947770D02*
X294608169Y-140947770D01*
X294608169Y-140947770D02*
X294608169Y-141009438D01*
X294608169Y-141009438D02*
X294344846Y-141272761D01*
X291798438Y-140947770D02*
X273814742Y-140947770D01*
X201800801Y-150656519D02*
X192750872Y-141606590D01*
X273814742Y-140947770D02*
X273253991Y-140387020D01*
X273253991Y-140387020D02*
X272033864Y-140387020D01*
X215538832Y-150916275D02*
X215505695Y-150949412D01*
X215505695Y-150949412D02*
X202507908Y-150949412D01*
X192457979Y-140899483D02*
X192457979Y-138222194D01*
X192165086Y-137515087D02*
X192085195Y-137435196D01*
X191731642Y-137288750D02*
X189762499Y-137288750D01*
%TO.N,COL7*%
X183862499Y-141588750D02*
X183862499Y-139026250D01*
%TO.N,COL8*%
X184362499Y-140124468D02*
X184362499Y-139026250D01*
X184662499Y-140424468D02*
X184362499Y-140124468D01*
X184662499Y-141588750D02*
X184662499Y-140424468D01*
%TO.N,COL9*%
X184862499Y-139988750D02*
X184862499Y-139026250D01*
X185462499Y-140588750D02*
X184862499Y-139988750D01*
X185462499Y-141588750D02*
X185462499Y-140588750D01*
%TO.N,COL10*%
X185362499Y-139839728D02*
X185362499Y-139026250D01*
X186262499Y-140739728D02*
X185362499Y-139839728D01*
X186262499Y-141588750D02*
X186262499Y-140739728D01*
%TO.N,COL11*%
X188238468Y-138849459D02*
X189077759Y-139688750D01*
X189077759Y-139688750D02*
X189762499Y-139688750D01*
X188238468Y-138519905D02*
X188238468Y-138849459D01*
X187907313Y-138188750D02*
X188238468Y-138519905D01*
X187199999Y-138188750D02*
X187907313Y-138188750D01*
%TO.N,COL12*%
X188913477Y-138888750D02*
X189762499Y-138888750D01*
X188687988Y-138333707D02*
X188687988Y-138663261D01*
X188043031Y-137688750D02*
X188687988Y-138333707D01*
X188687988Y-138663261D02*
X188913477Y-138888750D01*
X187199999Y-137688750D02*
X188043031Y-137688750D01*
%TO.N,COL13*%
X188178749Y-137188750D02*
X187199999Y-137188750D01*
X189078749Y-138088750D02*
X188178749Y-137188750D01*
X189762499Y-138088750D02*
X189078749Y-138088750D01*
%TO.N,COL14*%
X188378749Y-136688750D02*
X187199999Y-136688750D01*
X188978749Y-137288750D02*
X188378749Y-136688750D01*
X189762499Y-137288750D02*
X188978749Y-137288750D01*
%TO.N,COL15*%
X188687988Y-136188750D02*
X187199999Y-136188750D01*
X188987988Y-136488750D02*
X188687988Y-136188750D01*
X189762499Y-136488750D02*
X188987988Y-136488750D01*
%TO.N,Net-(D63-Pad2)*%
X185509519Y-184023734D02*
X185509519Y-185984661D01*
X183878608Y-181978609D02*
X185216626Y-183316627D01*
X180451316Y-181685716D02*
X183171501Y-181685716D01*
%TO.N,Net-(D51-Pad2)*%
X162797813Y-163001400D02*
X162797813Y-165548176D01*
X171738558Y-159034594D02*
X166764619Y-159034594D01*
X166057512Y-159327487D02*
X163090706Y-162294293D01*
X174380221Y-161262043D02*
X172445665Y-159327487D01*
%TO.N,ROW 2*%
X160888874Y-148907500D02*
X160888874Y-149460758D01*
X160888874Y-149460758D02*
X170557580Y-151144259D01*
X170557580Y-151144259D02*
X172010377Y-151144259D01*
%TO.N,Net-(C1-Pad1)*%
X183862499Y-132351250D02*
X183862499Y-129788750D01*
%TO.N,GND*%
X179434674Y-133183252D02*
X179427001Y-133183252D01*
X188477759Y-134688750D02*
X189077759Y-134088750D01*
X180524999Y-133688750D02*
X179940172Y-133688750D01*
X183362499Y-131088750D02*
X183062499Y-130788750D01*
X187308446Y-140514239D02*
X187637010Y-140514239D01*
X183362499Y-132351250D02*
X183362499Y-131088750D01*
X178740171Y-138888750D02*
X177962499Y-138888750D01*
X179940172Y-133688750D02*
X179434674Y-133183252D01*
X189077759Y-134088750D02*
X189762499Y-134088750D01*
X186362499Y-139026250D02*
X186362499Y-139568292D01*
X180524999Y-137688750D02*
X179940171Y-137688750D01*
X187199999Y-134688750D02*
X188477759Y-134688750D01*
X187862499Y-140739728D02*
X187862499Y-141588750D01*
X179940171Y-137688750D02*
X178740171Y-138888750D01*
X186362499Y-139568292D02*
X187308446Y-140514239D01*
X183062499Y-130788750D02*
X183062499Y-129788750D01*
X178732499Y-132488750D02*
X177962499Y-132488750D01*
X187637010Y-140514239D02*
X187862499Y-140739728D01*
X179427001Y-133183252D02*
X178732499Y-132488750D01*
%TO.N,XTAL1*%
X187199999Y-135688750D02*
X189762499Y-135688750D01*
%TO.N,+5V*%
X184362499Y-132351250D02*
X184362499Y-131088750D01*
X179037010Y-132149871D02*
X179037010Y-131914239D01*
X180524999Y-138188750D02*
X180075889Y-138188750D01*
X180524999Y-133188750D02*
X180075889Y-133188750D01*
X180075889Y-133188750D02*
X179037010Y-132149871D01*
X187199999Y-134188750D02*
X188013477Y-134188750D01*
X178811521Y-131688750D02*
X177962499Y-131688750D01*
X184362499Y-131088750D02*
X184662499Y-130788750D01*
X179037010Y-131914239D02*
X178811521Y-131688750D01*
X180891161Y-130866434D02*
X180662499Y-130637772D01*
X187062499Y-140904010D02*
X187062499Y-141588750D01*
X181224815Y-130866434D02*
X180891161Y-130866434D01*
X180662499Y-130637772D02*
X180662499Y-129788750D01*
X185862499Y-139704010D02*
X187062499Y-140904010D01*
X181862499Y-132351250D02*
X181862499Y-131504118D01*
X179037010Y-139227629D02*
X179037010Y-139463261D01*
X188013477Y-134188750D02*
X188913477Y-133288750D01*
X184662499Y-130788750D02*
X184662499Y-129788750D01*
X181862499Y-131504118D02*
X181224815Y-130866434D01*
X178811521Y-139688750D02*
X177962499Y-139688750D01*
X180075889Y-138188750D02*
X179037010Y-139227629D01*
X185862499Y-139026250D02*
X185862499Y-139704010D01*
X179037010Y-139463261D02*
X178811521Y-139688750D01*
X188913477Y-133288750D02*
X189762499Y-133288750D01*
%TO.N,XTAL2*%
X188913477Y-134888750D02*
X189762499Y-134888750D01*
X188613477Y-135188750D02*
X188913477Y-134888750D01*
X187199999Y-135188750D02*
X188613477Y-135188750D01*
%TO.N,ROW0*%
X165092731Y-111447027D02*
X165790914Y-112145210D01*
X253607700Y-104138958D02*
X252978269Y-103509527D01*
X106579250Y-101153344D02*
X107435500Y-100297094D01*
X181362499Y-132351250D02*
X181362499Y-131639836D01*
X313016750Y-101947094D02*
X347941750Y-101947094D01*
X365404250Y-101947094D02*
X366198000Y-102740844D01*
X312983993Y-101914337D02*
X313016750Y-101947094D01*
X234172027Y-107694617D02*
X233576624Y-107099214D01*
X271234519Y-100334527D02*
X290023067Y-100334527D01*
X181061956Y-131339293D02*
X180564020Y-131339293D01*
X182963672Y-115007336D02*
X183348981Y-114622027D01*
X145544029Y-108770729D02*
X146042731Y-108272027D01*
X107435500Y-99565844D02*
X107435500Y-100098656D01*
X180564020Y-131339293D02*
X179862499Y-130637772D01*
X309773782Y-101914337D02*
X312983993Y-101914337D01*
X106579250Y-101153344D02*
X108490188Y-101153344D01*
X88385500Y-101153344D02*
X106579250Y-101153344D01*
X126992731Y-105097027D02*
X127690914Y-105795210D01*
X110220282Y-102883438D02*
X126494029Y-105595729D01*
X252978269Y-104254109D02*
X234172027Y-107694617D01*
X252978269Y-103509527D02*
X252978269Y-104254109D01*
X146740914Y-108970210D02*
X164594029Y-111945729D01*
X164594029Y-111945729D02*
X165092731Y-111447027D01*
X126494029Y-105595729D02*
X126992731Y-105097027D01*
X108490188Y-101153344D02*
X110220282Y-102883438D01*
X271234519Y-100334527D02*
X271234519Y-100914219D01*
X181362499Y-131639836D02*
X181061956Y-131339293D01*
X294805868Y-101914337D02*
X309773782Y-101914337D01*
X347941750Y-101947094D02*
X365404250Y-101947094D01*
X107435500Y-100297094D02*
X107435500Y-99565844D01*
X271234519Y-100914219D02*
X253607700Y-104138958D01*
X233576624Y-107099214D02*
X233576624Y-107803543D01*
X290023067Y-100334527D02*
X291585500Y-98772094D01*
X291663625Y-98772094D02*
X294805868Y-101914337D01*
X69335500Y-101153344D02*
X88385500Y-101153344D01*
X215360994Y-111136002D02*
X214878269Y-110653277D01*
X179862499Y-130637772D02*
X179862499Y-129788750D01*
X146042731Y-108272027D02*
X146740914Y-108970210D01*
X127690914Y-105795210D02*
X145544029Y-108770729D01*
X233576624Y-107803543D02*
X215360994Y-111136002D01*
X291585500Y-98772094D02*
X291663625Y-98772094D01*
%TO.N,Net-(D9-Pad2)*%
X233003586Y-99687660D02*
X233003586Y-103849348D01*
X226607205Y-98687660D02*
X232003586Y-98687660D01*
%TO.N,Net-(D10-Pad2)*%
X252405231Y-96380411D02*
X252405231Y-100259661D01*
X245367455Y-95380411D02*
X251405231Y-95380411D01*
%TO.N,Net-(D11-Pad2)*%
X264128455Y-92071811D02*
X269661481Y-92071811D01*
X270661481Y-93071811D02*
X270661481Y-97084661D01*
%TO.N,Net-(D12-Pad2)*%
X285592676Y-89944200D02*
X290585500Y-89944200D01*
X291585500Y-90944200D02*
X291585500Y-95472094D01*
%TO.N,Net-(D13-Pad2)*%
X304642676Y-92612200D02*
X308773782Y-92612200D01*
X309773782Y-93612200D02*
X309773782Y-98614337D01*
%TO.N,Net-(D14-Pad2)*%
X313016750Y-92685442D02*
X313016750Y-98647094D01*
X323693179Y-92612229D02*
X323693179Y-89685442D01*
X321693179Y-87685442D02*
X318016750Y-87685442D01*
%TO.N,Net-(D15-Pad2)*%
X333218179Y-92612229D02*
X342743179Y-92612229D01*
%TO.N,Net-(D16-Pad2)*%
X377222676Y-92612200D02*
X376264668Y-91654192D01*
X366198000Y-96654192D02*
X366198000Y-99440844D01*
X376264668Y-91654192D02*
X371198000Y-91654192D01*
%TO.N,ROW1*%
X323324009Y-120997094D02*
X347148000Y-120997094D01*
X264372491Y-120690305D02*
X264884519Y-120178277D01*
X347148000Y-120997094D02*
X365404250Y-120997094D01*
X208624063Y-130454729D02*
X208624063Y-129997787D01*
X227784228Y-127284594D02*
X228327298Y-127284594D01*
X133342731Y-124940777D02*
X133342731Y-124971494D01*
X264884519Y-120178277D02*
X284466817Y-120178277D01*
X115220209Y-123031343D02*
X132136650Y-125850750D01*
X150942045Y-128772713D02*
X151598981Y-128115777D01*
X184862499Y-132351250D02*
X184862499Y-131224468D01*
X304285500Y-120997094D02*
X323324009Y-120997094D01*
X227404902Y-127453342D02*
X227426262Y-127431982D01*
X70923000Y-119409594D02*
X94735500Y-119409594D01*
X133342731Y-124971494D02*
X134525753Y-126154516D01*
X134797106Y-126294159D02*
X150506293Y-128912357D01*
X103180419Y-121024711D02*
X113086650Y-122675750D01*
X185462499Y-130624468D02*
X185462499Y-129788750D01*
X132572402Y-125711106D02*
X133342731Y-124940777D01*
X246163922Y-123549116D02*
X246563228Y-123948422D01*
X101594774Y-119702487D02*
X102637711Y-120745424D01*
X114292731Y-122235575D02*
X114948856Y-122891700D01*
X169992045Y-131947713D02*
X170648981Y-131290777D01*
X152931466Y-129316552D02*
X163870510Y-131139726D01*
X208624063Y-129997787D02*
X209377621Y-130751343D01*
X151598981Y-128115777D02*
X152660113Y-129176909D01*
X246563228Y-123948422D02*
X264372491Y-120690305D01*
X209377621Y-130751343D02*
X227404902Y-127453342D01*
X113522402Y-122536106D02*
X114292731Y-121765777D01*
X285235500Y-119409594D02*
X290854250Y-119409594D01*
X227426262Y-127431982D02*
X227426262Y-126926628D01*
X292379250Y-120934594D02*
X304223000Y-120934594D01*
X114292731Y-121765777D02*
X114292731Y-122235575D01*
X365404250Y-120997094D02*
X366198000Y-121790844D01*
X228327298Y-127284594D02*
X245585801Y-124127237D01*
X245585801Y-124127237D02*
X246163922Y-123549116D01*
X304223000Y-120934594D02*
X304285500Y-120997094D01*
X94735500Y-119409594D02*
X100887667Y-119409594D01*
X290854250Y-119409594D02*
X292379250Y-120934594D01*
X284466817Y-120178277D02*
X285235500Y-119409594D01*
X227426262Y-126926628D02*
X227784228Y-127284594D01*
X184862499Y-131224468D02*
X185462499Y-130624468D01*
%TO.N,Net-(D23-Pad2)*%
X208172383Y-123410760D02*
X208172383Y-127083505D01*
X208172383Y-127083505D02*
X208051025Y-127204863D01*
X201774455Y-122410760D02*
X207172383Y-122410760D01*
%TO.N,Net-(D24-Pad2)*%
X220995073Y-118641692D02*
X226222383Y-118641692D01*
X220534705Y-119102060D02*
X220995073Y-118641692D01*
X227222383Y-119641692D02*
X227222383Y-123307603D01*
X227222383Y-123307603D02*
X226853224Y-123676762D01*
%TO.N,Net-(D25-Pad2)*%
X239294705Y-115794536D02*
X244590884Y-115794536D01*
X245590884Y-116794536D02*
X245590884Y-120299250D01*
%TO.N,Net-(D26-Pad2)*%
X264311481Y-113486260D02*
X264311481Y-116928411D01*
X258055955Y-112486260D02*
X263311481Y-112486260D01*
%TO.N,Net-(D28-Pad2)*%
X298737176Y-111660950D02*
X303285500Y-111660950D01*
X304285500Y-112660950D02*
X304285500Y-117697094D01*
%TO.N,Net-(D29-Pad2)*%
X323324009Y-112660950D02*
X323324009Y-117697094D01*
X317787176Y-111660950D02*
X322324009Y-111660950D01*
%TO.N,Net-(D31-Pad2)*%
X377222676Y-111660950D02*
X367198000Y-111660950D01*
X366198000Y-112660950D02*
X366198000Y-118490844D01*
%TO.N,ROW 2*%
X312111633Y-140048730D02*
X312184238Y-140121335D01*
X273051544Y-138762799D02*
X273051544Y-138913138D01*
X254480643Y-142489928D02*
X254238589Y-142247874D01*
X273051544Y-138762799D02*
X273051544Y-139092474D01*
X351318735Y-139104855D02*
X364600674Y-139104855D01*
X273051544Y-139092474D02*
X254480643Y-142489928D01*
X235554710Y-145636143D02*
X235554710Y-145952333D01*
X293234138Y-140048730D02*
X312111633Y-140048730D01*
X350302255Y-140121335D02*
X351318735Y-139104855D01*
X274187136Y-140048730D02*
X293234138Y-140048730D01*
X254238589Y-142534211D02*
X237283045Y-145636143D01*
X364600674Y-139104855D02*
X366198000Y-140702181D01*
X312184238Y-140121335D02*
X350302255Y-140121335D01*
X237283045Y-145636143D02*
X235554710Y-145636143D01*
X235554710Y-145952333D02*
X218233197Y-149121218D01*
X218233197Y-149121218D02*
X216870831Y-149121218D01*
X254238589Y-142247874D02*
X254238589Y-142534211D01*
X273051544Y-138913138D02*
X274187136Y-140048730D01*
%TO.N,Net-(D38-Pad2)*%
X209771955Y-140344586D02*
X215297793Y-140344586D01*
X216297793Y-141344586D02*
X216297793Y-145871352D01*
%TO.N,Net-(D39-Pad2)*%
X234981672Y-138035885D02*
X234981672Y-142386277D01*
X228532705Y-137035885D02*
X233981672Y-137035885D01*
%TO.N,Net-(D41-Pad2)*%
X266054205Y-130419910D02*
X271478506Y-130419910D01*
X272478506Y-131419910D02*
X272478506Y-135512933D01*
%TO.N,Net-(D42-Pad2)*%
X293234138Y-131710950D02*
X293234138Y-136748730D01*
X287687676Y-130710950D02*
X292234138Y-130710950D01*
%TO.N,Net-(D44-Pad2)*%
X342356107Y-132175416D02*
X344521080Y-134340389D01*
X348056614Y-135804855D02*
X351318735Y-135804855D01*
X337693676Y-130710950D02*
X338820573Y-130710950D01*
%TO.N,Net-(D45-Pad2)*%
X366198000Y-131710950D02*
X366198000Y-137402181D01*
X377222676Y-130710950D02*
X367198000Y-130710950D01*
%TO.N,ROW3*%
X161986327Y-168559594D02*
X162224775Y-168798042D01*
X159727482Y-168559594D02*
X161986327Y-168559594D01*
X72523275Y-158902762D02*
X93076093Y-158902762D01*
X101941750Y-158303344D02*
X104312606Y-160674200D01*
X93158292Y-158909565D02*
X98670966Y-159828344D01*
X229412762Y-165834490D02*
X229412762Y-166231465D01*
X248150423Y-162392440D02*
X248150423Y-162803503D01*
X229748344Y-166170072D02*
X229412762Y-165834490D01*
X286760122Y-159014928D02*
X287003998Y-159258804D01*
X211100368Y-169581626D02*
X210909519Y-169390777D01*
X306042839Y-159194265D02*
X332211597Y-159194265D01*
X305978300Y-159258804D02*
X306042839Y-159194265D01*
X229412762Y-166231465D02*
X211100368Y-169581626D01*
X266909597Y-159371606D02*
X248497914Y-162739931D01*
X100866322Y-159681897D02*
X101879250Y-158668969D01*
X140486481Y-165422027D02*
X142023863Y-166959409D01*
X332211597Y-159194265D02*
X332260365Y-159145497D01*
X121888250Y-162374844D02*
X123362606Y-163849200D01*
X248150423Y-162803503D02*
X229748344Y-166170072D01*
X350588835Y-164373111D02*
X363577643Y-164373111D01*
X98670966Y-159828344D02*
X100512768Y-159828344D01*
X332260365Y-159145497D02*
X341219085Y-159145497D01*
X142295216Y-167099052D02*
X157339149Y-169606374D01*
X104583959Y-160813843D02*
X120390845Y-163448324D01*
X266909597Y-159014928D02*
X266909597Y-159371606D01*
X120826597Y-163308680D02*
X121888250Y-162247027D01*
X139489367Y-166419141D02*
X140486481Y-165422027D01*
X287003998Y-159258804D02*
X305978300Y-159258804D01*
X344754619Y-160609963D02*
X347053301Y-162908645D01*
X121888250Y-162247027D02*
X121888250Y-162374844D01*
X248497914Y-162739931D02*
X248150423Y-162392440D01*
X101879250Y-158668969D02*
X101879250Y-158303344D01*
X101879250Y-158303344D02*
X101941750Y-158303344D01*
X70923000Y-157509594D02*
X72169722Y-158756316D01*
X266909597Y-159014928D02*
X286760122Y-159014928D01*
X123633960Y-163988843D02*
X139053614Y-166558785D01*
X159352815Y-168184927D02*
X159727482Y-168559594D01*
X158210655Y-169327087D02*
X159352815Y-168184927D01*
%TO.N,Net-(D53-Pad2)*%
X222460455Y-157450861D02*
X227839724Y-157450861D01*
X228839724Y-158450861D02*
X228839724Y-162584624D01*
%TO.N,Net-(D54-Pad2)*%
X241220955Y-154142961D02*
X246577385Y-154142961D01*
X247577385Y-155142961D02*
X247577385Y-159142574D01*
%TO.N,Net-(D56-Pad2)*%
X287003998Y-150711650D02*
X287003998Y-155958804D01*
X281592176Y-149711650D02*
X286003998Y-149711650D01*
%TO.N,Net-(D57-Pad2)*%
X300642176Y-149711650D02*
X305042839Y-149711650D01*
X306042839Y-150711650D02*
X306042839Y-155894265D01*
%TO.N,Net-(D58-Pad2)*%
X326835926Y-149711650D02*
X331260365Y-149711650D01*
X332260365Y-150711650D02*
X332260365Y-155845497D01*
%TO.N,Net-(D59-Pad2)*%
X363577643Y-155523950D02*
X363577643Y-161073111D01*
X358172676Y-154523950D02*
X362577643Y-154523950D01*
%TO.N,ROW4*%
X118261481Y-178915777D02*
X117219526Y-179957732D01*
X111940871Y-179313659D02*
X111798449Y-179171237D01*
X232139851Y-182761493D02*
X229512533Y-185388811D01*
X363626047Y-183299009D02*
X363722855Y-183395817D01*
X65194782Y-178585451D02*
X63817827Y-177208496D01*
X166338407Y-188568751D02*
X167785948Y-188810007D01*
X118261481Y-178915777D02*
X118261481Y-179385575D01*
X225976999Y-186853277D02*
X205353269Y-186853277D01*
X118261481Y-179385575D02*
X119439304Y-180563398D01*
X165886481Y-186059527D02*
X165886481Y-187702611D01*
X166179374Y-188409718D02*
X166338407Y-188568751D01*
X363722855Y-183395817D02*
X366772296Y-183395817D01*
X183214169Y-190956839D02*
X184936481Y-189234527D01*
X167785948Y-188810007D02*
X182342663Y-191236126D01*
X164164169Y-187781839D02*
X165886481Y-186059527D01*
X119982012Y-180842685D02*
X163292663Y-188061126D01*
X116348020Y-180237019D02*
X112483579Y-179592946D01*
X326339970Y-181882814D02*
X327170379Y-182713223D01*
X328584592Y-183299009D02*
X344554938Y-183299009D01*
X344554938Y-183299009D02*
X363626047Y-183299009D01*
X111091342Y-178878344D02*
X65901889Y-178878344D01*
X253772019Y-181297027D02*
X324925756Y-181297027D01*
X253772019Y-181297027D02*
X235675385Y-181297027D01*
%TO.N,Net-(D64-Pad2)*%
X214628017Y-178089401D02*
X210578473Y-182138945D01*
X223423205Y-176624935D02*
X218163551Y-176624935D01*
X207042939Y-183603411D02*
X204780231Y-183603411D01*
%TO.N,Net-(D65-Pad2)*%
X253198981Y-171120379D02*
X253198981Y-178047161D01*
X263558844Y-171120379D02*
X253198981Y-171120379D01*
%TO.N,Net-(D66-Pad2)*%
X339122676Y-173574050D02*
X343697383Y-173574050D01*
X344697383Y-179856564D02*
X344554938Y-179999009D01*
X344697383Y-174574050D02*
X344697383Y-179856564D01*
%TO.N,Net-(D68-Pad2)*%
X377222676Y-173574050D02*
X377059068Y-173410442D01*
X377059068Y-173410442D02*
X367922383Y-173410442D01*
X366922383Y-174410442D02*
X366922383Y-179945730D01*
X366922383Y-179945730D02*
X366772296Y-180095817D01*
%TO.N,MISO*%
X186362499Y-132351250D02*
X186362499Y-131631622D01*
X187862499Y-130637772D02*
X187862499Y-129788750D01*
X186681340Y-131312781D02*
X187187490Y-131312781D01*
X187187490Y-131312781D02*
X187862499Y-130637772D01*
X186362499Y-131631622D02*
X186681340Y-131312781D01*
%TO.N,SCK*%
X185362499Y-131360186D02*
X186262499Y-130460186D01*
X186262499Y-130460186D02*
X186262499Y-129788750D01*
X185362499Y-132351250D02*
X185362499Y-131360186D01*
%TO.N,MOSI*%
X187062499Y-130637772D02*
X187062499Y-129788750D01*
X186837010Y-130863261D02*
X187062499Y-130637772D01*
X185862499Y-132351250D02*
X185862499Y-131495904D01*
X186495142Y-130863261D02*
X186837010Y-130863261D01*
X185862499Y-131495904D02*
X186495142Y-130863261D01*
%TO.N,RESET*%
X187877759Y-133688750D02*
X189077759Y-132488750D01*
X189077759Y-132488750D02*
X189762499Y-132488750D01*
X187199999Y-133688750D02*
X187877759Y-133688750D01*
%TO.N,COL0*%
X179411521Y-134688750D02*
X178811521Y-134088750D01*
X180524999Y-134688750D02*
X179411521Y-134688750D01*
%TO.N,COL1*%
X76199250Y-103812284D02*
X71800210Y-103812284D01*
X71800210Y-107784884D02*
X76474250Y-107784884D01*
X70800210Y-104812284D02*
X70800210Y-106784884D01*
X178811521Y-134888750D02*
X177962499Y-134888750D01*
X180524999Y-135188750D02*
X179111521Y-135188750D01*
X179111521Y-135188750D02*
X178811521Y-134888750D01*
%TO.N,COL2*%
X95449250Y-104261804D02*
X71949730Y-104261804D01*
X71249730Y-104961804D02*
X71249730Y-106635364D01*
X71949730Y-107335364D02*
X81456176Y-107335364D01*
X180524999Y-135688750D02*
X177962499Y-135688750D01*
%TO.N,COL3*%
X104660448Y-104711324D02*
X72199250Y-104711324D01*
X115525602Y-106676346D02*
X104720183Y-104771059D01*
X104720183Y-104771059D02*
X104660448Y-104711324D01*
X71699250Y-105211324D02*
X71699250Y-106385844D01*
X180524999Y-136188750D02*
X179037010Y-136188750D01*
X179037010Y-136188750D02*
X178737010Y-136488750D01*
X178737010Y-136488750D02*
X177962499Y-136488750D01*
%TO.N,COL4*%
X137038883Y-110469719D02*
X169175785Y-116136324D01*
X169648770Y-118285364D02*
X168788052Y-118285364D01*
X168745347Y-118242659D02*
X130425552Y-111485844D01*
X135691268Y-109377862D02*
X136505424Y-110192018D01*
X170148770Y-116636324D02*
X170148770Y-117785364D01*
X169175785Y-116136324D02*
X169648770Y-116136324D01*
X179402499Y-136658750D02*
X178772499Y-137288750D01*
X180524999Y-136688750D02*
X179432499Y-136688750D01*
X179432499Y-136688750D02*
X179402499Y-136658750D01*
X178772499Y-137288750D02*
X177962499Y-137288750D01*
%TO.N,COL5*%
X142644273Y-114096789D02*
X168527710Y-118660739D01*
X178904453Y-138088750D02*
X177962499Y-138088750D01*
X179804453Y-137188750D02*
X178904453Y-138088750D01*
X180524999Y-137188750D02*
X179804453Y-137188750D01*
%TO.N,COL6*%
X171047810Y-116237284D02*
X171047810Y-118184404D01*
X170047810Y-119184404D02*
X168415657Y-119184404D01*
X168310072Y-119078819D02*
X161404773Y-117861227D01*
X168415657Y-119184404D02*
X168310072Y-119078819D01*
X169254440Y-115237284D02*
X170047810Y-115237284D01*
X166200602Y-114698809D02*
X169254440Y-115237284D01*
%TO.N,COL7*%
X202372904Y-115524217D02*
X201306356Y-115712284D01*
X201306356Y-115712284D02*
X200374730Y-115712284D01*
X200374730Y-119659404D02*
X202282842Y-119659404D01*
X202282842Y-119659404D02*
X202417913Y-119524333D01*
X199374730Y-116712284D02*
X199374730Y-118659404D01*
X202417913Y-119524333D02*
X203550596Y-119324604D01*
%TO.N,COL8*%
X220972904Y-112700885D02*
X201345682Y-116161804D01*
X202886435Y-177110364D02*
X202224250Y-177110364D01*
X202224250Y-174911123D02*
X202656853Y-174911123D01*
X201724250Y-176610364D02*
X201724250Y-175411123D01*
X202691431Y-174904635D02*
X203083560Y-174831056D01*
X202656853Y-174911123D02*
X202691431Y-174904635D01*
X202200273Y-119106255D02*
X213548589Y-117105177D01*
X200524250Y-119209884D02*
X202096644Y-119209884D01*
X201345682Y-116161804D02*
X200524250Y-116161804D01*
X202096644Y-119209884D02*
X202200273Y-119106255D01*
X199824250Y-116861804D02*
X199824250Y-118509884D01*
%TO.N,COL9*%
X232447415Y-111134009D02*
X239772904Y-109842287D01*
X232407743Y-111134009D02*
X232447415Y-111134009D01*
X232399250Y-111142502D02*
X232407743Y-111134009D01*
X201385008Y-116611324D02*
X232399250Y-111142502D01*
%TO.N,COL10*%
X303423770Y-163561324D02*
X303423770Y-164735364D01*
X289955049Y-104524284D02*
X291533469Y-105822892D01*
X258152882Y-108835364D02*
X257858939Y-108835364D01*
X257858939Y-108835364D02*
X252775596Y-109731723D01*
X302923770Y-165235364D02*
X265875529Y-165235364D01*
X260592659Y-106161793D02*
X271829487Y-104144889D01*
X296673719Y-106050658D02*
X296688053Y-106036324D01*
X292168807Y-106050658D02*
X296673719Y-106050658D01*
X265613052Y-163061324D02*
X302923770Y-163061324D01*
X308698770Y-107036324D02*
X308698770Y-107210364D01*
X288321950Y-106258571D02*
X272307076Y-106258571D01*
X289802861Y-104378737D02*
X289883281Y-104459157D01*
X258216537Y-108771710D02*
X258152882Y-108835364D01*
X272130409Y-106274300D02*
X258216537Y-108771710D01*
X307698770Y-108210364D02*
X291402266Y-108210364D01*
X271829487Y-104144889D02*
X271888532Y-104085844D01*
X296688053Y-106036324D02*
X307698770Y-106036324D01*
X265567871Y-163106505D02*
X265613052Y-163061324D01*
X271888532Y-104085844D02*
X289095754Y-104085844D01*
%TO.N,COL12*%
X299949250Y-105137284D02*
X308597810Y-105137284D01*
X309597810Y-106137284D02*
X309597810Y-108109404D01*
X292387176Y-110109404D02*
X292387176Y-114200950D01*
X308597810Y-109109404D02*
X293387176Y-109109404D01*
D43*
%TO.N,D-*%
X181462499Y-130503756D02*
X181462499Y-129788750D01*
X182362499Y-131403756D02*
X181462499Y-130503756D01*
X182362499Y-132351250D02*
X182362499Y-131403756D01*
%TO.N,D+*%
X182862499Y-132351250D02*
X182862499Y-131338750D01*
X182862499Y-131338750D02*
X182262499Y-130738750D01*
X182262499Y-130738750D02*
X182262499Y-129788750D01*
D41*
%TO.N,Net-(D27-Pad2)*%
X285235500Y-111442650D02*
X285235500Y-116109594D01*
X279687176Y-110442650D02*
X284235500Y-110442650D01*
%TO.N,Net-(D30-Pad2)*%
X347148000Y-112660950D02*
X347148000Y-117697094D01*
X341600676Y-111660950D02*
X346148000Y-111660950D01*
%TO.N,Net-(D40-Pad2)*%
X247292955Y-133728611D02*
X252665551Y-133728611D01*
X253665551Y-134728611D02*
X253665551Y-138998008D01*
%TO.N,Net-(D52-Pad2)*%
X210336481Y-161758760D02*
X210336481Y-166140911D01*
X203699955Y-160758760D02*
X209336481Y-160758760D01*
%TO.N,Net-(D55-Pad2)*%
X266336559Y-151834961D02*
X266336559Y-155765062D01*
X259981455Y-150834961D02*
X265336559Y-150834961D01*
%TO.N,Net-(D62-Pad2)*%
X149965361Y-176310220D02*
X156464802Y-182809661D01*
X156464802Y-182809661D02*
X166459519Y-182809661D01*
X149551861Y-175896720D02*
X149965361Y-176310220D01*
X147620287Y-175896720D02*
X149551861Y-175896720D01*
%TO.N,Net-(D63-Pad2)*%
X178106242Y-181272216D02*
X180037816Y-181272216D01*
X180037816Y-181272216D02*
X180451316Y-181685716D01*
%TO.N,Net-(D67-Pad2)*%
X358172676Y-173574050D02*
X362722855Y-173574050D01*
X363722855Y-174574050D02*
X363722855Y-180095817D01*
%TO.N,Net-(D32-Pad2)*%
X59563969Y-129378691D02*
X64326469Y-129378691D01*
%TD*%
M02*
