%TF.GenerationSoftware,KiCad,Pcbnew,(6.0.1)*%
%TF.CreationDate,2022-01-26T01:35:16+07:00*%
%TF.ProjectId,Maja V1 PCB Redesign,4d616a61-2056-4312-9050-434220526564,rev?*%
%TF.SameCoordinates,Original*%
%TF.FileFunction,Legend,Top*%
%TF.FilePolarity,Positive*%
%FSLAX46Y46*%
G04 Gerber Fmt 4.6, Leading zero omitted, Abs format (unit mm)*
G04 Created by KiCad (PCBNEW (6.0.1)) date 2022-01-26 01:35:16*
%MOMM*%
%LPD*%
G01*
G04 APERTURE LIST*
%ADD10C,0.150000*%
G04 APERTURE END LIST*
D10*
%TO.C,K8*%
X204211543Y-100259702D02*
X204037895Y-99274894D01*
X204774290Y-100160474D02*
X204253002Y-99672147D01*
X204600642Y-99175666D02*
X204137122Y-99837641D01*
X205237810Y-99498499D02*
X205135750Y-99468142D01*
X205080585Y-99429515D01*
X205017151Y-99343993D01*
X205008883Y-99297097D01*
X205039240Y-99195037D01*
X205077867Y-99139872D01*
X205163389Y-99076439D01*
X205350972Y-99043363D01*
X205453032Y-99073721D01*
X205508196Y-99112347D01*
X205571630Y-99197870D01*
X205579899Y-99244765D01*
X205549541Y-99346825D01*
X205510914Y-99401990D01*
X205425392Y-99465423D01*
X205237810Y-99498499D01*
X205152288Y-99561933D01*
X205113661Y-99617097D01*
X205083303Y-99719158D01*
X205116379Y-99906740D01*
X205179813Y-99992262D01*
X205234977Y-100030889D01*
X205337037Y-100061247D01*
X205524620Y-100028171D01*
X205610142Y-99964737D01*
X205648769Y-99909573D01*
X205679126Y-99807512D01*
X205646050Y-99619930D01*
X205582617Y-99534408D01*
X205527452Y-99495781D01*
X205425392Y-99465423D01*
%TO.C,K39*%
X224428837Y-135381765D02*
X224255188Y-134396958D01*
X224991584Y-135282538D02*
X224470296Y-134794211D01*
X224817936Y-134297730D02*
X224354416Y-134959705D01*
X225146205Y-134239847D02*
X225755848Y-134132351D01*
X225493730Y-134565398D01*
X225634417Y-134540591D01*
X225736477Y-134570949D01*
X225791642Y-134609576D01*
X225855075Y-134695098D01*
X225896420Y-134929576D01*
X225866063Y-135031636D01*
X225827436Y-135086801D01*
X225741914Y-135150234D01*
X225460540Y-135199848D01*
X225358480Y-135169490D01*
X225303315Y-135130864D01*
X226398452Y-135034469D02*
X226586035Y-135001393D01*
X226671557Y-134937960D01*
X226710183Y-134882795D01*
X226779168Y-134725570D01*
X226792988Y-134529719D01*
X226726836Y-134154554D01*
X226663402Y-134069032D01*
X226608238Y-134030405D01*
X226506178Y-134000047D01*
X226318595Y-134033123D01*
X226233073Y-134096557D01*
X226194446Y-134151721D01*
X226164089Y-134253782D01*
X226205433Y-134488260D01*
X226268867Y-134573782D01*
X226324032Y-134612408D01*
X226426092Y-134642766D01*
X226613674Y-134609690D01*
X226699196Y-134546257D01*
X226737823Y-134491092D01*
X226768181Y-134389032D01*
%TO.C,K38*%
X205668087Y-138690466D02*
X205494438Y-137705659D01*
X206230834Y-138591239D02*
X205709546Y-138102912D01*
X206057186Y-137606431D02*
X205593666Y-138268406D01*
X206385455Y-137548548D02*
X206995098Y-137441052D01*
X206732980Y-137874099D01*
X206873667Y-137849292D01*
X206975727Y-137879650D01*
X207030892Y-137918277D01*
X207094325Y-138003799D01*
X207135670Y-138238277D01*
X207105313Y-138340337D01*
X207066686Y-138395502D01*
X206981164Y-138458935D01*
X206699790Y-138508549D01*
X206597730Y-138478191D01*
X206542565Y-138439565D01*
X207632266Y-137763885D02*
X207530206Y-137733527D01*
X207475041Y-137694900D01*
X207411608Y-137609378D01*
X207403339Y-137562483D01*
X207433696Y-137460422D01*
X207472323Y-137405258D01*
X207557845Y-137341824D01*
X207745428Y-137308748D01*
X207847488Y-137339106D01*
X207902652Y-137377733D01*
X207966086Y-137463255D01*
X207974355Y-137510151D01*
X207943997Y-137612211D01*
X207905371Y-137667375D01*
X207819848Y-137730809D01*
X207632266Y-137763885D01*
X207546744Y-137827318D01*
X207508117Y-137882483D01*
X207477759Y-137984543D01*
X207510835Y-138172125D01*
X207574269Y-138257648D01*
X207629433Y-138296274D01*
X207731493Y-138326632D01*
X207919076Y-138293556D01*
X208004598Y-138230123D01*
X208043225Y-138174958D01*
X208073582Y-138072898D01*
X208040507Y-137885315D01*
X207977073Y-137799793D01*
X207921908Y-137761167D01*
X207819848Y-137730809D01*
%TD*%
M02*
