M48
; DRILL file {KiCad (6.0.1)} date Wed Jan 26 13:35:24 2022
; FORMAT={-:-/ absolute / metric / decimal}
; #@! TF.CreationDate,2022-01-26T13:35:24+07:00
; #@! TF.GenerationSoftware,Kicad,Pcbnew,(6.0.1)
; #@! TF.FileFunction,Plated,1,2,PTH
FMAT,2
METRIC
; #@! TA.AperFunction,Plated,PTH,ViaDrill
T1C0.400
; #@! TA.AperFunction,Plated,PTH,ComponentDrill
T2C0.650
; #@! TA.AperFunction,Plated,PTH,ComponentDrill
T3C1.000
; #@! TA.AperFunction,Plated,PTH,ComponentDrill
T4C1.500
%
G90
G05
T1
X59.112Y-141.084
X77.199Y-101.894
X77.474Y-109.685
X82.456Y-109.059
X84.799Y-141.136
X96.449Y-102.014
X103.949Y-108.912
X105.357Y-144.647
X111.539Y-163.156
X116.699Y-104.743
X122.71Y-112.707
X124.092Y-148.123
X129.249Y-170.761
X130.165Y-165.85
X135.398Y-107.938
X141.471Y-115.801
X142.853Y-150.872
X144.161Y-145.725
X154.158Y-111.186
X160.231Y-119.331
X160.889Y-148.907
X163.871Y-131.14
X165.374Y-112.964
X167.686Y-172.049
X171.259Y-177.995
X172.817Y-170.332
X172.892Y-145.107
X174.467Y-128.632
X175.017Y-151.732
X175.317Y-115.062
X178.246Y-122.894
X180.351Y-118.902
X181.458Y-151.643
X182.667Y-169.432
X185.562Y-114.614
X186.661Y-120.911
X186.917Y-109.382
X188.506Y-120.086
X189.517Y-146.782
X193.017Y-151.632
X195.867Y-141.082
X197.199Y-157.066
X198.367Y-151.582
X199.14Y-101.453
X203.199Y-113.789
X204.198Y-91.005
X204.517Y-136.282
X204.724Y-120.904
X205.149Y-178.384
X206.485Y-123.663
X206.54Y-124.689
X206.917Y-93.514
X209.267Y-86.582
X210.36Y-125.556
X211.889Y-131.111
X212.017Y-149.775
X212.391Y-112.008
X213.738Y-128.151
X214.277Y-131.238
X214.722Y-119.764
X214.884Y-128.499
X215.19Y-91.907
X215.824Y-155.862
X216.417Y-87.582
X216.95Y-128.402
X217.674Y-169.764
X220.704Y-136.346
X221.799Y-110.727
X222.749Y-97.279
X225.465Y-134.791
X230.517Y-132.932
X233.267Y-129.432
X233.482Y-115.961
X234.524Y-151.821
X235.567Y-132.932
X236.417Y-124.482
X240.599Y-107.464
X251.949Y-112.087
X253.249Y-148.14
X255.224Y-162.418
X257.746Y-168.867
X259.416Y-104.403
X273.337Y-109.141
X273.974Y-144.693
X279.824Y-101.347
X292.999Y-145.363
X298.949Y-102.77
X312.149Y-145.256
X351.823Y-151.112
X371.599Y-148.016
T3
X235.935Y-128.112
X235.935Y-130.652
X238.475Y-128.112
X238.475Y-130.652
X241.015Y-128.112
X241.015Y-130.652
T4
X51.976Y-170.089
X53.214Y-131.919
X57.691Y-93.818
X57.976Y-131.919
X58.326Y-167.549
X58.644Y-112.868
X59.112Y-151.039
X59.564Y-129.379
X64.041Y-91.278
X64.326Y-129.379
X64.994Y-110.328
X65.462Y-148.499
X76.741Y-93.818
X82.456Y-112.868
X83.091Y-91.278
X84.171Y-131.918
X88.806Y-110.328
X90.077Y-151.039
X90.521Y-129.378
X95.791Y-92.231
X96.427Y-148.499
X102.141Y-89.691
X103.949Y-112.735
X105.332Y-132.322
X106.893Y-172.27
X110.644Y-111.336
X111.403Y-152.737
X112.026Y-130.923
X113.588Y-170.871
X116.638Y-95.628
X118.098Y-151.338
X122.71Y-116.042
X123.332Y-94.229
X124.092Y-135.631
X129.405Y-114.644
X130.165Y-156.045
X130.787Y-134.232
X135.398Y-98.936
X136.86Y-154.646
X140.926Y-177.295
X141.471Y-119.351
X142.093Y-97.538
X142.853Y-138.938
X143.271Y-177.709
X147.62Y-175.897
X148.165Y-117.952
X148.925Y-159.353
X149.548Y-137.539
X149.965Y-176.31
X154.158Y-102.244
X155.619Y-157.954
X160.231Y-122.659
X160.853Y-100.846
X161.613Y-142.246
X166.926Y-121.26
X167.686Y-162.661
X168.308Y-140.847
X171.412Y-182.671
X172.92Y-105.552
X173.757Y-183.084
X174.38Y-161.262
X178.106Y-181.272
X179.615Y-104.153
X180.451Y-181.686
X195.962Y-126.015
X197.887Y-164.363
X201.774Y-122.411
X202.034Y-105.601
X203.7Y-160.759
X203.959Y-143.949
X207.846Y-101.997
X209.772Y-140.345
X214.722Y-122.706
X216.648Y-161.055
X217.611Y-180.229
X220.535Y-119.102
X220.795Y-102.292
X222.46Y-157.451
X222.72Y-140.64
X223.423Y-176.625
X226.607Y-98.688
X228.533Y-137.036
X233.482Y-119.399
X235.408Y-157.747
X239.295Y-115.795
X239.555Y-98.984
X241.221Y-154.143
X241.48Y-137.333
X245.367Y-95.38
X247.293Y-133.729
X252.243Y-116.09
X254.169Y-154.439
X257.746Y-174.724
X258.056Y-112.486
X258.316Y-95.676
X259.981Y-150.835
X260.242Y-134.024
X263.559Y-171.12
X264.128Y-92.072
X266.054Y-130.42
X273.337Y-112.983
X275.242Y-152.252
X279.243Y-92.484
X279.687Y-110.443
X281.338Y-133.251
X281.592Y-149.712
X285.593Y-89.944
X287.688Y-130.711
X292.387Y-114.201
X294.292Y-152.252
X298.293Y-95.152
X298.737Y-111.661
X300.388Y-133.251
X300.642Y-149.712
X304.643Y-92.612
X306.738Y-130.711
X311.437Y-114.201
X317.343Y-95.152
X317.787Y-111.661
X320.486Y-152.252
X323.693Y-92.612
X326.836Y-149.712
X326.868Y-95.152
X331.344Y-133.251
X332.773Y-176.114
X333.218Y-92.612
X335.251Y-114.201
X336.393Y-95.152
X337.694Y-130.711
X339.123Y-173.574
X341.601Y-111.661
X342.743Y-92.612
X351.823Y-157.064
X351.823Y-176.114
X358.173Y-154.524
X358.173Y-173.574
X370.873Y-95.152
X370.873Y-114.201
X370.873Y-133.251
X370.873Y-176.114
X377.223Y-92.612
X377.223Y-111.661
X377.223Y-130.711
X377.223Y-173.574
T2
G00X208.117Y-78.92
M15
G01X208.117Y-79.52
M16
G05
G00X208.117Y-82.85
M15
G01X208.117Y-83.95
M16
G05
G00X216.757Y-78.92
M15
G01X216.757Y-79.52
M16
G05
G00X216.757Y-82.85
M15
G01X216.757Y-83.95
M16
G05
T0
M30
