%TF.GenerationSoftware,KiCad,Pcbnew,(6.0.1)*%
%TF.CreationDate,2022-01-26T13:37:34+07:00*%
%TF.ProjectId,Maja V1 PCB Redesign,4d616a61-2056-4312-9050-434220526564,rev?*%
%TF.SameCoordinates,Original*%
%TF.FileFunction,Legend,Top*%
%TF.FilePolarity,Positive*%
%FSLAX46Y46*%
G04 Gerber Fmt 4.6, Leading zero omitted, Abs format (unit mm)*
G04 Created by KiCad (PCBNEW (6.0.1)) date 2022-01-26 13:37:34*
%MOMM*%
%LPD*%
G01*
G04 APERTURE LIST*
%ADD10C,0.150000*%
G04 APERTURE END LIST*
D10*
X198842140Y-76082321D02*
X226092140Y-76082321D01*
X226092140Y-76082321D02*
X226092140Y-88182321D01*
X226092140Y-88182321D02*
X198842140Y-88182321D01*
X198842140Y-88182321D02*
X198842140Y-76082321D01*
G36*
X198842140Y-76082321D02*
G01*
X226092140Y-76082321D01*
X226092140Y-88182321D01*
X198842140Y-88182321D01*
X198842140Y-76082321D01*
G37*
X266392140Y-183482321D02*
X389792140Y-183482321D01*
X389792140Y-183482321D02*
X389792140Y-188482321D01*
X389792140Y-188482321D02*
X266392140Y-188482321D01*
X266392140Y-188482321D02*
X266392140Y-183482321D01*
G36*
X266392140Y-183482321D02*
G01*
X389792140Y-183482321D01*
X389792140Y-188482321D01*
X266392140Y-188482321D01*
X266392140Y-183482321D01*
G37*
X40267140Y-178782321D02*
X94767140Y-178782321D01*
X94767140Y-178782321D02*
X94767140Y-183782321D01*
X94767140Y-183782321D02*
X40267140Y-183782321D01*
X40267140Y-183782321D02*
X40267140Y-178782321D01*
G36*
X40267140Y-178782321D02*
G01*
X94767140Y-178782321D01*
X94767140Y-183782321D01*
X40267140Y-183782321D01*
X40267140Y-178782321D01*
G37*
X380317140Y-188632321D02*
X385317140Y-188632321D01*
X385317140Y-188632321D02*
X385317140Y-65232321D01*
X385317140Y-65232321D02*
X380317140Y-65232321D01*
X380317140Y-65232321D02*
X380317140Y-188632321D01*
G36*
X380317140Y-188632321D02*
G01*
X385317140Y-188632321D01*
X385317140Y-65232321D01*
X380317140Y-65232321D01*
X380317140Y-188632321D01*
G37*
X377781430Y-183482465D02*
G75*
G03*
X380281429Y-180931968I-997J2501476D01*
G01*
X47817140Y-90732321D02*
X47752850Y-91532175D01*
X47752850Y-91532175D02*
X47517140Y-91532321D01*
X47517140Y-91532321D02*
X46917140Y-91632321D01*
X46917140Y-91632321D02*
X46067140Y-92132321D01*
X46067140Y-92132321D02*
X45667140Y-92682321D01*
X45667140Y-92682321D02*
X45317140Y-93332321D01*
X45317140Y-93332321D02*
X45252851Y-94082674D01*
X45252851Y-94082674D02*
X44467140Y-94882321D01*
X44467140Y-94882321D02*
X43567140Y-93382321D01*
X43567140Y-93382321D02*
X43217140Y-91432321D01*
X43217140Y-91432321D02*
X45367140Y-90682321D01*
X45367140Y-90682321D02*
X47817140Y-90732321D01*
G36*
X47817140Y-90732321D02*
G01*
X47752850Y-91532175D01*
X47517140Y-91532321D01*
X46917140Y-91632321D01*
X46067140Y-92132321D01*
X45667140Y-92682321D01*
X45317140Y-93332321D01*
X45252851Y-94082674D01*
X44467140Y-94882321D01*
X43567140Y-93382321D01*
X43217140Y-91432321D01*
X45367140Y-90682321D01*
X47817140Y-90732321D01*
G37*
X47817140Y-90732321D02*
X47752850Y-91532175D01*
X47517140Y-91532321D01*
X46917140Y-91632321D01*
X46067140Y-92132321D01*
X45667140Y-92682321D01*
X45317140Y-93332321D01*
X45252851Y-94082674D01*
X44467140Y-94882321D01*
X43567140Y-93382321D01*
X43217140Y-91432321D01*
X45367140Y-90682321D01*
X47817140Y-90732321D01*
X377717140Y-184282321D02*
X377781430Y-183482467D01*
X377781430Y-183482467D02*
X378017140Y-183482321D01*
X378017140Y-183482321D02*
X378617140Y-183382321D01*
X378617140Y-183382321D02*
X379467140Y-182882321D01*
X379467140Y-182882321D02*
X379867140Y-182332321D01*
X379867140Y-182332321D02*
X380217140Y-181682321D01*
X380217140Y-181682321D02*
X380281429Y-180931968D01*
X380281429Y-180931968D02*
X381067140Y-180132321D01*
X381067140Y-180132321D02*
X381967140Y-181632321D01*
X381967140Y-181632321D02*
X382317140Y-183582321D01*
X382317140Y-183582321D02*
X380167140Y-184332321D01*
X380167140Y-184332321D02*
X377717140Y-184282321D01*
G36*
X381967140Y-181632321D02*
G01*
X382317140Y-183582321D01*
X380167140Y-184332321D01*
X377717140Y-184282321D01*
X377781430Y-183482467D01*
X378017140Y-183482321D01*
X378617140Y-183382321D01*
X379467140Y-182882321D01*
X379867140Y-182332321D01*
X380217140Y-181682321D01*
X380281429Y-180931968D01*
X381067140Y-180132321D01*
X381967140Y-181632321D01*
G37*
X381967140Y-181632321D02*
X382317140Y-183582321D01*
X380167140Y-184332321D01*
X377717140Y-184282321D01*
X377781430Y-183482467D01*
X378017140Y-183482321D01*
X378617140Y-183382321D01*
X379467140Y-182882321D01*
X379867140Y-182332321D01*
X380217140Y-181682321D01*
X380281429Y-180931968D01*
X381067140Y-180132321D01*
X381967140Y-181632321D01*
X380317284Y-93968031D02*
G75*
G03*
X377766787Y-91468032I-2501476J-997D01*
G01*
X381117140Y-94032321D02*
X380317286Y-93968031D01*
X380317286Y-93968031D02*
X380317140Y-93732321D01*
X380317140Y-93732321D02*
X380217140Y-93132321D01*
X380217140Y-93132321D02*
X379717140Y-92282321D01*
X379717140Y-92282321D02*
X379167140Y-91882321D01*
X379167140Y-91882321D02*
X378517140Y-91532321D01*
X378517140Y-91532321D02*
X377766787Y-91468032D01*
X377766787Y-91468032D02*
X376967140Y-90682321D01*
X376967140Y-90682321D02*
X378467140Y-89782321D01*
X378467140Y-89782321D02*
X380417140Y-89432321D01*
X380417140Y-89432321D02*
X381167140Y-91582321D01*
X381167140Y-91582321D02*
X381117140Y-94032321D01*
G36*
X381167140Y-91582321D02*
G01*
X381117140Y-94032321D01*
X380317286Y-93968031D01*
X380317140Y-93732321D01*
X380217140Y-93132321D01*
X379717140Y-92282321D01*
X379167140Y-91882321D01*
X378517140Y-91532321D01*
X377766787Y-91468032D01*
X376967140Y-90682321D01*
X378467140Y-89782321D01*
X380417140Y-89432321D01*
X381167140Y-91582321D01*
G37*
X381167140Y-91582321D02*
X381117140Y-94032321D01*
X380317286Y-93968031D01*
X380317140Y-93732321D01*
X380217140Y-93132321D01*
X379717140Y-92282321D01*
X379167140Y-91882321D01*
X378517140Y-91532321D01*
X377766787Y-91468032D01*
X376967140Y-90682321D01*
X378467140Y-89782321D01*
X380417140Y-89432321D01*
X381167140Y-91582321D01*
X44417140Y-176232321D02*
X45216994Y-176296611D01*
X45216994Y-176296611D02*
X45217140Y-176532321D01*
X45217140Y-176532321D02*
X45317140Y-177132321D01*
X45317140Y-177132321D02*
X45817140Y-177982321D01*
X45817140Y-177982321D02*
X46367140Y-178382321D01*
X46367140Y-178382321D02*
X47017140Y-178732321D01*
X47017140Y-178732321D02*
X47767493Y-178796610D01*
X47767493Y-178796610D02*
X48567140Y-179582321D01*
X48567140Y-179582321D02*
X47067140Y-180482321D01*
X47067140Y-180482321D02*
X45117140Y-180832321D01*
X45117140Y-180832321D02*
X44367140Y-178682321D01*
X44367140Y-178682321D02*
X44417140Y-176232321D01*
G36*
X45216994Y-176296611D02*
G01*
X45217140Y-176532321D01*
X45317140Y-177132321D01*
X45817140Y-177982321D01*
X46367140Y-178382321D01*
X47017140Y-178732321D01*
X47767493Y-178796610D01*
X48567140Y-179582321D01*
X47067140Y-180482321D01*
X45117140Y-180832321D01*
X44367140Y-178682321D01*
X44417140Y-176232321D01*
X45216994Y-176296611D01*
G37*
X45216994Y-176296611D02*
X45217140Y-176532321D01*
X45317140Y-177132321D01*
X45817140Y-177982321D01*
X46367140Y-178382321D01*
X47017140Y-178732321D01*
X47767493Y-178796610D01*
X48567140Y-179582321D01*
X47067140Y-180482321D01*
X45117140Y-180832321D01*
X44367140Y-178682321D01*
X44417140Y-176232321D01*
X45216994Y-176296611D01*
X47752850Y-91532177D02*
G75*
G03*
X45252851Y-94082674I997J-2501476D01*
G01*
X45216996Y-176296611D02*
G75*
G03*
X47767493Y-178796610I2501476J997D01*
G01*
X188517140Y-193782321D02*
X266392140Y-183482321D01*
X266392140Y-183482321D02*
X266392140Y-188482321D01*
X266392140Y-188482321D02*
X188804461Y-198668584D01*
X188804461Y-198668584D02*
X94767140Y-183882321D01*
X94767140Y-183882321D02*
X94767140Y-178782321D01*
X94767140Y-178782321D02*
X188517140Y-193782321D01*
G36*
X188517140Y-193782321D02*
G01*
X266392140Y-183482321D01*
X266392140Y-188482321D01*
X188804461Y-198668584D01*
X94767140Y-183882321D01*
X94767140Y-178782321D01*
X188517140Y-193782321D01*
G37*
X188517140Y-193782321D02*
X266392140Y-183482321D01*
X266392140Y-188482321D01*
X188804461Y-198668584D01*
X94767140Y-183882321D01*
X94767140Y-178782321D01*
X188517140Y-193782321D01*
X387967140Y-91482321D02*
X41317140Y-91482321D01*
X41317140Y-91482321D02*
X41317140Y-86482321D01*
X41317140Y-86482321D02*
X387967140Y-86482321D01*
X387967140Y-86482321D02*
X387967140Y-91482321D01*
G36*
X387967140Y-91482321D02*
G01*
X41317140Y-91482321D01*
X41317140Y-86482321D01*
X387967140Y-86482321D01*
X387967140Y-91482321D01*
G37*
X40217140Y-204232321D02*
X45217140Y-204232321D01*
X45217140Y-204232321D02*
X45217140Y-80832321D01*
X45217140Y-80832321D02*
X40217140Y-80832321D01*
X40217140Y-80832321D02*
X40217140Y-204232321D01*
G36*
X40217140Y-204232321D02*
G01*
X45217140Y-204232321D01*
X45217140Y-80832321D01*
X40217140Y-80832321D01*
X40217140Y-204232321D01*
G37*
%TO.C,K8*%
X204211543Y-100259702D02*
X204037895Y-99274894D01*
X204774290Y-100160474D02*
X204253002Y-99672147D01*
X204600642Y-99175666D02*
X204137122Y-99837641D01*
X205237810Y-99498499D02*
X205135750Y-99468142D01*
X205080585Y-99429515D01*
X205017151Y-99343993D01*
X205008883Y-99297097D01*
X205039240Y-99195037D01*
X205077867Y-99139872D01*
X205163389Y-99076439D01*
X205350972Y-99043363D01*
X205453032Y-99073721D01*
X205508196Y-99112347D01*
X205571630Y-99197870D01*
X205579899Y-99244765D01*
X205549541Y-99346825D01*
X205510914Y-99401990D01*
X205425392Y-99465423D01*
X205237810Y-99498499D01*
X205152288Y-99561933D01*
X205113661Y-99617097D01*
X205083303Y-99719158D01*
X205116379Y-99906740D01*
X205179813Y-99992262D01*
X205234977Y-100030889D01*
X205337037Y-100061247D01*
X205524620Y-100028171D01*
X205610142Y-99964737D01*
X205648769Y-99909573D01*
X205679126Y-99807512D01*
X205646050Y-99619930D01*
X205582617Y-99534408D01*
X205527452Y-99495781D01*
X205425392Y-99465423D01*
%TD*%
M02*
