%TF.GenerationSoftware,KiCad,Pcbnew,(6.0.1)*%
%TF.CreationDate,2022-01-26T13:37:34+07:00*%
%TF.ProjectId,Maja V1 PCB Redesign,4d616a61-2056-4312-9050-434220526564,rev?*%
%TF.SameCoordinates,Original*%
%TF.FileFunction,Soldermask,Top*%
%TF.FilePolarity,Negative*%
%FSLAX46Y46*%
G04 Gerber Fmt 4.6, Leading zero omitted, Abs format (unit mm)*
G04 Created by KiCad (PCBNEW (6.0.1)) date 2022-01-26 13:37:34*
%MOMM*%
%LPD*%
G01*
G04 APERTURE LIST*
%ADD10C,3.624758*%
%ADD11C,1.924879*%
%ADD12C,0.150000*%
%ADD13C,1.849879*%
%ADD14C,1.700000*%
%ADD15C,4.000000*%
%ADD16C,2.200000*%
%ADD17C,3.050000*%
%ADD18C,0.700000*%
%ADD19O,1.050000X2.100000*%
%ADD20R,1.700000X1.700000*%
G04 APERTURE END LIST*
D10*
X152041012Y-90066692D02*
G75*
G03*
X152041012Y-90066692I-1812379J0D01*
G01*
D11*
X192139491Y-112640764D02*
G75*
G03*
X192139491Y-112640764I-962439J0D01*
G01*
D12*
X51586001Y80209500D02*
G75*
G03*
X51586001Y80209500I-1J0D01*
G01*
D11*
X192339491Y-188640764D02*
G75*
G03*
X192339491Y-188640764I-962439J0D01*
G01*
D13*
X301280741Y-175742746D02*
G75*
G03*
X301280741Y-175742746I-924939J0D01*
G01*
D11*
X84639503Y-173640769D02*
G75*
G03*
X84639503Y-173640769I-962439J0D01*
G01*
D12*
X51586001Y80209500D02*
G75*
G03*
X51586001Y80209500I-1J0D01*
G01*
D11*
X360439485Y-115640758D02*
G75*
G03*
X360439485Y-115640758I-962439J0D01*
G01*
X45639479Y-96640770D02*
G75*
G03*
X45639479Y-96640770I-962439J0D01*
G01*
D14*
%TO.C,K40*%
X250676499Y-138290368D03*
X240670853Y-140054633D03*
D15*
X245673676Y-139172501D03*
D16*
X241480492Y-137332689D03*
X247292955Y-133728611D03*
%TD*%
D14*
%TO.C,K31*%
X369602676Y-116740950D03*
X379762676Y-116740950D03*
D15*
X374682676Y-116740950D03*
D16*
X370872676Y-114200950D03*
X377222676Y-111660950D03*
%TD*%
D14*
%TO.C,K54*%
X244604499Y-158704718D03*
X234598853Y-160468983D03*
D15*
X239601676Y-159586851D03*
D16*
X235408492Y-157747039D03*
X241220955Y-154142961D03*
%TD*%
D14*
%TO.C,K33*%
X93061026Y-134458350D03*
D15*
X87981026Y-134458350D03*
D14*
X82901026Y-134458350D03*
D16*
X84171026Y-131918350D03*
X90521026Y-129378350D03*
%TD*%
D14*
%TO.C,K62*%
X141578993Y-179989844D03*
D17*
X159516566Y-176044736D03*
D15*
X133431743Y-186920380D03*
D17*
X136078142Y-171911909D03*
D14*
X151584640Y-181754110D03*
D15*
X146581817Y-180871977D03*
X156870168Y-191053206D03*
D16*
X143270765Y-177708966D03*
X149965361Y-176310220D03*
%TD*%
D15*
%TO.C,K21*%
X144781677Y-122513775D03*
D14*
X139778853Y-121631642D03*
X149784500Y-123395908D03*
D16*
X141470625Y-119350764D03*
X148165221Y-117952018D03*
%TD*%
D15*
%TO.C,K16*%
X374682676Y-97692200D03*
D14*
X369602676Y-97692200D03*
X379762676Y-97692200D03*
D16*
X370872676Y-95152200D03*
X377222676Y-92612200D03*
%TD*%
D14*
%TO.C,K6*%
X162472249Y-106289408D03*
X152466602Y-104525142D03*
D15*
X157469426Y-105407275D03*
D16*
X154158374Y-102244264D03*
X160852970Y-100845518D03*
%TD*%
D14*
%TO.C,K69*%
X335758179Y-97692229D03*
D15*
X330678179Y-97692229D03*
D14*
X325598179Y-97692229D03*
D17*
X342578179Y-90692229D03*
D15*
X342578179Y-105932229D03*
D17*
X318778179Y-90692229D03*
D15*
X318778179Y-105932229D03*
D16*
X326868179Y-95152229D03*
X333218179Y-92612229D03*
%TD*%
D14*
%TO.C,K48*%
X109711603Y-155017667D03*
D15*
X114714427Y-155899800D03*
D14*
X119717250Y-156781933D03*
D16*
X111403375Y-152736789D03*
X118097971Y-151338043D03*
%TD*%
D14*
%TO.C,K2*%
X75470626Y-96358200D03*
D15*
X80550626Y-96358200D03*
D14*
X85630626Y-96358200D03*
D16*
X76740626Y-93818200D03*
X83090626Y-91278200D03*
%TD*%
D15*
%TO.C,K70*%
X154525094Y-190639706D03*
D17*
X133733068Y-171498409D03*
D15*
X131086669Y-186506880D03*
X144236743Y-180458477D03*
D14*
X149239566Y-181340610D03*
X139233919Y-179576344D03*
D17*
X157171492Y-175631236D03*
D16*
X140925691Y-177295466D03*
X147620287Y-175896720D03*
%TD*%
D14*
%TO.C,K14*%
X316073179Y-97692229D03*
D15*
X321153179Y-97692229D03*
D14*
X326233179Y-97692229D03*
D16*
X317343179Y-95152229D03*
X323693179Y-92612229D03*
%TD*%
D15*
%TO.C,K65*%
X261939565Y-176564269D03*
D14*
X266942388Y-175682136D03*
X256936742Y-177446401D03*
D16*
X257746381Y-174724457D03*
X263558844Y-171120379D03*
%TD*%
D14*
%TO.C,K56*%
X284132176Y-154791650D03*
D15*
X279052176Y-154791650D03*
D14*
X273972176Y-154791650D03*
D16*
X275242176Y-152251650D03*
X281592176Y-149711650D03*
%TD*%
D14*
%TO.C,K52*%
X197077853Y-167084782D03*
X207083499Y-165320517D03*
D15*
X202080676Y-166202650D03*
D16*
X197887492Y-164362838D03*
X203699955Y-160758760D03*
%TD*%
D14*
%TO.C,K3*%
X94520626Y-94770700D03*
D15*
X99600626Y-94770700D03*
D14*
X104680626Y-94770700D03*
D16*
X95790626Y-92230700D03*
X102140626Y-89690700D03*
%TD*%
D15*
%TO.C,K36*%
X146164176Y-142100900D03*
D14*
X141161352Y-141218767D03*
X151166999Y-142983033D03*
D16*
X142853124Y-138937889D03*
X149547720Y-137539143D03*
%TD*%
D14*
%TO.C,K37*%
X159921602Y-144527117D03*
D15*
X164924426Y-145409250D03*
D14*
X169927249Y-146291383D03*
D16*
X161613374Y-142246239D03*
X168307970Y-140847493D03*
%TD*%
D14*
%TO.C,K27*%
X272067176Y-115522650D03*
D15*
X277147176Y-115522650D03*
D14*
X282227176Y-115522650D03*
D16*
X273337176Y-112982650D03*
X279687176Y-110442650D03*
%TD*%
D17*
%TO.C,K64*%
X208869177Y-177241584D03*
D14*
X226806749Y-181186692D03*
X216801103Y-182950957D03*
D17*
X232307601Y-173108757D03*
D15*
X221803926Y-182068825D03*
X211515575Y-192250054D03*
X234953999Y-188117227D03*
D16*
X217610742Y-180229013D03*
X223423205Y-176624935D03*
%TD*%
D14*
%TO.C,K51*%
X175999500Y-166705933D03*
X165993853Y-164941667D03*
D15*
X170996677Y-165823800D03*
D16*
X167685625Y-162660789D03*
X174380221Y-161262043D03*
%TD*%
D15*
%TO.C,K1*%
X61500626Y-96358200D03*
D14*
X56420626Y-96358200D03*
X66580626Y-96358200D03*
D16*
X57690626Y-93818200D03*
X64040626Y-91278200D03*
%TD*%
D14*
%TO.C,K22*%
X168545000Y-126703933D03*
X158539353Y-124939667D03*
D15*
X163542177Y-125821800D03*
D16*
X160231125Y-122658789D03*
X166925721Y-121260043D03*
%TD*%
D14*
%TO.C,K11*%
X267511999Y-96633568D03*
X257506353Y-98397833D03*
D15*
X262509176Y-97515701D03*
D16*
X258315992Y-95675889D03*
X264128455Y-92071811D03*
%TD*%
D15*
%TO.C,K35*%
X127403177Y-138793600D03*
D14*
X132406000Y-139675733D03*
X122400353Y-137911467D03*
D16*
X124092125Y-135630589D03*
X130786721Y-134231843D03*
%TD*%
D14*
%TO.C,K18*%
X81186176Y-115408350D03*
X91346176Y-115408350D03*
D15*
X86266176Y-115408350D03*
D16*
X82456176Y-112868350D03*
X88806176Y-110328350D03*
%TD*%
D14*
%TO.C,K44*%
X330073676Y-135790950D03*
D15*
X347053676Y-144030950D03*
D14*
X340233676Y-135790950D03*
D17*
X347053676Y-128790950D03*
D15*
X335153676Y-135790950D03*
D17*
X323253676Y-128790950D03*
D15*
X323253676Y-144030950D03*
D16*
X331343676Y-133250950D03*
X337693676Y-130710950D03*
%TD*%
D15*
%TO.C,K50*%
X152235926Y-162515800D03*
D14*
X147233102Y-161633667D03*
X157238749Y-163397933D03*
D16*
X148924874Y-159352789D03*
X155619470Y-157954043D03*
%TD*%
D14*
%TO.C,K34*%
X103639802Y-134602767D03*
D15*
X108642626Y-135484900D03*
D14*
X113645449Y-136367033D03*
D16*
X105331574Y-132321889D03*
X112026170Y-130923143D03*
%TD*%
D14*
%TO.C,K26*%
X261439499Y-117048017D03*
D15*
X256436676Y-117930150D03*
D14*
X251433853Y-118812282D03*
D16*
X252243492Y-116090338D03*
X258055955Y-112486260D03*
%TD*%
D15*
%TO.C,K10*%
X243748176Y-100824301D03*
D14*
X238745353Y-101706433D03*
X248750999Y-99942168D03*
D16*
X239554992Y-98984489D03*
X245367455Y-95380411D03*
%TD*%
D14*
%TO.C,K63*%
X182070595Y-187129606D03*
D15*
X177067772Y-186247473D03*
D14*
X172064948Y-185365340D03*
D16*
X173756720Y-183084462D03*
X180451316Y-181685716D03*
%TD*%
D15*
%TO.C,K15*%
X340203179Y-97692229D03*
D14*
X345283179Y-97692229D03*
X335123179Y-97692229D03*
D16*
X336393179Y-95152229D03*
X342743179Y-92612229D03*
%TD*%
D15*
%TO.C,K20*%
X126021426Y-119205448D03*
D14*
X131024249Y-120087581D03*
X121018602Y-118323315D03*
D16*
X122710374Y-116042437D03*
X129404970Y-114643691D03*
%TD*%
D14*
%TO.C,K17*%
X67533676Y-115408350D03*
D15*
X62453676Y-115408350D03*
D14*
X57373676Y-115408350D03*
D16*
X58643676Y-112868350D03*
X64993676Y-110328350D03*
%TD*%
D14*
%TO.C,K7*%
X181234249Y-109597333D03*
D15*
X176231426Y-108715200D03*
D14*
X171228602Y-107833067D03*
D16*
X172920374Y-105552189D03*
X179614970Y-104153443D03*
%TD*%
D15*
%TO.C,K19*%
X107260526Y-115897800D03*
D14*
X102257702Y-115015667D03*
X112263349Y-116779933D03*
D16*
X103949474Y-112734789D03*
X110644070Y-111336043D03*
%TD*%
D14*
%TO.C,K5*%
X133706603Y-101217167D03*
X143712250Y-102981433D03*
D15*
X138709427Y-102099300D03*
D16*
X135398375Y-98936289D03*
X142092971Y-97537543D03*
%TD*%
D15*
%TO.C,K24*%
X218915426Y-124545950D03*
D14*
X223918249Y-123663817D03*
X213912603Y-125428082D03*
D16*
X214722242Y-122706138D03*
X220534705Y-119102060D03*
%TD*%
D15*
%TO.C,K28*%
X296197176Y-116740950D03*
D14*
X301277176Y-116740950D03*
X291117176Y-116740950D03*
D16*
X292387176Y-114200950D03*
X298737176Y-111660950D03*
%TD*%
D15*
%TO.C,K67*%
X355632676Y-178654050D03*
D14*
X350552676Y-178654050D03*
X360712676Y-178654050D03*
D16*
X351822676Y-176114050D03*
X358172676Y-173574050D03*
%TD*%
D14*
%TO.C,K59*%
X350552676Y-159603950D03*
X360712676Y-159603950D03*
D15*
X355632676Y-159603950D03*
D16*
X351822676Y-157063950D03*
X358172676Y-154523950D03*
%TD*%
D14*
%TO.C,K8*%
X211229999Y-106558268D03*
D15*
X206227176Y-107440401D03*
D14*
X201224353Y-108322533D03*
D16*
X202033992Y-105600589D03*
X207846455Y-101996511D03*
%TD*%
D14*
%TO.C,K9*%
X229990749Y-103249417D03*
X219985103Y-105013682D03*
D15*
X224987926Y-104131550D03*
D16*
X220794742Y-102291738D03*
X226607205Y-98687660D03*
%TD*%
D15*
%TO.C,K39*%
X226913426Y-142479775D03*
D14*
X231916249Y-141597642D03*
X221910603Y-143361907D03*
D16*
X222720242Y-140639963D03*
X228532705Y-137035885D03*
%TD*%
D14*
%TO.C,K49*%
X138479000Y-160089933D03*
D15*
X133476177Y-159207800D03*
D14*
X128473353Y-158325667D03*
D16*
X130165125Y-156044789D03*
X136859721Y-154646043D03*
%TD*%
D15*
%TO.C,K43*%
X304197676Y-135790950D03*
D14*
X299117676Y-135790950D03*
X309277676Y-135790950D03*
D16*
X300387676Y-133250950D03*
X306737676Y-130710950D03*
%TD*%
D14*
%TO.C,K47*%
X88806519Y-153578991D03*
X98966519Y-153578991D03*
D15*
X93886519Y-153578991D03*
D16*
X90076519Y-151038991D03*
X96426519Y-148498991D03*
%TD*%
D14*
%TO.C,K58*%
X319215926Y-154791650D03*
X329375926Y-154791650D03*
D15*
X324295926Y-154791650D03*
D16*
X320485926Y-152251650D03*
X326835926Y-149711650D03*
%TD*%
D15*
%TO.C,K29*%
X315247176Y-116740950D03*
D14*
X310167176Y-116740950D03*
X320327176Y-116740950D03*
D16*
X311437176Y-114200950D03*
X317787176Y-111660950D03*
%TD*%
D15*
%TO.C,K23*%
X200155176Y-127854650D03*
D14*
X205157999Y-126972517D03*
X195152353Y-128736782D03*
D16*
X195961992Y-126014838D03*
X201774455Y-122410760D03*
%TD*%
D15*
%TO.C,K71*%
X174722698Y-185833973D03*
D14*
X179725521Y-186716106D03*
X169719874Y-184951840D03*
D16*
X171411646Y-182670962D03*
X178106242Y-181272216D03*
%TD*%
D14*
%TO.C,K61*%
X105201220Y-174551034D03*
D15*
X110204044Y-175433167D03*
D14*
X115206867Y-176315300D03*
D16*
X106892992Y-172270156D03*
X113587588Y-170871410D03*
%TD*%
D14*
%TO.C,K45*%
X369602676Y-135790950D03*
D15*
X374682676Y-135790950D03*
D14*
X379762676Y-135790950D03*
D16*
X370872676Y-133250950D03*
X377222676Y-130710950D03*
%TD*%
D15*
%TO.C,K42*%
X285147676Y-135790950D03*
D14*
X290227676Y-135790950D03*
X280067676Y-135790950D03*
D16*
X281337676Y-133250950D03*
X287687676Y-130710950D03*
%TD*%
D14*
%TO.C,K25*%
X242678249Y-120356293D03*
X232672603Y-122120558D03*
D15*
X237675426Y-121238426D03*
D16*
X233482242Y-119398614D03*
X239294705Y-115794536D03*
%TD*%
D15*
%TO.C,K32*%
X61786469Y-134458691D03*
D14*
X66866469Y-134458691D03*
X56706469Y-134458691D03*
D16*
X57976469Y-131918691D03*
X64326469Y-129378691D03*
%TD*%
D14*
%TO.C,K38*%
X213155499Y-144906343D03*
D15*
X208152676Y-145788476D03*
D14*
X203149853Y-146670608D03*
D16*
X203959492Y-143948664D03*
X209771955Y-140344586D03*
%TD*%
D15*
%TO.C,K46*%
X51021615Y-161819046D03*
X62921615Y-153579046D03*
D17*
X51021615Y-146579046D03*
D14*
X68001615Y-153579046D03*
D17*
X74821615Y-146579046D03*
D14*
X57841615Y-153579046D03*
D15*
X74821615Y-161819046D03*
D16*
X59111615Y-151039046D03*
X65461615Y-148499046D03*
%TD*%
D15*
%TO.C,K68*%
X374682676Y-178654050D03*
D14*
X369602676Y-178654050D03*
X379762676Y-178654050D03*
D16*
X370872676Y-176114050D03*
X377222676Y-173574050D03*
%TD*%
D15*
%TO.C,K30*%
X339060676Y-116740950D03*
D14*
X333980676Y-116740950D03*
X344140676Y-116740950D03*
D16*
X335250676Y-114200950D03*
X341600676Y-111660950D03*
%TD*%
D14*
%TO.C,K57*%
X303182176Y-154791650D03*
X293022176Y-154791650D03*
D15*
X298102176Y-154791650D03*
D16*
X294292176Y-152251650D03*
X300642176Y-149711650D03*
%TD*%
D14*
%TO.C,K66*%
X331502676Y-178654050D03*
X341662676Y-178654050D03*
D15*
X336582676Y-178654050D03*
D16*
X332772676Y-176114050D03*
X339122676Y-173574050D03*
%TD*%
D14*
%TO.C,K41*%
X259432103Y-136745932D03*
X269437749Y-134981667D03*
D15*
X264434926Y-135863800D03*
D16*
X260241742Y-134023988D03*
X266054205Y-130419910D03*
%TD*%
D15*
%TO.C,K12*%
X283052676Y-95024200D03*
D14*
X288132676Y-95024200D03*
X277972676Y-95024200D03*
D16*
X279242676Y-92484200D03*
X285592676Y-89944200D03*
%TD*%
D14*
%TO.C,K60*%
X60865976Y-172629500D03*
D15*
X55785976Y-172629500D03*
D14*
X50705976Y-172629500D03*
D16*
X51975976Y-170089500D03*
X58325976Y-167549500D03*
%TD*%
D14*
%TO.C,K4*%
X124951750Y-99673333D03*
X114946103Y-97909067D03*
D15*
X119948927Y-98791200D03*
D16*
X116637875Y-95628189D03*
X123332471Y-94229443D03*
%TD*%
D15*
%TO.C,K72*%
X57023969Y-134458691D03*
D14*
X62103969Y-134458691D03*
X51943969Y-134458691D03*
D16*
X53213969Y-131918691D03*
X59563969Y-129378691D03*
%TD*%
D14*
%TO.C,K53*%
X215838353Y-163776883D03*
D15*
X220841176Y-162894751D03*
D14*
X225843999Y-162012618D03*
D16*
X216647992Y-161054939D03*
X222460455Y-157450861D03*
%TD*%
D15*
%TO.C,K55*%
X258362176Y-156278851D03*
D14*
X253359353Y-157160983D03*
X263364999Y-155396718D03*
D16*
X254168992Y-154439039D03*
X259981455Y-150834961D03*
%TD*%
D14*
%TO.C,K13*%
X307182676Y-97692200D03*
D15*
X302102676Y-97692200D03*
D14*
X297022676Y-97692200D03*
D16*
X298292676Y-95152200D03*
X304642676Y-92612200D03*
%TD*%
D18*
%TO.C,J1*%
X209547499Y-82870000D03*
X215327499Y-82870000D03*
D19*
X208117499Y-83400000D03*
X216757499Y-83400000D03*
X208117499Y-79220000D03*
X216757499Y-79220000D03*
%TD*%
D14*
%TO.C,J2*%
X235934640Y-128112321D03*
X235934640Y-130652321D03*
X238474640Y-128112321D03*
X238474640Y-130652321D03*
X241014640Y-128112321D03*
D20*
X241014640Y-130652321D03*
%TD*%
M02*
